<?xml version="1.0" encoding="UTF-8"?><svg id="Layer_1" xmlns="http://www.w3.org/2000/svg" viewBox="0 0 656.42 1012.71"><defs><style>.cls-1{fill:#061934;}</style></defs><g id="Group_1"><path id="Path_1" class="cls-1" d="M1.02,927.98v3.06c2.34-1.77.91.22,2.04-3.06H1.02ZM1.02,846.31c.34.68.68,1.36,1.02,2.04v1.02c.34-1.02.68-2.04,1.02-3.06H1.02ZM1.02,765.66l-1.02,1.02,1.02,1.02c2.34-1.77.91.22,2.04-3.06-.68.34-1.36.68-2.04,1.02M1.02,744.22v2.04h2.04v-2.04H1.02ZM1.02,723.8v2.04h2.04v-2.04H1.02ZM1.02,704.41c-.34.34-.68.68-1.02,1.02l1.02,1.02c2.34-1.77.91.22,2.04-3.06-.68.34-1.36.68-2.04,1.02M1.02,662.55c.34.68.68,1.36,1.02,2.04v1.02c.34-1.02.68-2.04,1.02-3.06H1.02ZM3.06,603.34v-2.04c-.94,1.81-1.37.53,0,2.04M1.02,580.89c.34.68.68,1.36,1.02,2.04v1.02c.34-1.02.68-2.04,1.02-3.06H1.02ZM3.06,562.51v-2.04c-.94,1.81-1.37.53,0,2.04M1.02,540.05c.34.68.68,1.36,1.02,2.04v1.02c.34-1.02.68-2.04,1.02-3.06H1.02ZM1.02,519.63v3.06c2.34-1.77.9.22,2.04-3.06H1.02ZM1.02,500.23v1.02c.68-.34,1.36-.68,2.04-1.02H1.02ZM1.02,478.79c.34.68.68,1.36,1.02,2.04v1.02c.34-1.02.68-2.04,1.02-3.06H1.02ZM3.06,460.42v-2.04c-.94,1.81-1.37.53,0,2.04M1.02,438.99v1.02l2.04-1.02H1.02ZM1.02,398.15v1.02c.68-.34,1.36-.68,2.04-1.02H1.02ZM1.02,377.73v1.02l2.04-1.02H1.02ZM1.02,336.9v1.02l2.04-1.02H1.02ZM1.02,316.48v1.02c.68-.34,1.36-.68,2.04-1.02H1.02ZM1.02,274.62v2.04h2.04v-2.04H1.02ZM1.02,255.22v1.02c.68-.34,1.36-.68,2.04-1.02H1.02ZM1.02,233.78v2.04h2.04v-2.04H1.02ZM1.02,193.98v1.02c.68-.34,1.36-.68,2.04-1.02H1.02ZM1.02,173.56v1.02c.68-.34,1.36-.68,2.04-1.02H1.02ZM1.02,90.87v2.04h2.04v-2.04H1.02ZM1.02,989.24v3.06h2.04c.34-1.02.68-2.04,1.02-3.06H1.02ZM1.02,968.82v3.06c2.28-1.02,1.62-.55,3.06-2.04-1.02-.34-2.04-.68-3.06-1.02M1.02,949.42c-.34.34-.68.68-1.02,1.02l3.06,1.02c.34-1.02.68-2.04,1.02-3.06-1.02.34-2.04.68-3.06,1.02M1.02,908.58c-.34.34-.68.68-1.02,1.02l3.06,1.02c.34-1.02.68-2.04,1.02-3.06-1.02.34-2.04.68-3.06,1.02M1.02,887.14v3.06c2.28-1.02,1.62-.55,3.06-2.04-1.02-.34-2.04-.68-3.06-1.02M1.02,867.74c-.34.34-.68.68-1.02,1.02l3.06,1.02c.34-1.02.68-2.04,1.02-3.06-1.02.34-2.04.68-3.06,1.02M1.02,825.89c.34.68.68,1.36,1.02,2.04l1.02,1.02c.34-1.02.68-2.04,1.02-3.06H1.02ZM1.02,804.45v1.02c-.34.68-.68,1.36-1.02,2.04h1.02l2.04,1.02c.34-1.02.68-2.04,1.02-3.06-1.02-.34-2.04-.68-3.06-1.02M1.02,682.97v3.06c2.28-1.02,1.62-.55,3.06-2.04-1.02-.34-2.04-.68-3.06-1.02M1.02,642.13v3.06h2.04c.34-1.02.68-2.04,1.02-3.06H1.02ZM11.23,938.18v3.06c2.34-1.77.9.22,2.04-3.06h-2.04ZM11.23,917.77c.34.68.68,1.36,1.02,2.04v1.02c.34-1.02.68-2.04,1.02-3.06h-2.04ZM11.23,857.53c-.34.34-.68.68-1.02,1.02l1.02,1.02c2.34-1.77.9.22,2.04-3.06l-2.04,1.02M11.23,774.85v3.06c2.34-1.77.9.22,2.04-3.06h-2.04ZM11.23,713.59v3.06c2.34-1.77.9.22,2.04-3.06h-2.04ZM11.23,695.22h1.02c.34.34.68.68,1.02,1.02v-2.04c-.68.34-1.36.68-2.04,1.02M11.23,672.76v3.06c2.34-1.77.9.22,2.04-3.06h-2.04ZM11.23,652.34v2.04h2.04v-2.04h-2.04ZM11.23,631.92c.34.68.68,1.36,1.02,2.04v1.02c.34-1.02.68-2.04,1.02-3.06h-2.04ZM11.23,611.51v3.07c2.34-1.77.9.22,2.04-3.06h-2.04ZM11.23,591.09c.34.68.68,1.36,1.02,2.04v1.02c.34-1.02.68-2.04,1.02-3.06h-2.04ZM11.23,570.67c.34.68.68,1.36,1.02,2.04v1.02c.34-1.02.68-2.04,1.02-3.06h-2.04ZM11.23,550.25v2.04h2.04v-2.04h-2.04ZM12.25,532.9c.34-1.02.68-2.04,1.02-3.06-2.37-.17-1.8,2.01-1.02,3.06M11.23,509.42l1.02,2.04v1.02c.34-1.02.68-2.04,1.02-3.06h-2.04ZM11.23,468.58v2.04h2.04v-2.04h-2.04ZM11.23,408.35v1.02l2.04-1.02h-2.04ZM11.23,387.94v1.02c.68-.34,1.36-.68,2.04-1.02h-2.04ZM11.23,366.5v2.04h2.04v-2.04h-2.04ZM11.23,346.08v2.04h2.04v-2.04h-2.04ZM11.23,285.85v1.03c.68-.34,1.36-.68,2.04-1.02h-2.04ZM11.23,265.43v1.02c.68-.34,1.36-.68,2.04-1.02h-2.04ZM11.23,224.6v1.02l2.04-1.02h-2.04ZM11.23,204.18v1.03c.68-.34,1.36-.68,2.04-1.02h-2.04ZM11.23,183.76v1.02c.68-.34,1.36-.68,2.04-1.02h-2.04ZM11.23,163.34v1.02c.68-.34,1.36-.68,2.04-1.02h-2.04ZM11.23,142.93v1.02c.68-.34,1.36-.68,2.04-1.02h-2.04ZM11.23,959.62c-.34.34-.68.68-1.02,1.02l1.02,1.02c2.28-1.02,1.62-.55,3.07-2.04h-3.07ZM11.23,897.35v3.06c2.28-1.02,1.62-.55,3.06-2.04-1.02-.34-2.04-.68-3.07-1.02M11.23,877.95c-.34.34-.68.68-1.02,1.02l3.06,1.02c.34-1.02.68-2.04,1.02-3.06-1.02.34-2.05.68-3.06,1.02M11.23,837.11c-.34.34-.68.68-1.02,1.02l1.02,1.02c2.28-1.02,1.62-.55,3.07-2.04h-3.07ZM11.23,815.68v3.06c2.28-1.02,1.62-.55,3.07-2.04-1.02-.34-2.04-.68-3.07-1.02M20.42,968.82c.34,1.02.68,2.04,1.02,3.06,2.34-1.77.9.22,2.04-3.06h-3.06ZM21.44,948.4v2.04h2.04v-2.04h-2.04ZM21.44,927.98c.34.68.68,1.36,1.02,2.04v1.02c.34-1.02.68-2.04,1.02-3.06h-2.04ZM21.44,866.73l1.02,2.04v1.02c.34-1.02.68-2.04,1.02-3.06h-2.04ZM21.44,846.31v3.07c2.34-1.77.9.22,2.04-3.06h-2.04ZM21.44,723.81c.34.68.68,1.36,1.02,2.04v1.02c.34-1.02.68-2.04,1.02-3.06h-2.04ZM21.44,703.39v3.06c2.34-1.77.9.22,2.04-3.06h-2.04ZM21.44,684c-.34.34-.68.68-1.02,1.02l1.02,1.02c2.34-1.77.9.22,2.04-3.06-.68.34-1.36.68-2.04,1.02M21.44,642.14c.34.68.68,1.36,1.02,2.04v1.02c.34-1.02.68-2.04,1.02-3.06h-2.04ZM21.44,621.72v2.04h2.04v-2.04h-2.04ZM21.44,601.3v3.06c2.34-1.77.9.22,2.04-3.06h-2.04ZM21.44,560.47v2.04h2.04v-2.04h-2.04ZM21.44,519.63v2.04h2.04v-2.04h-2.04ZM21.44,478.8v2.04h2.04v-2.04h-2.04ZM21.44,459.4v1.02c.68-.34,1.36-.68,2.04-1.02h-2.04ZM21.44,438.99v1.02c.68-.34,1.36-.68,2.04-1.02h-2.04ZM21.44,418.57v1.02c.68-.34,1.36-.68,2.04-1.02h-2.04ZM21.44,377.73v1.02c.68-.34,1.36-.68,2.04-1.02h-2.04ZM21.44,357.32v1.02c.68-.34,1.36-.68,2.04-1.02h-2.04ZM21.44,336.9v1.02c.68-.34,1.36-.68,2.04-1.02h-2.04ZM21.44,296.06v1.02l2.04-1.02h-2.04ZM21.44,274.62v3.06c2.34-1.77.9.22,2.04-3.06h-2.04ZM21.44,234.81v1.02c.68-.34,1.36-.68,2.04-1.02h-2.04ZM21.44,214.39v1.02c.68-.34,1.36-.68,2.04-1.02h-2.04ZM21.44,153.14v1.02l2.04-1.02h-2.04ZM21.44,51.05v1.02l2.04-1.02h-2.04ZM21.44,989.23l1.02,2.04,1.02,1.02c.34-1.02.68-2.04,1.02-3.06h-3.06ZM21.44,887.15v3.06c3.25-1.18,1.29.34,3.06-2.04-1.02-.34-2.04-.68-3.06-1.02M21.44,826.91c-.34.34-.68.68-1.02,1.02l3.06,1.02c.34-1.02.68-2.04,1.02-3.06-1.02.34-2.04.68-3.06,1.02M21.44,805.48c1.77,2.7.3,2.69,3.06,1.02-1.02-.34-2.04-.68-3.06-1.02M21.44,785.06c.34.68.68,1.36,1.02,2.04l1.02,1.02c.34-1.02.68-2.04,1.02-3.06h-3.06ZM21.44,765.67l-1.02,1.02,1.02,1.02c2.28-1.02,1.62-.55,3.06-2.04h-3.06ZM21.44,745.25c-.34.34-.68.68-1.02,1.02l1.02,1.02c2.28-1.02,1.62-.55,3.06-2.04h-3.06ZM21.44,662.56v3.06h2.04c.34-1.02.68-2.04,1.02-3.06h-3.06ZM21.44,581.91c-.34.34-.68.68-1.02,1.02,3.84-.11,1.46,1.22,4.08-1.02h-3.06ZM21.44,541.07c-.34.34-.68.68-1.02,1.02l3.06,1.02c.34-1.02.68-2.04,1.02-3.06l-3.06,1.03M31.65,999.44v3.06c2.34-1.77.9.22,2.04-3.06h-2.04ZM31.65,979.02c.34.68.68,1.36,1.02,2.04v1.02c.34-1.02.68-2.04,1.02-3.06h-2.04ZM31.65,958.61c.34.68.68,1.36,1.02,2.04v1.02c.34-1.02.68-2.04,1.02-3.06h-2.04ZM31.65,876.94v2.04h2.04v-2.04h-2.04ZM31.65,774.85v3.06c2.34-1.77.9.22,2.04-3.06h-2.04ZM31.65,754.43c.34.68.68,1.36,1.02,2.04v1.02c.34-1.02.68-2.04,1.02-3.06h-2.04ZM31.65,734.02v3.06c2.34-1.77.9.22,2.04-3.06h-2.04ZM31.65,713.6v3.06c2.34-1.77.9.22,2.04-3.06h-2.04ZM31.65,693.18v2.04h2.04v-2.05h-2.04ZM31.65,673.78c-.34.34-.68.68-1.02,1.02l1.02,1.02c2.34-1.77.9.22,2.04-3.06-.68.34-1.36.68-2.04,1.02M31.65,611.51v3.07c2.34-1.77.9.22,2.04-3.06h-2.04ZM31.65,591.09c.34.68.68,1.36,1.02,2.04v1.02c.34-1.02.68-2.04,1.02-3.06h-2.04ZM31.65,570.67c.34.68.68,1.36,1.02,2.04v1.02c.34-1.02.68-2.04,1.02-3.06h-2.04ZM31.65,550.25v2.04h2.04v-2.04h-2.04ZM33.69,531.88v-2.04c-.94,1.81-1.37.53,0,2.04M33.69,511.46v-2.04c-.94,1.81-1.37.53,0,2.04M31.65,490.03v1.02c.68-.34,1.36-.68,2.04-1.02h-2.04ZM33.69,450.21v-2.04c-.94,1.81-1.38.53,0,2.04M31.65,428.78v1.02c.68-.34,1.36-.68,2.04-1.02h-2.04ZM31.65,408.36v1.02c.68-.34,1.36-.68,2.04-1.02h-2.04ZM31.65,387.94v1.02c.68-.34,1.36-.68,2.04-1.02h-2.04ZM31.65,367.53v1.02l2.04-1.02h-2.04ZM31.65,346.09v2.04h2.04v-2.04h-2.04ZM31.65,306.27v1.02c.68-.34,1.36-.68,2.04-1.02h-2.04ZM33.69,286.88v-2.04c-.94,1.81-1.37.53,0,2.04M31.65,265.44v1.02c.68-.34,1.36-.68,2.04-1.02h-2.04ZM31.65,224.6v1.02l2.04-1.02h-2.04ZM31.65,204.19v1.02c.68-.34,1.36-.68,2.04-1.02h-2.04ZM31.65,163.35v1.02c.68-.34,1.36-.68,2.04-1.02h-2.04ZM31.65,142.93v1.02c.68-.34,1.36-.68,2.04-1.02h-2.04ZM31.65,40.85v1.02l2.04-1.02h-2.04ZM31.65,938.19v3.06c2.28-1.01,1.62-.55,3.06-2.04-1.02-.34-2.04-.68-3.06-1.02M31.65,836.1v3.06c2.28-1.02,1.62-.55,3.07-2.04-1.02-.34-2.04-.68-3.07-1.02M31.65,796.29l-1.02,1.02,3.06,1.02c.34-1.02.68-2.04,1.02-3.06l-3.07,1.02M31.65,652.35v3.06c2.24-1.32,1.72-1.01,3.07-3.06h-3.07ZM30.63,631.93c.34.68.68,1.36,1.02,2.04v1.02c2.28-1.02,1.62-.55,3.07-2.04-1.36-.34-2.72-.68-4.08-1.02M41.86,927.98v3.06c2.34-1.77.9.22,2.04-3.06h-2.04ZM41.86,846.31v3.07c2.34-1.77.9.22,2.04-3.06h-2.04ZM41.86,785.06v3.06c2.34-1.77.9.22,2.04-3.06h-2.04ZM41.86,723.8v3.06c2.34-1.77.9.22,2.04-3.06h-2.04ZM41.86,703.39c.34.68.68,1.36,1.02,2.04v1.02c.34-1.02.68-2.04,1.02-3.06h-2.04ZM41.86,682.97c.34.68.68,1.36,1.02,2.04v1.02c.34-1.02.68-2.04,1.02-3.06h-2.04ZM41.86,662.55c.34.68.68,1.36,1.02,2.04v1.02c.34-1.02.68-2.04,1.02-3.06h-2.04ZM41.86,642.13c.34.68.68,1.36,1.02,2.04v1.02c.34-1.02.68-2.04,1.02-3.06h-2.04ZM41.86,621.72c.34.68.68,1.36,1.02,2.04v1.02c.34-1.02.68-2.04,1.02-3.06h-2.04ZM41.86,601.3v2.04h2.04v-2.04h-2.04ZM43.9,582.93v-2.04c-.94,1.81-1.37.53,0,2.04M41.86,560.47c.34.68.68,1.36,1.02,2.04v1.02c.34-1.02.68-2.04,1.02-3.06h-2.04ZM41.86,541.07c-.34.34-.68.68-1.02,1.02l1.02,1.02c2.34-1.77.9.22,2.04-3.06-.68.34-1.36.68-2.04,1.02M42.88,522.7c.34-1.02.68-2.04,1.02-3.06-2.37-.17-1.8,2.02-1.02,3.06M41.86,500.24v1.02l2.04-1.02h-2.04ZM41.86,479.82v1.02l2.04-1.02h-2.04ZM41.86,459.4v1.02c.68-.34,1.36-.68,2.04-1.02h-2.04ZM41.86,437.96c.34.68.68,1.36,1.02,2.04v1.02c.34-1.02.68-2.04,1.02-3.06h-2.04ZM43.9,419.59v-2.04c-.94,1.81-1.37.53,0,2.04M41.86,398.15v1.02c.68-.34,1.36-.68,2.04-1.02h-2.04ZM41.86,377.73v1.02l2.04-1.02h-2.04ZM41.86,357.32v1.02c.68-.34,1.36-.68,2.04-1.02h-2.04ZM41.86,336.9v1.02l2.04-1.02h-2.04ZM41.86,296.06v1.02l2.04-1.02h-2.04ZM41.86,275.65v1.02l2.04-1.02h-2.04ZM41.86,255.23v1.02c.68-.34,1.36-.68,2.04-1.02h-2.04ZM41.86,214.39v1.02c.68-.34,1.36-.68,2.04-1.02h-2.04ZM41.86,132.72v1.02c.68-.34,1.36-.68,2.04-1.02h-2.04ZM41.86,91.89v1.02c.68-.34,1.36-.68,2.04-1.02h-2.04ZM41.86,990.26l-1.02,1.02,3.06,1.02c.34-1.02.68-2.04,1.02-3.06-1.02.34-2.04.68-3.07,1.02M41.86,948.4v3.06c2.28-1.02,1.62-.55,3.07-2.04-1.02-.34-2.04-.68-3.07-1.02M41.86,826.92c-.34.34-.68.68-1.02,1.02l3.06,1.02c.34-1.02.68-2.04,1.02-3.06-1.02.34-2.04.68-3.07,1.02M41.86,764.64c1.77,2.7.3,2.69,3.07,1.02-1.02-.34-2.04-.68-3.07-1.02M41.86,744.23v3.06c2.28-1.02,1.62-.55,3.07-2.04-1.02-.34-2.04-.68-3.07-1.02M52.07,999.44c.34.68.68,1.36,1.02,2.04v1.02c.34-1.02.68-2.04,1.02-3.06h-2.04ZM52.07,939.21h-1.02v1.02c3.25-1.18,1.29.34,3.06-2.04-.68.34-1.36.68-2.04,1.02M54.11,878.98v-2.04c-.94,1.81-1.37.53,0,2.04M52.07,774.85v2.04h2.04v-2.04h-2.04ZM52.07,754.43v3.06c2.34-1.77.9.22,2.04-3.06h-2.04ZM52.07,713.6v3.06c2.34-1.77.9.22,2.04-3.06h-2.04ZM52.07,693.18v3.06c2.34-1.77.9.22,2.04-3.06h-2.04ZM52.07,672.76c.34.68.68,1.36,1.02,2.04v1.02c.34-1.02.68-2.04,1.02-3.06h-2.04ZM52.07,652.35l1.02,2.04v1.02c.34-1.02.68-2.04,1.02-3.06h-2.04ZM52.07,631.93v2.04h2.04v-2.04h-2.04ZM52.07,611.51v2.04h2.04v-2.04h-2.04ZM52.07,592.12v1.02c.68-.34,1.36-.68,2.04-1.02h-2.04ZM52.07,571.7v1.02c.68-.34,1.36-.68,2.04-1.02h-2.04ZM52.07,529.84v2.04h2.04v-2.04h-2.04ZM52.07,510.45v1.02l2.04-1.02h-2.04ZM52.07,490.03v1.02c.68-.34,1.36-.68,2.04-1.02h-2.04ZM52.07,469.61v1.02c.68-.34,1.36-.68,2.04-1.02h-2.04ZM52.07,408.36v1.02c.68-.34,1.36-.68,2.04-1.02h-2.04ZM52.07,386.92v2.04h2.04v-2.04h-2.04ZM52.07,367.52v1.02l2.04-1.02h-2.04ZM52.07,326.69v1.02c.68-.34,1.36-.68,2.04-1.02h-2.04ZM52.07,245.02v1.02c.68-.34,1.36-.68,2.04-1.02h-2.04ZM52.07,224.6v1.02l2.04-1.02h-2.04ZM52.07,183.76v1.02c.68-.34,1.36-.68,2.04-1.02h-2.04ZM52.07,163.35v1.02c.68-.34,1.36-.68,2.04-1.02h-2.04ZM52.07,102.09v1.02c.68-.34,1.36-.68,2.04-1.02h-2.04ZM52.07,919.81c.5,2.83,3.06-1.02,3.06-1.02-.81-2.14-3.71.35-3.06,1.02M51.05,836.1c.34.68.68,1.36,1.02,2.04v1.02c2.28-1.02,1.62-.55,3.06-2.04-1.36-.34-2.72-.68-4.08-1.02M52.07,734.01v3.07c2.28-1.02,1.62-.55,3.06-2.04-1.02-.34-2.04-.68-3.06-1.02M52.07,550.26c1.77,2.7.3,2.69,3.06,1.02l-3.06-1.02M62.28,989.23c.34.68.68,1.36,1.02,2.04v1.02c.34-1.02.68-2.04,1.02-3.06h-2.04ZM62.28,846.31v3.07c2.34-1.77.9.22,2.04-3.06h-2.04ZM62.28,827.94h1.02l1.02,1.02v-2.04c-.68.34-1.36.68-2.04,1.02M62.28,764.64c.34.68.68,1.36,1.02,2.04v1.02c.34-1.02.68-2.04,1.02-3.06h-2.04ZM62.28,723.81c.34.68.68,1.36,1.02,2.04v1.02c.34-1.02.68-2.04,1.02-3.06h-2.04ZM62.28,703.39v3.06c2.34-1.77.9.22,2.04-3.06h-2.04ZM62.28,682.97c.34.68.68,1.36,1.02,2.04v1.02c.34-1.02.68-2.04,1.02-3.06h-2.04ZM62.28,642.14c.34.68.68,1.36,1.02,2.04v1.02c.34-1.02.68-2.04,1.02-3.06h-2.04ZM62.28,621.72v2.04h2.04v-2.04h-2.04ZM62.28,580.89c.34.68.68,1.36,1.02,2.04v1.02c.34-1.02.68-2.04,1.02-3.06h-2.04ZM62.28,561.49v1.02c.68-.34,1.36-.68,2.04-1.02h-2.04ZM62.28,541.07c-.34.34-.68.68-1.02,1.02l1.02,1.02c2.34-1.77.9.22,2.04-3.06-.68.34-1.36.68-2.04,1.02M62.28,520.66v1.02c.68-.34,1.36-.68,2.04-1.02h-2.04ZM63.3,481.86c.34-1.02.68-2.04,1.02-3.06-2.37-.17-1.8,2.02-1.02,3.06M62.28,459.4v1.02c.68-.34,1.36-.68,2.04-1.02h-2.04ZM62.28,438.98v1.02l2.04-1.02h-2.04ZM64.32,419.58v-2.04c-.94,1.81-1.37.53,0,2.04M64.32,378.75v-2.04c-.94,1.81-1.37.53,0,2.04M62.28,336.9v1.02c.68-.34,1.36-.68,2.04-1.02h-2.04ZM62.28,296.06v1.02l2.04-1.02h-2.04ZM62.28,255.23v1.02l2.04-1.02h-2.04ZM62.28,234.81v1.02c.68-.34,1.36-.68,2.04-1.02h-2.04ZM62.28,112.31v1.02c.68-.34,1.36-.68,2.04-1.02h-2.04ZM62.28,744.23v3.06c2.28-1.02,1.62-.55,3.06-2.04-1.02-.34-2.04-.68-3.06-1.02M62.28,662.56c1.77,2.7.3,2.69,3.06,1.02-1.02-.34-2.04-.68-3.06-1.02M62.28,601.31c1.77,2.7.3,2.69,3.06,1.02-1.02-.34-2.04-.68-3.06-1.02M73.51,961.67c.34-1.02.68-2.04,1.02-3.06-2.37-.17-1.8,2.01-1.02,3.06M73.51,880c.34-1.02.68-2.04,1.02-3.06-2.37-.17-1.8,2.02-1.02,3.06M72.48,856.52v2.04h2.04v-2.04h-2.04ZM72.48,774.85v2.04h2.04v-2.04h-2.04ZM72.48,754.43c.34.68.68,1.36,1.02,2.04v1.02c.34-1.02.68-2.04,1.02-3.06h-2.04ZM72.48,734.02v3.06c2.34-1.77.9.22,2.04-3.06h-2.04ZM72.48,713.6c.34.68.68,1.36,1.02,2.04v1.02c.34-1.02.68-2.04,1.02-3.06h-2.04ZM72.48,693.18v2.04h2.04v-2.05h-2.04ZM72.48,672.76c.34.68.68,1.36,1.02,2.04v1.02c.34-1.02.68-2.04,1.02-3.06h-2.04ZM72.48,652.35c.34.68.68,1.36,1.02,2.04v1.02c.34-1.02.68-2.04,1.02-3.06h-2.04ZM74.53,633.97v-2.04c-.94,1.81-1.37.53,0,2.04M73.51,614.57c.34-1.02.68-2.04,1.02-3.06-2.37-.17-1.8,2.02-1.02,3.06M72.48,591.09c.34.68.68,1.36,1.02,2.04v1.02c.34-1.02.68-2.04,1.02-3.06h-2.04ZM74.53,572.72v-2.04c-.94,1.81-1.37.53,0,2.04M72.48,550.26c.34.68.68,1.36,1.02,2.04v1.02c.34-1.02.68-2.04,1.02-3.06h-2.04ZM72.48,529.84c.34.68.68,1.36,1.02,2.04v1.02c.34-1.02.68-2.04,1.02-3.06h-2.04ZM72.48,511.47l2.04-1.02c-.37-1.75-1.64-.83-2.04,1.02M72.48,489.01c.34.68.68,1.36,1.02,2.04v1.02c.34-1.02.68-2.04,1.02-3.06h-2.04ZM72.48,469.61v1.02c.68-.34,1.36-.68,2.04-1.02h-2.04ZM72.48,449.2v1.02l2.04-1.02h-2.04ZM72.48,428.78v1.02c.68-.34,1.36-.68,2.04-1.02h-2.04ZM72.48,408.36v1.02l2.04-1.02h-2.04ZM74.53,388.96v-2.04c-.94,1.81-1.37.53,0,2.04M72.48,347.11v1.02c.68-.34,1.36-.68,2.04-1.02h-2.04ZM72.48,326.69v1.02c.68-.34,1.36-.68,2.04-1.02h-2.04ZM72.48,285.85v1.02c.68-.34,1.36-.68,2.04-1.02h-2.04ZM72.48,163.35v1.02c.68-.34,1.36-.68,2.04-1.02h-2.04ZM72.48,122.51v1.02c.68-.34,1.36-.68,2.04-1.02h-2.04ZM72.48,999.44c.34.68.68,1.36,1.02,2.04.34.34.68.68,1.02,1.02.34-1.02.68-2.04,1.02-3.06h-3.06ZM72.48,836.1c1.77,2.7.3,2.69,3.06,1.02-1.02-.34-2.04-.68-3.06-1.02M83.72,1012.71c.34-1.02.68-2.04,1.02-3.06h-2.04c.34.68.68,1.36,1.02,2.04v1.02M82.69,989.23v3.06c2.34-1.77.9.22,2.04-3.06h-2.04ZM82.69,968.81v2.04h2.04v-2.04h-2.04ZM84.74,909.6v-2.04c-.94,1.81-1.37.53,0,2.04M82.69,887.15v2.04h2.04v-2.04h-2.04ZM82.69,744.22c.34.68.68,1.36,1.02,2.04v1.02c.34-1.02.68-2.04,1.02-3.06h-2.04ZM82.69,703.39c.34.68.68,1.36,1.02,2.04v1.02c.34-1.02.68-2.04,1.02-3.06h-2.04ZM82.69,682.97v2.04h2.04v-2.04h-2.04ZM82.69,662.55v3.06c2.34-1.77.9.22,2.04-3.06h-2.04ZM82.69,642.14c.34.68.68,1.36,1.02,2.04v1.02c.34-1.02.68-2.04,1.02-3.06h-2.04ZM82.69,621.72v2.04h2.04v-2.04h-2.04ZM83.72,604.36c.34-1.02.68-2.04,1.02-3.06-2.37-.17-1.8,2.01-1.02,3.06M82.69,583.95c2.34-1.77.9.22,2.04-3.06-1.48,1.45-1.05.75-2.04,3.06M82.69,560.47v2.04h2.04v-2.04h-2.04ZM84.74,542.09v-2.04c-.94,1.81-1.37.53,0,2.04M82.69,521.68h1.02l1.02,1.02v-2.04c-.68.34-1.36.68-2.04,1.02M82.69,499.22c.34.68.68,1.36,1.02,2.04v1.02c.34-1.02.68-2.04,1.02-3.06h-2.04ZM82.69,479.82v1.02l2.04-1.02h-2.04ZM82.69,459.4v1.02c.68-.34,1.36-.68,2.04-1.02h-2.04ZM82.69,438.99v1.02l2.04-1.02h-2.04ZM84.74,419.59v-2.04c-.94,1.81-1.37.53,0,2.04M82.69,377.73v1.02c.68-.34,1.36-.68,2.04-1.02h-2.04ZM82.69,357.31v1.02c.68-.34,1.36-.68,2.04-1.02h-2.04ZM82.69,336.9v1.02l2.04-1.02h-2.04ZM82.69,316.48v1.02c.68-.34,1.36-.68,2.04-1.02h-2.04ZM82.69,275.64v1.02c.68-.34,1.36-.68,2.04-1.02h-2.04ZM84.74,235.83v-2.04c-.94,1.81-1.37.53,0,2.04M82.69,214.39v1.02c.68-.34,1.36-.68,2.04-1.02h-2.04ZM82.69,193.98v1.02c.68-.34,1.36-.68,2.04-1.02h-2.04ZM82.69,91.89v1.02c.68-.34,1.36-.68,2.04-1.02h-2.04ZM82.69,847.33l-1.02,1.02,1.02,1.02c2.28-1.02,1.62-.55,3.06-2.04h-3.06ZM82.69,826.91c-.34.34-.68.68-1.02,1.02l3.06,1.02c.34-1.02.68-2.04,1.02-3.06-1.02.34-2.04.68-3.06,1.02M92.9,999.44v2.04h2.04v-2.04h-2.04ZM92.9,958.61c.34.68.68,1.36,1.02,2.04v1.02c.34-1.02.68-2.04,1.02-3.06h-2.04ZM92.9,918.79l-1.02,1.02,1.02,1.02c2.34-1.77.9.22,2.04-3.06-.68.34-1.36.68-2.04,1.02M92.9,897.35l1.02,2.04v1.02c.34-1.02.68-2.04,1.02-3.06h-2.04ZM92.9,876.94v3.06c2.34-1.77.9.22,2.04-3.06h-2.04ZM93.92,859.58c.34-1.02.68-2.04,1.02-3.06-2.37-.17-1.8,2.01-1.02,3.06M91.88,836.1c.34,1.02.68,2.04,1.02,3.06,2.34-1.77.9.22,2.04-3.06h-3.06ZM92.9,754.43c.34.68.68,1.36,1.02,2.04v1.02c.34-1.02.68-2.04,1.02-3.06h-2.04ZM92.9,734.01v3.07c2.34-1.77.9.22,2.04-3.06h-2.04ZM92.9,693.18l1.02,2.04v1.02c.34-1.02.68-2.04,1.02-3.06h-2.04ZM92.9,672.76c.34.68.68,1.36,1.02,2.04v1.02c.34-1.02.68-2.04,1.02-3.06h-2.04ZM92.9,652.34v3.06c2.34-1.77.9.22,2.04-3.06h-2.04ZM92.9,631.92v3.06c2.34-1.77.9.22,2.04-3.06h-2.04ZM94.94,613.55v-2.04c-.94,1.81-1.37.53,0,2.04M92.9,591.09l1.02,2.04v1.02c.34-1.02.68-2.04,1.02-3.06h-2.04ZM94.94,572.71v-2.04c-.94,1.81-1.37.53,0,2.04M92.9,550.26c.34.68.68,1.36,1.02,2.04v1.02c.34-1.02.68-2.04,1.02-3.06h-2.04ZM93.92,532.9c.34-1.02.68-2.04,1.02-3.06-2.37-.17-1.8,2.01-1.02,3.06M92.9,509.42v2.04h2.04v-2.04h-2.04ZM94.94,491.05v-2.04c-.94,1.81-1.37.53,0,2.04M94.94,470.63v-2.04c-.94,1.81-1.37.53,0,2.04M92.9,449.19v1.02c.68-.34,1.36-.68,2.04-1.02h-2.04ZM92.9,427.76v2.04h2.04v-2.04h-2.04ZM92.9,367.53v1.02l2.04-1.02h-2.04ZM92.9,347.11v1.02c.68-.34,1.36-.68,2.04-1.02h-2.04ZM92.9,245.02v1.02c.68-.34,1.36-.68,2.04-1.02h-2.04ZM92.9,224.6v1.02l2.04-1.02h-2.04ZM92.9,979.03v3.06h2.04c.34-1.02.68-2.04,1.02-3.06h-3.06ZM92.9,713.6c1.77,2.7.3,2.69,3.06,1.02-1.02-.34-2.04-.68-3.06-1.02M104.13,1012.71c.34-1.02.68-2.04,1.02-3.06h-2.04c.34.68.68,1.36,1.02,2.04v1.02M103.11,968.81c.34.68.68,1.36,1.02,2.04v1.02c.34-1.02.68-2.04,1.02-3.06h-2.04ZM103.11,948.4c.34.68.68,1.36,1.02,2.04v1.02c.34-1.02.68-2.04,1.02-3.06h-2.04ZM104.13,931.04c.34-1.02.68-2.04,1.02-3.06-2.37-.17-1.8,2.01-1.02,3.06M103.11,887.14c.34.68.68,1.36,1.02,2.04v1.02c.34-1.02.68-2.04,1.02-3.06h-2.04ZM103.11,846.31v3.07c2.34-1.77.9.22,2.04-3.06h-2.04ZM103.11,825.89v2.04h2.04v-2.04h-2.04ZM103.11,786.08v1.02l2.04-1.02h-2.04ZM103.11,764.64v3.06c2.34-1.77.9.22,2.04-3.06h-2.04ZM103.11,744.22c.34.68.68,1.36,1.02,2.04v1.02c.34-1.02.68-2.04,1.02-3.06h-2.04ZM103.11,723.8c.34.68.68,1.36,1.02,2.04v1.02c.34-1.02.68-2.04,1.02-3.06h-2.04ZM103.11,703.38c.34.68.68,1.36,1.02,2.04v1.02c.34-1.02.68-2.04,1.02-3.06h-2.04ZM103.11,662.55c.34.68.68,1.36,1.02,2.04v1.02c.34-1.02.68-2.04,1.02-3.06h-2.04ZM103.11,642.13c.34.68.68,1.36,1.02,2.04v1.02c.34-1.02.68-2.04,1.02-3.06h-2.04ZM103.11,622.74v1.02c.68-.34,1.36-.68,2.04-1.02h-2.04ZM105.15,603.34v-2.04c-.94,1.81-1.37.53,0,2.04M103.11,580.88v2.04h2.04v-2.04h-2.04ZM103.11,540.04c.34.68.68,1.36,1.02,2.04v1.02c.34-1.02.68-2.04,1.02-3.06h-2.04ZM105.15,521.68v-2.04c-.94,1.81-1.37.53,0,2.04M105.15,501.26v-2.04c-.94,1.81-1.37.53,0,2.04M103.11,479.82v1.02l2.04-1.02h-2.04ZM103.11,459.4v1.02c.68-.34,1.36-.68,2.04-1.02h-2.04ZM103.11,438.99v1.02l2.04-1.02h-2.04ZM103.11,418.57v1.02c.68-.34,1.36-.68,2.04-1.02h-2.04ZM103.11,398.15v1.02c.68-.34,1.36-.68,2.04-1.02h-2.04ZM103.11,377.73v1.02l2.04-1.02h-2.04ZM103.11,316.48v1.02c.68-.34,1.36-.68,2.04-1.02h-2.04ZM103.11,234.81v1.02c.68-.34,1.36-.68,2.04-1.02h-2.04ZM103.11,214.39v1.02c.68-.34,1.36-.68,2.04-1.02h-2.04ZM103.11,153.14v1.02l2.04-1.02h-2.04ZM103.11,71.47v1.02c.68-.34,1.36-.68,2.04-1.02h-2.04ZM103.11,989.23v3.06h2.04c.34-1.02.68-2.04,1.02-3.06h-3.06ZM103.11,908.58c-.34.34-.68.68-1.02,1.02l3.06,1.02c.34-1.02.68-2.04,1.02-3.06-1.02.34-2.04.68-3.06,1.02M103.11,866.73c1.77,2.7.3,2.69,3.07,1.02-1.02-.34-2.04-.68-3.07-1.02M103.11,682.97c1.77,2.7.3,2.69,3.07,1.02-1.02-.34-2.04-.68-3.07-1.02M103.11,560.47v3.06c2.28-1.02,1.62-.55,3.07-2.04-1.02-.34-2.04-.68-3.07-1.02M113.32,999.44c.34.68.68,1.36,1.02,2.04v1.02c.34-1.02.68-2.04,1.02-3.06h-2.04ZM113.32,958.61v2.04h2.04v-2.04h-2.04ZM113.32,939.21c-.34.34-.68.68-1.02,1.02l1.02,1.02c2.34-1.77.9.22,2.04-3.06-.68.34-1.36.68-2.04,1.02M113.32,917.77v3.06c2.34-1.77.9.22,2.04-3.06h-2.04ZM113.32,876.94v2.04h2.04v-2.04h-2.04ZM113.32,856.52c.34.68.68,1.36,1.02,2.04v1.02c.34-1.02.68-2.04,1.02-3.06h-2.04ZM113.32,836.1c.34.68.68,1.36,1.02,2.04v1.02c.34-1.02.68-2.04,1.02-3.06h-2.04ZM113.32,735.04v1.02l2.04-1.02h-2.04ZM113.32,713.6v2.04h2.04v-2.04h-2.04ZM113.32,693.18c.34.68.68,1.36,1.02,2.04v1.02c.34-1.02.68-2.04,1.02-3.06h-2.04ZM115.36,674.8v-2.04c-.94,1.81-1.37.53,0,2.04M113.32,652.35v2.04h2.04v-2.04h-2.04ZM115.36,633.97v-2.04c-.94,1.81-1.37.53,0,2.04M113.32,611.51v2.04h2.04v-2.04h-2.04ZM113.32,591.09c.34.68.68,1.36,1.02,2.04v1.02c.34-1.02.68-2.04,1.02-3.06h-2.04ZM113.32,550.26c.34.68.68,1.36,1.02,2.04v1.02c.34-1.02.68-2.04,1.02-3.06h-2.04ZM113.32,529.84c.34.68.68,1.36,1.02,2.04v1.02c.34-1.02.68-2.04,1.02-3.06h-2.04ZM113.32,489.01c.34.68.68,1.36,1.02,2.04v1.02c.34-1.02.68-2.04,1.02-3.06h-2.04ZM113.32,468.59v2.04h2.04v-2.04h-2.04ZM113.32,448.17c.34.68.68,1.36,1.02,2.04v1.02c.34-1.02.68-2.04,1.02-3.06h-2.04ZM113.32,428.77v1.02c.68-.34,1.36-.68,2.04-1.02h-2.04ZM113.32,408.35v1.02l2.04-1.02h-2.04ZM113.32,347.1v1.02c.68-.34,1.36-.68,2.04-1.02h-2.04ZM115.36,307.29v-2.04c-.94,1.81-1.37.53,0,2.04M115.36,266.45v-2.04c-.94,1.81-1.37.53,0,2.04M113.32,224.6v1.02l2.04-1.02h-2.04ZM113.32,40.85v1.02c.68-.34,1.36-.68,2.04-1.02h-2.04ZM112.3,897.35c.34.68.68,1.36,1.02,2.04v1.02c2.28-1.02,1.62-.55,3.07-2.04-1.36-.34-2.72-.68-4.08-1.02M113.32,570.68v3.06c2.28-1.02,1.62-.55,3.07-2.04-1.02-.34-2.04-.68-3.07-1.02M113.32,509.43c1.77,2.7.3,2.69,3.07,1.02l-3.07-1.02M123.53,1009.65v2.04h2.04v-2.04h-2.04ZM125.57,991.28v-2.04c-.94,1.81-1.37.53,0,2.04M123.53,968.82v2.04h2.04v-2.04h-2.04ZM123.53,927.98v3.06c2.34-1.77.9.22,2.04-3.06h-2.04ZM123.53,846.31c.34.68.68,1.36,1.02,2.04v1.02c.34-1.02.68-2.04,1.02-3.06h-2.04ZM123.53,828.96h2.04v-2.04c-2.6-1.26-1.22-.72-2.04,2.04M123.53,805.48v2.04h2.04v-2.04h-2.04ZM123.53,764.64l1.02,2.04v1.02c.34-1.02.68-2.04,1.02-3.06h-2.04ZM123.53,703.39l1.02,2.04v1.02c.34-1.02.68-2.04,1.02-3.06h-2.04ZM123.53,682.97l1.02,2.04v1.02c.34-1.02.68-2.04,1.02-3.06h-2.04ZM123.53,662.56v3.06c2.34-1.77.9.22,2.04-3.06h-2.04ZM123.53,642.14v2.04h2.04v-2.04h-2.04ZM123.53,621.72v2.04h2.04v-2.04h-2.04ZM123.53,601.31v2.04h2.04v-2.04h-2.04ZM123.53,580.89v2.04h2.04v-2.04h-2.04ZM123.53,540.05l1.02,2.04v1.02c.34-1.02.68-2.04,1.02-3.06h-2.04ZM123.53,519.64v2.04h2.04v-2.04h-2.04ZM123.53,501.26h1.02l1.02,1.02v-2.04c-.68.34-1.36.68-2.04,1.02M123.53,479.82v1.02l2.04-1.02h-2.04ZM123.53,459.4v1.02c.68-.34,1.36-.68,2.04-1.02h-2.04ZM123.53,398.15v1.02c.68-.34,1.36-.68,2.04-1.02h-2.04ZM123.53,336.9v1.02c.68-.34,1.36-.68,2.04-1.02h-2.04ZM123.53,316.48v1.02c.68-.34,1.36-.68,2.04-1.02h-2.04ZM123.53,296.06v1.02l2.04-1.02h-2.04ZM125.57,276.66v-2.04c-.94,1.81-1.37.53,0,2.04M123.53,214.39v1.02c.68-.34,1.36-.68,2.04-1.02h-2.04ZM123.53,907.56c1.77,2.7.3,2.69,3.06,1.02-1.02-.34-2.04-.68-3.06-1.02M123.53,867.75c-.34.34-.68.68-1.02,1.02l1.02,1.02c2.28-1.01,1.62-.55,3.06-2.04h-3.06ZM123.53,723.81v3.06h2.04c.34-1.02.68-2.04,1.02-3.06h-3.06ZM123.53,560.47v3.06c2.28-1.02,1.62-.55,3.06-2.04-1.02-.34-2.04-.68-3.06-1.02M133.74,918.79l-1.02,1.02,1.02,1.02c2.34-1.77.9.22,2.04-3.06-.68.34-1.36.68-2.04,1.02M133.74,815.69c.34.68.68,1.36,1.02,2.04v1.02c.34-1.02.68-2.04,1.02-3.06h-2.04ZM133.74,795.27v2.04h2.04v-2.04h-2.04ZM133.74,775.87v1.02c.68-.34,1.36-.68,2.04-1.02h-2.04ZM133.74,734.01c.34.68.68,1.36,1.02,2.04v1.02c.34-1.02.68-2.04,1.02-3.06h-2.04ZM135.78,715.64v-2.04c-.94,1.81-1.37.53,0,2.04M133.74,693.18l1.02,2.04v1.02c.34-1.02.68-2.04,1.02-3.06h-2.04ZM133.74,672.76v2.04h2.04v-2.04h-2.04ZM133.74,652.34l1.02,2.04v1.02c.34-1.02.68-2.04,1.02-3.06h-2.04ZM134.76,634.99c.34-1.02.68-2.04,1.02-3.06-2.37-.17-1.8,2.01-1.02,3.06M133.74,611.51c.34.68.68,1.36,1.02,2.04v1.02c.34-1.02.68-2.04,1.02-3.06h-2.04ZM133.74,591.09c.34.68.68,1.36,1.02,2.04v1.02c.34-1.02.68-2.04,1.02-3.06h-2.04ZM133.74,570.67c.34.68.68,1.36,1.02,2.04v1.02c.34-1.02.68-2.04,1.02-3.06h-2.04ZM133.74,550.25l1.02,2.04v1.02c.34-1.02.68-2.04,1.02-3.06h-2.04ZM133.74,529.84c.34.68.68,1.36,1.02,2.04v1.02c.34-1.02.68-2.04,1.02-3.06h-2.04ZM133.74,509.42v2.04h2.04v-2.04h-2.04ZM133.74,489v2.04h2.04v-2.04h-2.04ZM133.74,469.61v1.02c.68-.34,1.36-.68,2.04-1.02h-2.04ZM133.74,448.17v2.04h2.04v-2.04h-2.04ZM133.74,428.77v1.02c.68-.34,1.36-.68,2.04-1.02h-2.04ZM133.74,408.35v1.02c.68-.34,1.36-.68,2.04-1.02h-2.04ZM133.74,326.68v1.02c.68-.34,1.36-.68,2.04-1.02h-2.04ZM135.78,307.28v-2.04c-.94,1.81-1.37.53,0,2.04M133.74,224.59v1.02l2.04-1.02h-2.04ZM133.74,102.09v1.02c.68-.34,1.36-.68,2.04-1.02h-2.04ZM135.78,41.85v-2.04c-.94,1.81-1.38.53,0,2.04M133.74,876.94v3.06c2.28-1.02,1.62-.55,3.06-2.04-1.02-.34-2.04-.68-3.06-1.02M133.74,856.52c1.77,2.7.3,2.69,3.06,1.02-1.02-.34-2.04-.68-3.06-1.02M143.95,807.52h1.02v-2.04c-.34.68-.68,1.36-1.02,2.04M145.99,1012.71v-2.04l-2.04,1.02h1.02l1.02,1.02M143.95,907.57c.34.68.68,1.36,1.02,2.04v1.02c.34-1.02.68-2.04,1.02-3.06h-2.04ZM143.95,866.73v2.04h2.04v-2.04h-2.04ZM143.95,847.34v1.02l2.04-1.02h-2.04ZM143.95,825.9c.34.68.68,1.36,1.02,2.04v1.02c.34-1.02.68-2.04,1.02-3.06h-2.04ZM143.95,785.06c.34.68.68,1.36,1.02,2.04v1.02c.34-1.02.68-2.04,1.02-3.06h-2.04ZM143.95,723.81c.34.68.68,1.36,1.02,2.04v1.02c.34-1.02.68-2.04,1.02-3.06h-2.04ZM143.95,703.39c.34.68.68,1.36,1.02,2.04v1.02c.34-1.02.68-2.04,1.02-3.06h-2.04ZM143.95,682.97c.34.68.68,1.36,1.02,2.04v1.02c.34-1.02.68-2.04,1.02-3.06h-2.04ZM143.95,662.56v3.06c2.34-1.77.9.22,2.04-3.06h-2.04ZM145.99,644.18v-2.04c-.94,1.81-1.38.53,0,2.04M145.99,623.76v-2.04c-.94,1.81-1.37.53,0,2.04M143.95,602.32v1.02c.68-.34,1.36-.68,2.04-1.02h-2.04ZM143.95,580.88c.34.68.68,1.36,1.02,2.04v1.02c.34-1.02.68-2.04,1.02-3.06h-2.04ZM143.95,540.05v2.04h2.04v-2.04h-2.04ZM144.97,521.67h1.02v-2.04c-.34.68-.68,1.36-1.02,2.04M143.95,500.24v1.02c.68-.34,1.36-.68,2.04-1.02h-2.04ZM143.95,478.8v2.04h2.04v-2.04h-2.04ZM143.95,440h1.02c.34.34.68.68,1.02,1.02v-2.04l-2.04,1.02M144.97,400.19c.34-1.02.68-2.04,1.02-3.06-2.37-.16-1.8,2.01-1.02,3.06M143.95,378.75h1.02l1.02,1.02v-2.04l-2.04,1.02M143.95,357.32v1.02c.68-.34,1.36-.68,2.04-1.02h-2.04ZM143.95,316.48v1.02c.68-.34,1.36-.68,2.04-1.02h-2.04ZM143.95,275.65v1.02c.68-.34,1.36-.68,2.04-1.02h-2.04ZM143.95,255.23v1.02l2.04-1.02h-2.04ZM143.95,153.14v1.02l2.04-1.02h-2.04ZM143.95,927.98v3.06c2.28-1.02,1.62-.55,3.07-2.04-1.02-.34-2.04-.68-3.07-1.02M143.95,764.64c1.77,2.7.3,2.69,3.07,1.02-1.02-.34-2.04-.68-3.07-1.02M143.95,560.47v3.06h2.04c.34-1.02.68-2.04,1.02-3.06h-3.07ZM154.16,1000.46v1.02c.68-.34,1.36-.68,2.04-1.02h-2.04ZM154.16,958.61v2.04h2.04v-2.04h-2.04ZM154.16,939.21c-.34.34-.68.68-1.02,1.02l1.02,1.02c2.34-1.77.9.22,2.04-3.06-.68.34-1.36.68-2.04,1.02M154.16,897.35v2.04h2.04v-2.04h-2.04ZM154.16,856.52c.34.68.68,1.36,1.02,2.04v1.02c.34-1.02.68-2.04,1.02-3.06h-2.04ZM154.16,815.68c.34.68.68,1.36,1.02,2.04v1.02c.34-1.02.68-2.04,1.02-3.06h-2.04ZM154.16,795.27c.34.68.68,1.36,1.02,2.04v1.02c.34-1.02.68-2.04,1.02-3.06h-2.04ZM154.16,774.85c.34.68.68,1.36,1.02,2.04v1.02c.34-1.02.68-2.04,1.02-3.06h-2.04ZM154.16,754.43v2.05h2.04v-2.04h-2.04ZM154.16,734.01c.34.68.68,1.36,1.02,2.04v1.02c.34-1.02.68-2.04,1.02-3.06h-2.04ZM154.16,713.6v3.06c2.34-1.77.9.22,2.04-3.06h-2.04ZM154.16,694.2v1.02l2.04-1.02h-2.04ZM155.18,675.82c.34-1.02.68-2.04,1.02-3.06-2.37-.17-1.8,2.01-1.02,3.06M154.16,652.34v2.04h2.04v-2.04h-2.04ZM154.16,631.92v2.04h2.04v-2.04h-2.04ZM156.2,613.55v-2.04c-.94,1.81-1.37.53,0,2.04M154.16,591.09c.34.68.68,1.36,1.02,2.04v1.02c.34-1.02.68-2.04,1.02-3.06h-2.04ZM154.16,570.67c.34.68.68,1.36,1.02,2.04v1.02c.34-1.02.68-2.04,1.02-3.06h-2.04ZM154.16,529.84v2.04h2.04v-2.04h-2.04ZM156.2,511.46v-2.04c-.94,1.81-1.37.53,0,2.04M154.16,490.02v1.02c.68-.34,1.36-.68,2.04-1.02h-2.04ZM154.16,469.61v1.02c.68-.34,1.36-.68,2.04-1.02h-2.04ZM154.16,449.19v1.02c.68-.34,1.36-.68,2.04-1.02h-2.04ZM154.16,408.35v1.02l2.04-1.02h-2.04ZM154.16,386.91v2.04h2.04v-2.04h-2.04ZM154.16,367.51v1.02l2.04-1.02h-2.04ZM154.16,326.68v1.02c.68-.34,1.36-.68,2.04-1.02h-2.04ZM154.16,285.84v1.03c.68-.34,1.36-.68,2.04-1.02h-2.04ZM154.16,245.01v1.02c.68-.34,1.36-.68,2.04-1.02h-2.04ZM154.16,183.76v1.02c.68-.34,1.36-.68,2.04-1.02h-2.04ZM154.16,0v1.02c.68-.34,1.36-.68,2.04-1.02h-2.04ZM154.16,876.93v3.06c2.28-1.02,1.62-.55,3.07-2.04-1.02-.34-2.04-.68-3.07-1.02M154.16,550.25v2.04c2.28-1.01,1.62-.55,3.07-2.04h-3.07ZM165.39,1012.7c.34-1.02.68-2.04,1.02-3.06h-2.04l1.02,2.04v1.02M164.36,948.39c.34.68.68,1.36,1.02,2.04v1.02c.34-1.02.68-2.04,1.02-3.06h-2.04ZM164.36,846.3v3.08c2.34-1.77.9.22,2.04-3.06h-2.04ZM164.36,825.88l1.02,2.04v1.02c.34-1.02.68-2.04,1.02-3.06h-2.04ZM164.36,805.47l1.02,2.04v1.02c.34-1.02.68-2.04,1.02-3.06h-2.04ZM164.36,785.05v3.06c2.34-1.77.9.22,2.04-3.06h-2.04ZM164.36,723.8v2.04h2.04v-2.04h-2.04ZM164.36,703.38c.34.68.68,1.36,1.02,2.04v1.02c.34-1.02.68-2.04,1.02-3.06h-2.04ZM164.36,682.96c.34.68.68,1.36,1.02,2.04v1.02c.34-1.02.68-2.04,1.02-3.06h-2.04ZM164.36,662.54v2.04h2.04v-2.04h-2.04ZM164.36,643.14v1.02c.68-.34,1.36-.68,2.04-1.02h-2.04ZM165.39,624.77c.34-1.02.68-2.04,1.02-3.06-2.37-.17-1.8,2.02-1.02,3.06M166.41,582.91v-2.04c-.94,1.81-1.37.53,0,2.04M164.36,560.45v3.06c2.34-1.77.9.22,2.04-3.06h-2.04ZM164.36,540.03v2.04h2.04v-2.04h-2.04ZM164.36,519.62v2.06h2.04v-2.04l-2.04-.02ZM166.41,501.24v-2.04c-.94,1.81-1.37.53,0,2.04M166.41,480.82v-2.03c-.94,1.81-1.37.53,0,2.04M164.36,459.4v1.02c.68-.34,1.36-.68,2.04-1.02h-2.04ZM164.36,418.57v1.02c.68-.34,1.36-.68,2.04-1.02h-2.04ZM166.41,399.17v-2.04c-.94,1.81-1.37.53,0,2.04M164.36,377.73v1.02c.68-.34,1.36-.68,2.04-1.02h-2.04ZM164.36,316.48v1.02c.68-.34,1.36-.68,2.04-1.02h-2.04ZM164.36,275.65v1.02c.68-.34,1.36-.68,2.04-1.02h-2.04ZM166.41,195v-2.04c-.94,1.81-1.37.53,0,2.04M164.36,989.23v3.06h2.04c.34-1.02.68-2.04,1.02-3.06h-3.06ZM164.36,866.73v3.06h2.04c.34-1.02.68-2.04,1.02-3.06h-3.06ZM174.57,940.23h1.02l1.02,1.02v-2.04l-2.04,1.02M174.57,857.54c-.34.34-.68.68-1.02,1.02.68.34,1.36.68,2.04,1.02.34-1.02.68-2.04,1.02-3.06l-2.04,1.02M174.57,836.1v2.04h2.04v-2.04h-2.04ZM176.62,817.72v-2.04c-.94,1.81-1.37.53,0,2.04M174.57,795.26c.34.68.68,1.36,1.02,2.04v1.02c.34-1.02.68-2.04,1.02-3.06h-2.04ZM176.62,776.89v-2.04c-.94,1.81-1.37.53,0,2.04M175.6,737.07c.34-1.02.68-2.04,1.02-3.06-2.37-.17-1.8,2.02-1.02,3.06M176.62,715.64v-2.04c-.94,1.81-1.37.53,0,2.04M176.62,695.22v-2.04c-.94,1.81-1.37.53,0,2.04M174.57,672.76v2.04h2.04v-2.04h-2.04ZM174.57,652.34v2.04h2.04v-2.04h-2.04ZM174.57,631.93v2.04h2.04v-2.04h-2.04ZM176.62,613.55v-2.04c-.94,1.81-1.37.53,0,2.04M176.62,593.13v-2.04c-.94,1.81-1.37.53,0,2.04M174.57,550.26c.34.68.68,1.36,1.02,2.04v1.02c.34-1.02.68-2.04,1.02-3.06h-2.04ZM176.62,531.88v-2.04c-.94,1.81-1.37.53,0,2.04M176.62,491.05v-2.04c-.94,1.81-1.37.53,0,2.04M174.57,469.61v1.02c.68-.34,1.36-.68,2.04-1.02h-2.04ZM174.57,449.19v1.02c.68-.34,1.36-.68,2.04-1.02h-2.04ZM174.57,428.77v1.02c.68-.34,1.36-.68,2.04-1.02h-2.04ZM176.62,409.37v-2.04c-.94,1.81-1.37.53,0,2.04M174.57,387.94v1.02c.68-.34,1.36-.68,2.04-1.02h-2.04ZM174.57,306.27v1.02c.68-.34,1.36-.68,2.04-1.02h-2.04ZM174.57,183.77v1.02l2.04-1.02h-2.04ZM174.57,980.04c-.34.34-.68.68-1.02,1.02l1.02,1.02c2.28-1.02,1.62-.55,3.06-2.04h-3.06ZM174.57,570.68v2.04c1.02-.34,2.04-.68,3.07-1.02-1.02-.34-2.04-.68-3.07-1.02M185.81,951.46c.34-1.02.68-2.04,1.02-3.06-2.37-.17-1.8,2.02-1.02,3.06M184.78,909.61c.68-.34,1.36-.68,2.04-1.02-.37-1.75-1.64-.83-2.04,1.02M184.78,866.73v2.04h2.04v-2.04h-2.04ZM186.82,746.27v-2.04c-.94,1.81-1.37.53,0,2.04M184.78,723.81v2.04h2.04v-2.04h-2.04ZM184.78,703.39v2.04h2.04v-2.04h-2.04ZM184.78,682.97v2.04h2.04v-2.04h-2.04ZM185.8,665.62c.34-1.02.68-2.04,1.02-3.06-2.37-.17-1.8,2.02-1.02,3.06M186.82,644.18v-2.04c-.94,1.81-1.37.53,0,2.04M185.8,624.78c.34-1.02.68-2.04,1.02-3.06-2.37-.17-1.8,2.02-1.02,3.06M184.78,603.34h1.02l1.02,1.02v-2.04c-.68.34-1.36.68-2.04,1.02M184.78,581.91v1.02l2.04-1.02h-2.04ZM185.8,563.53c.34-1.02.68-2.04,1.02-3.06-2.37-.17-1.8,2.01-1.02,3.06M184.78,540.05v2.04h2.04v-2.04h-2.04ZM184.78,521.67h1.02c.34.34.68.68,1.02,1.02v-2.04l-2.04,1.02M184.78,479.82v1.02l2.04-1.02h-2.04ZM186.82,460.42v-2.04c-.94,1.81-1.37.53,0,2.04M184.78,418.57v1.02c.68-.34,1.36-.68,2.04-1.02h-2.04ZM186.82,399.17v-2.04c-.94,1.81-1.37.53,0,2.04M186.82,378.75v-2.04c-.94,1.81-1.37.53,0,2.04M184.78,357.32v1.02c.68-.34,1.36-.68,2.04-1.02h-2.04ZM184.78,336.9v1.02l2.04-1.02h-2.04ZM184.78,316.48v1.02c.68-.34,1.36-.68,2.04-1.02h-2.04ZM184.78,296.06v1.02l2.04-1.02h-2.04ZM184.78,274.62v2.04h2.04v-2.04h-2.04ZM184.78,173.56v1.02c.68-.34,1.36-.68,2.04-1.02h-2.04ZM184.78,132.72v1.02c.68-.34,1.36-.68,2.04-1.02h-2.04ZM184.78,10.22v1.02l2.04-1.02h-2.04ZM184.78,1009.66c1.77,2.7.3,2.69,3.07,1.02-1.02-.34-2.04-.68-3.07-1.02M184.78,988.22c1.03,3.53.42,2.38,3.07,2.04l-3.07-2.04M184.78,968.82v3.06h2.04c.34-1.02.68-2.04,1.02-3.06h-3.06ZM184.78,785.06v3.06c2.28-1.02,1.62-.55,3.07-2.04-1.02-.34-2.04-.68-3.07-1.02M194.99,999.45v3.06c2.34-1.77.9.22,2.04-3.06h-2.04ZM194.99,979.03v3.06c2.34-1.77.9.22,2.04-3.06h-2.04ZM194.99,958.61v3.06c2.34-1.77.9.22,2.04-3.06h-2.04ZM194.99,938.19v2.04h2.04v-2.04h-2.04ZM194.99,857.54v1.02c.68-.34,1.36-.68,2.04-1.02h-2.04ZM194.99,815.69c.34.68.68,1.36,1.02,2.04v1.02c.34-1.02.68-2.04,1.02-3.06h-2.04ZM194.99,774.85l1.02,2.04v1.02c.34-1.02.68-2.04,1.02-3.06h-2.04ZM194.99,754.44v2.04h2.04v-2.04h-2.04ZM194.99,734.02l1.02,2.04v1.02c.34-1.02.68-2.04,1.02-3.06h-2.04ZM194.99,713.6v2.04h2.04v-2.04h-2.04ZM194.99,693.18c.34.68.68,1.36,1.02,2.04v1.02c.34-1.02.68-2.04,1.02-3.06h-2.04ZM194.99,672.77c.34.68.68,1.36,1.02,2.04v1.02c.34-1.02.68-2.04,1.02-3.06h-2.04ZM194.99,652.35c.34.68.68,1.36,1.02,2.04v1.02c.34-1.02.68-2.04,1.02-3.06h-2.04ZM194.99,631.93v2.04h2.04v-2.04h-2.04ZM194.99,613.56h1.02l1.02,1.02v-2.04c-.68.34-1.36.68-2.04,1.02M197.03,593.14v-2.04c-.94,1.81-1.37.53,0,2.04M194.99,571.7v1.02c.68-.34,1.36-.68,2.04-1.02h-2.04ZM194.99,530.87v1.02c.68-.34,1.36-.68,2.04-1.02h-2.04ZM194.99,509.43c.34.68.68,1.36,1.02,2.04v1.02c.34-1.02.68-2.04,1.02-3.06h-2.04ZM197.03,491.05v-2.04c-.94,1.81-1.37.53,0,2.04M194.99,408.36v1.02c.68-.34,1.36-.68,2.04-1.02h-2.04ZM197.03,368.55v-2.04c-.94,1.81-1.37.53,0,2.04M194.99,347.11v1.02c.68-.34,1.36-.68,2.04-1.02h-2.04ZM197.03,327.71v-2.04c-.94,1.81-1.37.53,0,2.04M194.99,306.27v1.02c.68-.34,1.36-.68,2.04-1.02h-2.04ZM194.99,245.02v1.02c.68-.34,1.36-.68,2.04-1.02h-2.04ZM194.99,122.51v1.02l2.04-1.02h-2.04ZM194.99,795.27v3.06c2.28-1.01,1.62-.55,3.06-2.04-1.02-.34-2.04-.68-3.06-1.02M194.99,553.32c2.28-1.02,1.62-.55,3.06-2.04-2.99.5-1.19-1.13-3.06,2.04M206.22,1012.71c.34-1.02.68-2.04,1.02-3.06h-2.04c.34.68.68,1.36,1.02,2.04v1.02M205.2,948.4c.34.68.68,1.36,1.02,2.04v1.02c.34-1.02.68-2.04,1.02-3.06h-2.04ZM205.2,927.98v2.04h2.04v-2.05h-2.04ZM205.2,909.61h1.02l1.02,1.02v-2.04c-.68.34-1.36.68-2.04,1.02M205.2,887.15c.34.68.68,1.36,1.02,2.04v1.02c.34-1.02.68-2.04,1.02-3.06h-2.04ZM205.2,866.73c.34.68.68,1.36,1.02,2.04v1.02c.34-1.02.68-2.04,1.02-3.06h-2.04ZM205.2,805.48v3.06c2.34-1.77.9.22,2.04-3.06h-2.04ZM205.2,785.06c.34.68.68,1.36,1.02,2.04v1.02c.34-1.02.68-2.04,1.02-3.06h-2.04ZM205.2,764.64v3.06c2.34-1.77.9.22,2.04-3.06h-2.04ZM205.2,744.23c.34.68.68,1.36,1.02,2.04v1.02c.34-1.02.68-2.04,1.02-3.06h-2.04ZM205.2,682.97v3.06c2.34-1.77.9.22,2.04-3.06h-2.04ZM205.2,662.56v3.06c2.34-1.77.9.22,2.04-3.06h-2.04ZM206.22,645.2c.34-1.02.68-2.04,1.02-3.06-2.37-.17-1.8,2.01-1.02,3.06M205.2,621.72v3.06c2.34-1.77.9.22,2.04-3.06h-2.04ZM205.2,601.3c.34.68.68,1.36,1.02,2.04v1.02c.34-1.02.68-2.04,1.02-3.06h-2.04ZM205.2,560.47c.34.68.68,1.36,1.02,2.04v1.02c.34-1.02.68-2.04,1.02-3.06h-2.04ZM205.2,540.05c.34.68.68,1.36,1.02,2.04v1.02c.34-1.02.68-2.04,1.02-3.06h-2.04ZM205.2,520.66v1.02c.68-.34,1.36-.68,2.04-1.02h-2.04ZM207.24,501.26v-2.04c-.94,1.81-1.37.53,0,2.04M205.2,479.82v1.02l2.04-1.02h-2.04ZM207.24,460.42v-2.04c-.94,1.81-1.37.53,0,2.04M205.2,438.98v1.02l2.04-1.02h-2.04ZM205.2,418.57v1.02c.68-.34,1.36-.68,2.04-1.02h-2.04ZM205.2,398.15v1.02c.68-.34,1.36-.68,2.04-1.02h-2.04ZM205.2,336.9v1.02c.68-.34,1.36-.68,2.04-1.02h-2.04ZM205.2,316.48v1.02c.68-.34,1.36-.68,2.04-1.02h-2.04ZM205.2,153.14v1.02l2.04-1.02h-2.04ZM205.2,989.23c.34.68.68,1.36,1.02,2.04l1.02,1.02c.34-1.02.68-2.04,1.02-3.06h-3.06ZM205.2,703.39c1.77,2.7.3,2.69,3.06,1.02-1.02-.34-2.04-.68-3.06-1.02M215.41,999.44c.34.68.68,1.36,1.02,2.04v1.02c.34-1.02.68-2.04,1.02-3.06h-2.04ZM215.41,979.02c.34.68.68,1.36,1.02,2.04v1.02c.34-1.02.68-2.04,1.02-3.06h-2.04ZM215.41,958.61v3.06c2.34-1.77.9.22,2.04-3.06h-2.04ZM215.41,897.35v2.04h2.04v-2.04h-2.04ZM216.43,818.75c.34-1.02.68-2.04,1.02-3.06-2.37-.17-1.8,2.01-1.02,3.06M215.41,714.62v1.02c.68-.34,1.36-.68,2.04-1.02h-2.04ZM215.41,672.76c.34.68.68,1.36,1.02,2.04v1.02c.34-1.02.68-2.04,1.02-3.06h-2.04ZM215.41,653.37v1.02c.68-.34,1.36-.68,2.04-1.02h-2.04ZM216.43,634.99c.34-1.02.68-2.04,1.02-3.06-2.37-.17-1.8,2.01-1.02,3.06M217.45,613.55v-2.04c-.94,1.81-1.37.53,0,2.04M217.45,593.13v-2.04c-.94,1.81-1.37.53,0,2.04M215.4,571.7v1.02c.68-.34,1.36-.68,2.04-1.02h-2.04ZM215.4,550.26c.34.68.68,1.36,1.02,2.04v1.02c.34-1.02.68-2.04,1.02-3.06h-2.04ZM215.4,530.86v1.02c.68-.34,1.36-.68,2.04-1.02h-2.04ZM217.45,511.46v-2.04c-.94,1.81-1.37.53,0,2.04M215.4,489v2.04h2.04v-2.04h-2.04ZM217.45,470.63v-2.04c-.94,1.81-1.37.53,0,2.04M215.4,449.19v1.02l2.04-1.02h-2.04ZM217.45,429.79v-2.04c-.94,1.81-1.37.53,0,2.04M215.4,408.35v1.02l2.04-1.02h-2.04ZM215.4,347.1v1.02c.68-.34,1.36-.68,2.04-1.02h-2.04ZM215.4,326.68v1.02c.68-.34,1.36-.68,2.04-1.02h-2.04ZM215.4,102.09v1.02c.68-.34,1.36-.68,2.04-1.02h-2.04ZM215.4,40.84v1.02l2.04-1.02h-2.04ZM215.4,694.2c-.34.34-.68.68-1.02,1.02l3.06,1.02c.34-1.02.68-2.04,1.02-3.06-1.02.34-2.04.68-3.07,1.02M225.62,989.23c.34.68.68,1.36,1.02,2.04v1.02c.34-1.02.68-2.04,1.02-3.06h-2.04ZM225.62,949.42v1.02c.68-.34,1.36-.68,2.04-1.02h-2.04ZM227.66,889.19v-2.04c-.94,1.81-1.37.53,0,2.04M225.62,825.89c.34.68.68,1.36,1.02,2.04v1.02c.34-1.02.68-2.04,1.02-3.06h-2.04ZM225.62,805.48c.34.68.68,1.36,1.02,2.04v1.02c.34-1.02.68-2.04,1.02-3.06h-2.04ZM225.62,785.06c.34.68.68,1.36,1.02,2.04v1.02c.34-1.02.68-2.04,1.02-3.06h-2.04ZM225.62,764.64v2.04h2.04v-2.04h-2.04ZM225.62,723.81v2.04h2.04v-2.04h-2.04ZM225.62,703.39v3.06c2.34-1.77.9.22,2.04-3.06h-2.04ZM225.62,682.97v3.06c2.34-1.77.9.22,2.04-3.06h-2.04ZM225.62,662.56c.34.68.68,1.36,1.02,2.04v1.02c.34-1.02.68-2.04,1.02-3.06h-2.04ZM225.62,642.14c.34.68.68,1.36,1.02,2.04v1.02c.34-1.02.68-2.04,1.02-3.06h-2.04ZM226.64,624.78c.34-1.02.68-2.04,1.02-3.06-2.37-.17-1.8,2.02-1.02,3.06M227.66,603.35v-2.04c-.94,1.81-1.37.53,0,2.04M225.62,581.91v1.02l2.04-1.02h-2.04ZM225.62,560.47v3.06c2.34-1.77.9.22,2.04-3.06h-2.04ZM225.62,540.05v2.04h2.04v-2.04h-2.04ZM225.62,519.63v2.04h2.04v-2.04h-2.04ZM225.62,499.22c.34.68.68,1.36,1.02,2.04v1.02c.34-1.02.68-2.04,1.02-3.06h-2.04ZM225.62,479.82v1.02l2.04-1.02h-2.04ZM225.62,458.38c.34.68.68,1.36,1.02,2.04v1.02c.34-1.02.68-2.04,1.02-3.06h-2.04ZM225.62,438.98v1.02l2.04-1.02h-2.04ZM225.62,418.56v1.02c.68-.34,1.36-.68,2.04-1.02h-2.04ZM225.62,357.31v1.02c.68-.34,1.36-.68,2.04-1.02h-2.04ZM225.62,336.89v1.02l2.04-1.02h-2.04ZM225.62,315.45v2.04h2.04v-2.04h-2.04ZM225.62,275.64v1.02c.68-.34,1.36-.68,2.04-1.02h-2.04ZM225.62,1009.64v2.04c3.25-1.18,1.29.34,3.07-2.04h-3.07ZM225.62,970.84c.5,2.83,3.07-1.02,3.07-1.02-.81-2.14-3.71.35-3.07,1.02M235.82,999.44c.34.68.68,1.36,1.02,2.04v1.02c.34-1.02.68-2.04,1.02-3.06h-2.04ZM235.82,897.35l1.02,2.04v1.02c.34-1.02.68-2.04,1.02-3.06h-2.04ZM235.82,737.08c2.34-1.77.9.22,2.04-3.06-1.48,1.45-1.05.75-2.04,3.06M235.82,713.6c.34.68.68,1.36,1.02,2.04v1.02c.34-1.02.68-2.04,1.02-3.06h-2.04ZM235.82,693.18c.34.68.68,1.36,1.02,2.04v1.02c.34-1.02.68-2.04,1.02-3.06h-2.04ZM235.82,673.78v1.02c.68-.34,1.36-.68,2.04-1.02h-2.04ZM235.82,652.34v2.04h2.04v-2.04h-2.04ZM235.82,631.92c.34.68.68,1.36,1.02,2.04v1.02c.34-1.02.68-2.04,1.02-3.06h-2.04ZM235.82,612.53v1.02c.68-.34,1.36-.68,2.04-1.02h-2.04ZM235.82,591.09c.34.68.68,1.36,1.02,2.04v1.02c.34-1.02.68-2.04,1.02-3.06h-2.04ZM235.82,529.84v2.04h2.04v-2.04h-2.04ZM235.82,509.42v2.04h2.04v-2.04h-2.04ZM235.82,490.02v1.02c.68-.34,1.36-.68,2.04-1.02h-2.04ZM235.82,428.77v1.02c.68-.34,1.36-.68,2.04-1.02h-2.04ZM235.82,409.37h1.02l1.02,1.02v-2.04c-.68.34-1.36.68-2.04,1.02M235.82,387.94v1.02c.68-.34,1.36-.68,2.04-1.02h-2.04ZM237.86,368.54v-2.04c-.94,1.81-1.37.53,0,2.04M235.82,347.11v1.02c.68-.34,1.36-.68,2.04-1.02h-2.04ZM235.82,306.27v1.02c.68-.34,1.36-.68,2.04-1.02h-2.04ZM235.82,224.6v1.02l2.04-1.02h-2.04ZM235.82,836.1v3.06c2.28-1.02,1.62-.55,3.06-2.04-1.02-.34-2.04-.68-3.06-1.02M235.82,774.85c1.77,2.7.3,2.69,3.06,1.02-1.02-.34-2.04-.68-3.06-1.02M246.03,1012.71c2.34-1.77.9.22,2.04-3.06h-2.04v3.06M246.03,989.23v2.04h2.04v-2.04h-2.04ZM246.03,969.83c-.34.34-.68.68-1.02,1.02l2.04,1.02c.34-1.02.68-2.04,1.02-3.06l-2.04,1.02M247.05,828.95c.34-1.02.68-2.04,1.02-3.06-2.37-.16-1.8,2.02-1.02,3.06M246.03,764.64v2.04h2.04v-2.04h-2.04ZM246.03,723.8v3.06c2.34-1.77.9.22,2.04-3.06h-2.04ZM248.07,705.43v-2.04c-.94,1.81-1.37.53,0,2.04M246.03,662.55v2.04h2.04v-2.04h-2.04ZM246.03,642.13c.34.68.68,1.36,1.02,2.04v1.02c.34-1.02.68-2.04,1.02-3.06h-2.04ZM246.03,621.72v2.04h2.04v-2.04h-2.04ZM247.05,604.36c.34-1.02.68-2.04,1.02-3.06-2.37-.17-1.8,2.01-1.02,3.06M246.03,541.08v1.02c.68-.34,1.36-.68,2.04-1.02h-2.04ZM246.03,519.64v2.04h2.04v-2.04h-2.04ZM246.03,499.22c.34.68.68,1.36,1.02,2.04v1.02c.34-1.02.68-2.04,1.02-3.06h-2.04ZM246.03,479.82v1.02l2.04-1.02h-2.04ZM246.03,458.38v2.04h2.04v-2.04h-2.04ZM246.03,418.57v1.02c.68-.34,1.36-.68,2.04-1.02h-2.04ZM246.03,377.73v1.02c.68-.34,1.36-.68,2.04-1.02h-2.04ZM246.03,296.06v1.02l2.04-1.02h-2.04ZM246.03,275.65v1.02c.68-.34,1.36-.68,2.04-1.02h-2.04ZM246.03,51.05v1.02c.68-.34,1.36-.68,2.04-1.02h-2.04ZM246.03,682.97c1.77,2.7.3,2.69,3.07,1.02-1.02-.34-2.04-.68-3.07-1.02M256.24,999.44c.34.68.68,1.36,1.02,2.04v1.02c.34-1.02.68-2.04,1.02-3.06h-2.04ZM256.24,876.94c.34.68.68,1.36,1.02,2.04v1.02c.34-1.02.68-2.04,1.02-3.06h-2.04ZM256.24,836.1v2.04h2.04v-2.04h-2.04ZM256.24,795.27c.34.68.68,1.36,1.02,2.04v1.02c.34-1.02.68-2.04,1.02-3.06h-2.04ZM258.28,776.89v-2.04c-.94,1.81-1.37.53,0,2.04M256.24,754.43c.34.68.68,1.36,1.02,2.04v1.02c.34-1.02.68-2.04,1.02-3.06h-2.04ZM256.24,734.02c.34.68.68,1.36,1.02,2.04v1.02c.34-1.02.68-2.04,1.02-3.06h-2.04ZM256.24,713.6v3.06c2.34-1.77.9.22,2.04-3.06h-2.04ZM256.24,693.18v2.04h2.04v-2.04h-2.04ZM256.24,672.76c.34.68.68,1.36,1.02,2.04v1.02c.34-1.02.68-2.04,1.02-3.06h-2.04ZM257.26,655.41c.34-1.02.68-2.04,1.02-3.06-2.37-.17-1.8,2.02-1.02,3.06M256.24,631.93v2.04h2.04v-2.04h-2.04ZM256.24,612.53v1.02c.68-.34,1.36-.68,2.04-1.02h-2.04ZM256.24,591.09v3.06c2.34-1.77.9.22,2.04-3.06h-2.04ZM258.28,572.72v-2.04c-.94,1.81-1.37.53,0,2.04M256.24,551.28v1.02l2.04-1.02h-2.04ZM256.24,529.84v2.04h2.04v-2.04h-2.04ZM256.24,510.44v1.02l2.04-1.02h-2.04ZM256.24,490.03v1.02c.68-.34,1.36-.68,2.04-1.02h-2.04ZM256.24,468.59v2.04h2.04v-2.04h-2.04ZM256.24,449.19v1.02c.68-.34,1.36-.68,2.04-1.02h-2.04ZM256.24,428.77v1.02c.68-.34,1.36-.68,2.04-1.02h-2.04ZM256.24,223.57v2.04h2.04v-2.03h-2.04ZM266.45,990.26v1.02c.68-.34,1.36-.68,2.04-1.02h-2.04ZM266.45,969.84c-.34.34-.68.68-1.02,1.02l1.02,1.02c2.34-1.77.9.22,2.04-3.06-.68.34-1.36.68-2.04,1.02M266.45,907.56c.34.68.68,1.36,1.02,2.04v1.02c.34-1.02.68-2.04,1.02-3.06h-2.04ZM266.45,867.75c-.34.34-.68.68-1.02,1.02.34.34.68.68,1.02,1.02,2.34-1.77.9.22,2.04-3.06-.68.34-1.36.68-2.04,1.02M266.45,847.33v1.02c.68-.34,1.36-.68,2.04-1.02h-2.04ZM266.45,805.48v2.04h2.04v-2.04h-2.04ZM266.45,785.06v2.04h2.04v-2.04h-2.04ZM266.45,764.64c.34.68.68,1.36,1.02,2.04v1.02c.34-1.02.68-2.04,1.02-3.06h-2.04ZM266.45,723.81c.34.68.68,1.36,1.02,2.04v1.02c.34-1.02.68-2.04,1.02-3.06h-2.04ZM266.45,703.39v3.06c2.34-1.77.9.22,2.04-3.06h-2.04ZM268.49,685.02v-2.04c-.94,1.81-1.37.53,0,2.04M267.47,665.62c.34-1.02.68-2.04,1.02-3.06-2.37-.17-1.8,2.02-1.02,3.06M266.45,642.14v2.04h2.04v-2.04h-2.04ZM268.49,623.76v-2.04c-.94,1.81-1.37.53,0,2.04M266.45,601.3v2.04h2.04v-2.04h-2.04ZM268.49,582.93v-2.04c-.94,1.81-1.37.53,0,2.04M266.45,541.08v1.02c.68-.34,1.36-.68,2.04-1.02h-2.04ZM267.47,522.7c.34-1.02.68-2.04,1.02-3.06-2.37-.17-1.8,2.01-1.02,3.06M266.45,499.22v2.04h2.04v-2.04h-2.04ZM266.45,479.82v1.02l2.04-1.02h-2.04ZM266.45,458.38v2.04h2.04v-2.04h-2.04ZM268.49,440.01v-2.04c-.94,1.81-1.37.53,0,2.04M266.45,417.55l1.02,2.04v1.02c.34-1.02.68-2.04,1.02-3.06h-2.04ZM266.45,398.15v1.02c.68-.34,1.36-.68,2.04-1.02h-2.04ZM266.45,336.89v1.02c.68-.34,1.36-.68,2.04-1.02h-2.04ZM266.45,316.48v1.02c.68-.34,1.36-.68,2.04-1.02h-2.04ZM266.45,1009.65c1.77,2.7.3,2.69,3.06,1.02-1.02-.34-2.04-.68-3.06-1.02M266.45,744.22c1.77,2.7.3,2.69,3.06,1.02-1.02-.34-2.04-.68-3.06-1.02M278.7,981.06v-2.04c-.94,1.81-1.37.53,0,2.04M276.66,958.6c.34.68.68,1.36,1.02,2.04v1.02c.34-1.02.68-2.04,1.02-3.06h-2.04ZM276.66,918.79v1.02c.68-.34,1.36-.68,2.04-1.02h-2.04ZM276.66,898.37v1.02l2.04-1.02h-2.04ZM278.7,858.56v-2.04c-.94,1.81-1.37.53,0,2.04M276.66,838.14h1.02l1.02,1.02v-2.04c-.68.34-1.36.68-2.04,1.02M276.66,795.26v2.04h2.04v-2.04h-2.04ZM277.68,777.91c.34-1.02.68-2.04,1.02-3.06-2.37-.17-1.8,2.01-1.02,3.06M276.66,754.43c.34.68.68,1.36,1.02,2.04v1.02c.34-1.02.68-2.04,1.02-3.06h-2.04ZM276.66,734.01v3.07c2.34-1.77.9.22,2.04-3.06h-2.04ZM276.66,713.59c.34.68.68,1.36,1.02,2.04v1.02c.34-1.02.68-2.04,1.02-3.06h-2.04ZM278.7,695.22v-2.04c-.94,1.81-1.37.53,0,2.04M276.66,672.76v2.04h2.04v-2.04h-2.04ZM276.66,652.34v2.04h2.04v-2.04h-2.04ZM276.66,611.51c.34.68.68,1.36,1.02,2.04v1.03c.34-1.02.68-2.04,1.02-3.06h-2.04ZM276.66,592.11v1.02c.68-.34,1.36-.68,2.04-1.02h-2.04ZM276.66,551.28c-.34.34-.68.68-1.02,1.02.34.34.68.68,1.02,1.02,2.34-1.77.9.22,2.04-3.06-.68.34-1.36.68-2.04,1.02M277.68,532.9c.34-1.02.68-2.04,1.02-3.06-2.37-.17-1.8,2.01-1.02,3.06M276.66,509.42v2.04h2.04v-2.04h-2.04ZM276.66,490.03v1.02c.68-.34,1.36-.68,2.04-1.02h-2.04ZM276.66,469.61v1.02c.68-.34,1.36-.68,2.04-1.02h-2.04ZM276.66,428.77v1.02c.68-.34,1.36-.68,2.04-1.02h-2.04ZM278.7,409.37v-2.04c-.94,1.81-1.37.53,0,2.04M276.66,387.94v1.02c.68-.34,1.36-.68,2.04-1.02h-2.04ZM276.66,366.5v2.04h2.04v-2.04h-2.04ZM276.66,326.68v1.02c.68-.34,1.36-.68,2.04-1.02h-2.04ZM276.66,265.43v1.02l2.04-1.02h-2.04ZM276.66,163.35v1.02l2.04-1.02h-2.04ZM276.66,938.18v3.06c2.28-1.01,1.62-.55,3.06-2.04-1.02-.34-2.04-.68-3.06-1.02M286.87,968.81v3.07c2.34-1.77.9.22,2.04-3.06h-2.04ZM286.87,948.39c.34.68.68,1.36,1.02,2.04v1.02c.34-1.02.68-2.04,1.02-3.06h-2.04ZM286.87,927.98c.34.68.68,1.36,1.02,2.04v1.02c.34-1.02.68-2.04,1.02-3.06h-2.04ZM288.91,909.6v-2.04c-.94,1.81-1.37.53,0,2.04M286.87,888.16v1.02c.68-.34,1.36-.68,2.04-1.02h-2.04ZM286.87,847.33v1.02c.68-.34,1.36-.68,2.04-1.02h-2.04ZM286.87,805.47v3.06c2.34-1.77.9.22,2.04-3.06h-2.04ZM286.87,785.05v2.04h2.04v-2.04h-2.04ZM286.87,703.39v3.06c2.34-1.77.9.22,2.04-3.06h-2.04ZM286.87,682.97c.34.68.68,1.36,1.02,2.04v1.02c.34-1.02.68-2.04,1.02-3.06h-2.04ZM286.87,663.57v1.02c.68-.34,1.36-.68,2.04-1.02h-2.04ZM286.87,642.13v2.05h2.04v-2.04h-2.04ZM286.87,621.72v2.04h2.04v-2.04h-2.04ZM286.87,602.32v1.02c.68-.34,1.36-.68,2.04-1.02h-2.04ZM286.87,581.9v1.02l2.04-1.02h-2.04ZM287.89,563.53c.34-1.02.68-2.04,1.02-3.06-2.37-.17-1.8,2.01-1.02,3.06M286.87,540.05c.34.68.68,1.36,1.02,2.04v1.02c.34-1.02.68-2.04,1.02-3.06h-2.04ZM286.87,519.63c.34.68.68,1.36,1.02,2.04v1.02c.34-1.02.68-2.04,1.02-3.06h-2.04ZM288.91,501.25v-2.04c-.94,1.81-1.37.53,0,2.04M286.87,459.4v1.02c.68-.34,1.36-.68,2.04-1.02h-2.04ZM286.87,438.98v1.02l2.04-1.02h-2.04ZM286.87,418.56v1.02c.68-.34,1.36-.68,2.04-1.02h-2.04ZM286.87,398.15v1.02c.68-.34,1.36-.68,2.04-1.02h-2.04ZM286.87,377.73v1.02c.68-.34,1.36-.68,2.04-1.02h-2.04ZM286.87,316.48v1.02c.68-.34,1.36-.68,2.04-1.02h-2.04ZM286.87,275.64v1.02l2.04-1.02h-2.04ZM286.87,255.22v1.02l2.04-1.02h-2.04ZM286.87,764.64v3.06h2.04c.34-1.02.68-2.04,1.02-3.06h-3.06ZM286.87,744.22v3.06h2.04c.34-1.02.68-2.04,1.02-3.06h-3.06ZM286.87,724.82c-.34.34-.68.68-1.02,1.02l3.06,1.02c.34-1.02.68-2.04,1.02-3.06-1.02.34-2.04.68-3.06,1.02M297.08,979.02c.34.68.68,1.36,1.02,2.04v1.02c.34-1.02.68-2.04,1.02-3.06h-2.04ZM297.08,958.6c.34.68.68,1.36,1.02,2.04v1.02c.34-1.02.68-2.04,1.02-3.06h-2.04ZM296.06,917.77c.34,1.02.68,2.04,1.02,3.06,2.34-1.77.9.22,2.04-3.06h-3.06ZM297.08,897.35v2.04h2.04v-2.04h-2.04ZM297.08,837.12v1.02c.68-.34,1.36-.68,2.04-1.02h-2.04ZM297.08,815.68c.34.68.68,1.36,1.02,2.04v1.02c.34-1.02.68-2.04,1.02-3.06h-2.04ZM297.08,797.31h1.02l1.02,1.02v-2.04l-2.04,1.02M297.08,774.85v3.06c2.34-1.77.9.22,2.04-3.06h-2.04ZM296.06,754.43v2.05l2.04,1.02c.34-1.02.68-2.04,1.02-3.06h-3.06ZM299.12,736.06v-2.04c-.94,1.81-1.37.53,0,2.04M297.08,694.2c-.34.34-.68.68-1.02,1.02l1.02,1.02c2.34-1.77.9.22,2.04-3.06-.68.34-1.36.68-2.04,1.02M297.08,672.76c.34.68.68,1.36,1.02,2.04v1.02c.34-1.02.68-2.04,1.02-3.06h-2.04ZM297.08,652.35c.34.68.68,1.36,1.02,2.04v1.02c.34-1.02.68-2.04,1.02-3.06h-2.04ZM297.08,631.93v2.04h2.04v-2.04h-2.04ZM299.12,613.55v-2.04c-.94,1.81-1.37.53,0,2.04M297.08,591.09c.34.68.68,1.36,1.02,2.04v1.02c.34-1.02.68-2.04,1.02-3.06h-2.04ZM297.08,570.68v3.06c2.34-1.77.9.22,2.04-3.06h-2.04ZM297.08,550.26c.34.68.68,1.36,1.02,2.04v1.02c.34-1.02.68-2.04,1.02-3.06h-2.04ZM297.08,529.84v3.06c2.34-1.77.9.22,2.04-3.06h-2.04ZM297.08,510.45v1.02l2.04-1.02h-2.04ZM297.08,490.03v1.02c.68-.34,1.36-.68,2.04-1.02h-2.04ZM297.08,469.61v1.02c.68-.34,1.36-.68,2.04-1.02h-2.04ZM297.08,449.19v1.02c.68-.34,1.36-.68,2.04-1.02h-2.04ZM298.1,430.82c.34-1.02.68-2.04,1.02-3.06-2.37-.16-1.8,2.01-1.02,3.06M297.08,408.36v1.02l2.04-1.02h-2.04ZM297.08,367.53v1.02l2.04-1.02h-2.04ZM297.08,245.03v1.02c.68-.34,1.36-.68,2.04-1.02h-2.04ZM296.06,712.58v4.08c3.17-.82,2.31-.34,4.08-2.04-1.36-.68-2.72-1.36-4.08-2.04M307.29,969.83v1.02c.68-.34,1.36-.68,2.04-1.02h-2.04ZM307.29,949.42c-.34.34-.68.68-1.02,1.02l1.02,1.02c2.34-1.77.9.22,2.04-3.06-.68.34-1.36.68-2.04,1.02M307.29,927.98v2.04h2.04v-2.04h-2.04ZM307.29,908.58v1.02c.68-.34,1.36-.68,2.04-1.02h-2.04ZM309.33,807.52v-2.04c-.94,1.81-1.37.53,0,2.04M307.29,787.1c.68-.34,1.36-.68,2.04-1.02-.37-1.75-1.64-.83-2.04,1.02M307.29,766.68h1.02l1.02,1.02v-2.04l-2.04,1.02M309.33,644.19v-2.04c-.94,1.81-1.37.53,0,2.04M307.29,621.73v3.05c2.34-1.77.9.22,2.04-3.06h-2.04ZM307.29,603.35h1.02l1.02,1.02v-2.04c-.68.34-1.36.68-2.04,1.02M307.29,580.89v3.06c2.34-1.77.9.22,2.04-3.06h-2.04ZM307.29,560.47v3.06c2.34-1.77.9.22,2.04-3.06h-2.04ZM307.29,540.06v2.04h2.04v-2.04h-2.04ZM307.29,521.68h1.02l1.02,1.02v-2.04c-.68.34-1.36.68-2.04,1.02M307.29,500.24v1.02c.68-.34,1.36-.68,2.04-1.02h-2.04ZM307.29,479.83v1.02c.68-.34,1.36-.68,2.04-1.02h-2.04ZM307.29,438.99v1.02l2.04-1.02h-2.04ZM307.29,418.57v1.02c.68-.34,1.36-.68,2.04-1.02h-2.04ZM307.29,398.16v1.02c.68-.34,1.36-.68,2.04-1.02h-2.04ZM307.29,255.23v1.01l2.04-1.02h-2.04ZM307.29,745.25c-.34.34-.68.68-1.02,1.02l3.06,1.02c.34-1.02.68-2.04,1.02-3.06-1.02.34-2.04.68-3.06,1.02M306.27,723.81c.34.68.68,1.36,1.02,2.04.68.34,1.36.68,2.04,1.02.34-1.02.68-2.04,1.02-3.06h-4.08ZM307.29,704.42c-.34.34-.68.68-1.02,1.02l3.06,1.02c.34-1.02.68-2.04,1.02-3.06-1.02.34-2.04.68-3.06,1.02M307.29,681.96v1.02c-.34.68-.68,1.36-1.02,2.04h1.02l2.04,1.02c.34-1.02.68-2.04,1.02-3.06l-3.06-1.02M307.28,663.58c-.34.34-.68.68-1.02,1.02l1.02,1.02c3.85-1.12,2.42.12,4.08-3.06-1.36.34-2.72.68-4.08,1.02M317.49,999.45c.34.68.68,1.36,1.02,2.04v1.02c.34-1.02.68-2.04,1.02-3.06h-2.04ZM317.49,979.03v2.04h2.04v-2.04h-2.04ZM319.54,960.65v-2.05c-.94,1.81-1.37.53,0,2.04M319.54,919.82v-2.04c-.94,1.81-1.37.53,0,2.04M318.52,900.41c.34-1.02.68-2.04,1.02-3.06-2.37-.16-1.8,2.02-1.02,3.06M317.49,876.94v2.04h2.04v-2.04h-2.04ZM317.49,815.68v2.04h2.04v-2.04h-2.04ZM317.49,774.85v2.04h2.04v-2.04h-2.04ZM317.49,754.43c.34.68.68,1.36,1.02,2.04v1.02c.34-1.02.68-2.04,1.02-3.06h-2.04ZM317.49,734.01c.34.68.68,1.36,1.02,2.04v1.02c.34-1.02.68-2.04,1.02-3.06h-2.04ZM317.49,713.6c.34.68.68,1.36,1.02,2.04v1.02c.34-1.02.68-2.04,1.02-3.06h-2.04ZM316.47,672.76c.34,1.02.68,2.04,1.02,3.06,2.34-1.77.9.22,2.04-3.06h-3.06ZM318.52,655.41c.34-1.02.68-2.04,1.02-3.06-2.37-.17-1.8,2.02-1.02,3.06M317.5,632.95v1.02c.68-.34,1.36-.68,2.04-1.02h-2.04ZM318.52,614.58c.34-1.02.68-2.04,1.02-3.06-2.37-.17-1.8,2.02-1.02,3.06M317.5,572.72c.68-.34,1.36-.68,2.04-1.02-.37-1.75-1.64-.83-2.04,1.02M317.5,550.26c.34.68.68,1.36,1.02,2.04v1.02c.34-1.02.68-2.04,1.02-3.06h-2.04ZM317.5,510.45v1.02l2.04-1.02h-2.04ZM317.5,490.03v1.02c.68-.34,1.36-.68,2.04-1.02h-2.04ZM317.5,469.62v1.02c.68-.34,1.36-.68,2.04-1.02h-2.04ZM319.54,409.38v-2.04c-.94,1.81-1.37.53,0,2.04M319.54,327.72v-2.04c-.94,1.81-1.38.53,0,2.04M317.5,245.03v1.02l2.04-1.02h-2.04ZM319.54,225.63v-2.05c-.94,1.81-1.38.53,0,2.04M317.49,204.19v1.02c.68-.34,1.36-.68,2.04-1.02h-2.04ZM317.49,183.77v1.02l2.04-1.02h-2.04ZM318.65,696.84c.99-.14,1.97-.34,2.93-.6-.34-1.36-1.02-4.08-1.02-4.08l-1.91,2.17v2.51ZM327.7,968.82v2.04h2.04v-2.04h-2.04ZM328.73,951.46c.34-1.02.68-2.04,1.02-3.06-2.37-.17-1.8,2.02-1.02,3.06M327.7,907.56v2.04h2.04v-2.04h-2.04ZM327.7,866.73c.34.68.68,1.36,1.02,2.04v1.02c.34-1.02.68-2.04,1.02-3.06h-2.04ZM327.7,765.66v1.02c.68-.34,1.36-.68,2.04-1.02h-2.04ZM327.7,703.39v2.04h2.04v-2.04h-2.04ZM327.7,662.55v2.04h2.04v-2.04h-2.04ZM327.7,642.13v2.04h2.04v-2.04h-2.04ZM328.72,624.78c.34-1.02.68-2.04,1.02-3.06-2.37-.17-1.8,2.02-1.02,3.06M329.74,603.34v-2.04c-.94,1.81-1.37.53,0,2.04M327.7,560.46v2.04h2.04v-2.04h-2.04ZM329.74,521.67v-2.04c-.94,1.81-1.37.53,0,2.04M327.7,499.21v2.04h2.04v-2.04h-2.04ZM327.7,438.98v1.02l2.04-1.02h-2.04ZM327.7,418.56v1.02c.68-.34,1.36-.68,2.04-1.02h-2.04ZM327.7,377.73v1.02c.68-.34,1.36-.68,2.04-1.02h-2.04ZM327.7,336.89v1.02l2.04-1.02h-2.04ZM327.7,316.48v1.02c.68-.34,1.36-.68,2.04-1.02h-2.04ZM329.74,1012.71c.34-1.02.68-2.04,1.02-3.06-1.02.34-2.04.68-3.06,1.02-.34.34-.68.68-1.02,1.02l3.06,1.02M326.68,927.98c.34.68.68,1.36,1.02,2.04.68.34,1.36.68,2.04,1.02.34-1.02.68-2.04,1.02-3.06h-4.08ZM327.7,744.22v3.06c2.28-1.02,1.62-.55,3.06-2.04-1.02-.34-2.04-.68-3.06-1.02M327.7,723.8v3.06h2.04c.34-1.02.68-2.04,1.02-3.06h-3.06ZM327.61,684.88c-.14,1.06-.11,2.14.09,3.19l2.27-.12,1.03-1.67-1.16-1.8c-.77-.12-1.55.02-2.23.4M337.91,999.44c.34.68.68,1.36,1.02,2.04v1.02c.34-1.02.68-2.04,1.02-3.06h-2.04ZM337.91,979.02c.34.68.68,1.36,1.02,2.04v1.02c.34-1.02.68-2.04,1.02-3.06h-2.04ZM337.91,958.6v3.06c2.34-1.77.9.22,2.04-3.06h-2.04ZM337.91,938.19c.34.68.68,1.36,1.02,2.04v1.02c.34-1.02.68-2.04,1.02-3.06h-2.04ZM339.95,919.81v-2.04c-.94,1.81-1.37.53,0,2.04M337.91,876.93v2.04h2.04v-2.04h-2.04ZM337.91,816.7v1.02c.68-.34,1.36-.68,2.04-1.02h-2.04ZM339.95,776.89v-2.04c-.94,1.81-1.37.53,0,2.04M337.91,755.45v1.02c.68-.34,1.36-.68,2.04-1.02h-2.04ZM337.91,735.03v1.02c.68-.34,1.36-.68,2.04-1.02h-2.04ZM337.91,713.59v3.06c2.34-1.77.9.22,2.04-3.06h-2.04ZM337.91,672.76c.34.68.68,1.36,1.02,2.04v1.02c.34-1.02.68-2.04,1.02-3.06h-2.04ZM337.91,652.34v2.04h2.04v-2.04h-2.04ZM337.91,632.95v1.02c.68-.34,1.36-.68,2.04-1.02h-2.04ZM337.91,612.53v1.02c.68-.34,1.36-.68,2.04-1.02h-2.04ZM337.91,591.09l1.02,2.04v1.02c.34-1.02.68-2.04,1.02-3.06h-2.04ZM337.91,570.67v2.04h2.04v-2.04h-2.04ZM337.91,551.27v1.02l2.04-1.02h-2.04ZM337.91,529.83v2.04h2.04v-2.04h-2.04ZM337.91,510.44v1.02l2.04-1.02h-2.04ZM337.91,489v2.04h2.04v-2.04h-2.04ZM337.91,469.6v1.02c.68-.34,1.36-.68,2.04-1.02h-2.04ZM339.95,450.2v-2.04c-.94,1.81-1.37.53,0,2.04M337.91,408.35v1.02l2.04-1.02h-2.04ZM337.91,387.93v1.02c.68-.34,1.36-.68,2.04-1.02h-2.04ZM337.91,367.51v1.02l2.04-1.02h-2.04ZM337.91,326.68v1.02c.68-.34,1.36-.68,2.04-1.02h-2.04ZM337.91,285.84v1.03c.68-.34,1.36-.68,2.04-1.02h-2.04ZM337.91,245.01v1.02c.68-.34,1.36-.68,2.04-1.02h-2.04ZM337.91,224.59v1.02l2.04-1.02h-2.04ZM337.91,204.17v1.03c.68-.34,1.36-.68,2.04-1.02h-2.04ZM337.91,694.19c-.34.34-.68.68-1.02,1.02l1.02,1.02c2.28-1.02,1.62-.55,3.06-2.04h-3.06ZM348.12,989.23c.34.68.68,1.36,1.02,2.04v1.02c.34-1.02.68-2.04,1.02-3.06h-2.04ZM348.12,969.83v1.02l2.04-1.02h-2.04ZM348.12,948.4v2.04h2.04v-2.04h-2.04ZM348.12,927.98v3.06c2.34-1.77.9.22,2.04-3.06h-2.04ZM348.12,907.56v2.04h2.04v-2.04h-2.04ZM348.12,846.31v2.04h2.04v-2.04h-2.04ZM349.14,788.12c.34-1.02.68-2.04,1.02-3.06-2.37-.16-1.8,2.02-1.02,3.06M348.12,764.64c.34.68.68,1.36,1.02,2.04v1.02c.34-1.02.68-2.04,1.02-3.06h-2.04ZM350.16,746.26v-2.04c-.94,1.81-1.37.53,0,2.04M348.12,724.83v1.02c.68-.34,1.36-.68,2.04-1.02h-2.04ZM348.12,703.39v3.06c2.34-1.77.9.22,2.04-3.06h-2.04ZM348.12,682.97c.34.68.68,1.36,1.02,2.04v1.02c.34-1.02.68-2.04,1.02-3.06h-2.04ZM350.16,664.6v-2.04c-.94,1.81-1.37.53,0,2.04M348.12,644.18h1.02l1.02,1.02v-2.04c-.68.34-1.36.68-2.04,1.02M348.12,621.72c.34.68.68,1.36,1.02,2.04v1.02c.34-1.02.68-2.04,1.02-3.06h-2.04ZM348.12,601.3v2.04h2.04v-2.04h-2.04ZM348.12,580.88v2.04h2.04v-2.04h-2.04ZM348.12,560.47v2.04h2.04v-2.04h-2.04ZM348.12,540.05v3.06c2.34-1.77.9.22,2.04-3.06h-2.04ZM348.12,519.63c.34.68.68,1.36,1.02,2.04v1.02c.34-1.02.68-2.04,1.02-3.06h-2.04ZM348.12,479.82v1.02l2.04-1.02h-2.04ZM348.12,418.57v1.02c.68-.34,1.36-.68,2.04-1.02h-2.04ZM350.16,378.75v-2.04c-.94,1.81-1.37.53,0,2.04M359.35,982.09c.34-1.02.68-2.04,1.02-3.06-2.37-.17-1.8,2.02-1.02,3.06M358.33,938.18c.34.68.68,1.36,1.02,2.04v1.02c.34-1.02.68-2.04,1.02-3.06h-2.04ZM358.33,897.35v3.06c2.34-1.77.9.22,2.04-3.06h-2.04ZM358.33,877.95v1.03c.68-.34,1.36-.68,2.04-1.02h-2.04ZM360.37,858.55v-2.04c-.94,1.81-1.37.53,0,2.04M358.33,836.09c.34.68.68,1.36,1.02,2.04v1.02c.34-1.02.68-2.04,1.02-3.06h-2.04ZM358.33,816.69v1.02c.68-.34,1.36-.68,2.04-1.02h-2.04ZM358.33,795.25v2.04h2.04v-2.03l-2.04-.02ZM360.37,756.46v-2.04c-.94,1.81-1.37.53,0,2.04M359.35,737.06c.34-1.02.68-2.04,1.02-3.06-2.37-.17-1.8,2.02-1.02,3.06M358.33,713.58c.34.68.68,1.36,1.02,2.04v1.02c.34-1.02.68-2.04,1.02-3.06h-2.04ZM359.35,696.23c.34-1.02.68-2.04,1.02-3.06-2.37-.17-1.8,2.02-1.02,3.06M358.33,672.75c.34.68.68,1.36,1.02,2.04v1.02c.34-1.02.68-2.04,1.02-3.06h-2.04ZM358.33,652.33c.34.68.68,1.36,1.02,2.04v1.02c.34-1.02.68-2.04,1.02-3.06h-2.04ZM360.37,633.95v-2.04c-.94,1.81-1.38.53,0,2.04M360.37,613.54v-2.04c-.94,1.81-1.38.53,0,2.04M358.33,591.08c.34.68.68,1.36,1.02,2.04v1.02c.34-1.02.68-2.04,1.02-3.06h-2.04ZM360.37,572.7v-2.02c-.94,1.81-1.37.53,0,2.04M358.33,529.84v2.04h2.04v-2.04h-2.04ZM359.35,512.49c.34-1.02.68-2.04,1.02-3.06-2.37-.17-1.8,2.02-1.02,3.06M358.33,489.01c.34.68.68,1.36,1.02,2.04v1.02c.34-1.02.68-2.04,1.02-3.06h-2.04ZM358.33,469.61v1.02c.68-.34,1.36-.68,2.04-1.02h-2.04ZM358.33,428.78v1.02c.68-.34,1.36-.68,2.04-1.02h-2.04ZM358.33,408.36v1.02l2.04-1.02h-2.04ZM360.37,388.96v-2.04c-.94,1.81-1.37.53,0,2.04M360.37,348.13v-2.04c-.94,1.81-1.37.53,0,2.04M358.33,245.02v1.02c.68-.34,1.36-.68,2.04-1.02h-2.04ZM358.33,550.26v3.06c2.28-1.02,1.62-.55,3.06-2.04l-3.06-1.02M368.54,948.4c.34.68.68,1.36,1.02,2.04v1.02c.34-1.02.68-2.04,1.02-3.06h-2.04ZM368.54,929v1.02c.68-.34,1.36-.68,2.04-1.02h-2.04ZM368.54,888.16v1.02c.68-.34,1.36-.68,2.04-1.02h-2.04ZM370.58,868.76v-2.04c-.94,1.81-1.37.53,0,2.04M368.54,846.3v2.04h2.04v-2.04h-2.04ZM368.54,825.89v2.04h2.04v-2.04h-2.04ZM369.56,808.53c.34-1.02.68-2.04,1.02-3.06-2.37-.17-1.8,2.02-1.02,3.06M368.54,786.08v1.02c.68-.34,1.36-.68,2.04-1.02h-2.04ZM368.54,765.66v1.02c.68-.34,1.36-.68,2.04-1.02h-2.04ZM369.56,747.28c.34-1.02.68-2.04,1.02-3.06-2.37-.17-1.8,2.01-1.02,3.06M368.54,682.97c.34.68.68,1.36,1.02,2.04v1.02c.34-1.02.68-2.04,1.02-3.06h-2.04ZM370.58,664.59v-2.04c-.94,1.81-1.37.53,0,2.04M370.58,644.18v-2.04c-.94,1.81-1.37.53,0,2.04M370.58,623.76v-2.04c-.94,1.81-1.37.53,0,2.04M368.54,601.3v2.04h2.04v-2.04h-2.04ZM368.54,580.88v2.04h2.04v-2.04h-2.04ZM368.54,561.49c-.34.34-.68.68-1.02,1.02l1.02,1.02c2.34-1.77.9.22,2.04-3.06-.68.34-1.36.68-2.04,1.02M368.54,540.05v2.04h2.04v-2.04h-2.04ZM368.54,520.65v1.02c.68-.34,1.36-.68,2.04-1.02h-2.04ZM370.58,501.25v-2.04c-.94,1.81-1.37.53,0,2.04M368.54,478.79v2.04h2.04v-2.03h-2.04ZM370.58,460.42v-2.04c-.94,1.81-1.37.53,0,2.04M368.54,438.98v1.02l2.04-1.02h-2.04ZM368.54,417.54c.34.68.68,1.36,1.02,2.04v1.02c.34-1.02.68-2.04,1.02-3.06h-2.04ZM368.54,377.73v1.02c.68-.34,1.36-.68,2.04-1.02h-2.04ZM368.54,336.9v1.02c.68-.34,1.36-.68,2.04-1.02h-2.04ZM368.54,275.64v1.02c.68-.34,1.36-.68,2.04-1.02h-2.04ZM368.54,255.23v1.02l2.04-1.02h-2.04ZM368.54,234.81v1.02c.68-.34,1.36-.68,2.04-1.02h-2.04ZM368.54,704.41c-.34.34-.68.68-1.02,1.02l3.06,1.02c.34-1.02.68-2.04,1.02-3.06-1.02.34-2.04.68-3.06,1.02M378.75,980.04v1.02c.68-.34,1.36-.68,2.04-1.02h-2.04ZM378.75,940.23h1.02l1.02,1.02v-2.04c-.68.34-1.36.68-2.04,1.02M380.79,878.98v-2.04c-.94,1.81-1.37.53,0,2.04M378.75,836.1c.34.68.68,1.36,1.02,2.04v1.02c.34-1.02.68-2.04,1.02-3.06h-2.04ZM378.75,816.7v1.02c.68-.34,1.36-.68,2.04-1.02h-2.04ZM380.79,797.3v-2.03c-.94,1.81-1.37.53,0,2.04M378.75,775.87v1.02c.68-.34,1.36-.68,2.04-1.02h-2.04ZM378.75,713.6v2.04h2.04v-2.04h-2.04ZM378.75,693.18c.34.68.68,1.36,1.02,2.04v1.02c.34-1.02.68-2.04,1.02-3.06h-2.04ZM378.75,672.76v2.04h2.04v-2.04h-2.04ZM378.75,652.35c.34.68.68,1.36,1.02,2.04v1.02c.34-1.02.68-2.04,1.02-3.06h-2.04ZM380.79,633.97v-2.04c-.94,1.81-1.37.53,0,2.04M378.75,611.51v2.04h2.04v-2.04h-2.04ZM378.75,591.09c.34.68.68,1.36,1.02,2.04v1.02c.34-1.02.68-2.04,1.02-3.06h-2.04ZM378.75,570.68v2.04h2.04v-2.04h-2.04ZM380.79,552.3v-2.04c-.94,1.81-1.37.53,0,2.04M378.75,529.84v2.04h2.04v-2.04h-2.04ZM378.75,509.42v3.06c2.34-1.77.9.22,2.04-3.06h-2.04ZM378.75,489.01v2.04h2.04v-2.04h-2.04ZM378.75,469.61v1.02c.68-.34,1.36-.68,2.04-1.02h-2.04ZM378.75,449.19v1.02c.68-.34,1.36-.68,2.04-1.02h-2.04ZM378.75,428.78v1.02c.68-.34,1.36-.68,2.04-1.02h-2.04ZM378.75,408.36v1.02c.68-.34,1.36-.68,2.04-1.02h-2.04ZM378.75,387.94v1.02c.68-.34,1.36-.68,2.04-1.02h-2.04ZM380.79,348.13v-2.04c-.94,1.81-1.37.53,0,2.04M378.75,326.69v1.02c.68-.34,1.36-.68,2.04-1.02h-2.04ZM378.75,306.27v1.02c.68-.34,1.36-.68,2.04-1.02h-2.04ZM378.75,285.86v1.02c.68-.34,1.36-.68,2.04-1.02h-2.04ZM378.75,245.02v1.02c.68-.34,1.36-.68,2.04-1.02h-2.04ZM391,1012.71v-2.04h-2.04v2.04M391,827.94v-2.04c-.94,1.81-1.37.53,0,2.04M388.96,806.5v1.02c.68-.34,1.36-.68,2.04-1.02h-2.04ZM388.96,786.08v1.02l2.04-1.02h-2.04ZM388.96,767.7c2.34-1.77.9.22,2.04-3.06-1.48,1.45-1.05.75-2.04,3.06M391,746.27v-2.04c-.94,1.81-1.37.53,0,2.04M388.96,703.39c.34.68.68,1.36,1.02,2.04v1.02c.34-1.02.68-2.04,1.02-3.06h-2.04ZM388.96,684v1.02c.68-.34,1.36-.68,2.04-1.02h-2.04ZM388.96,642.14v2.04h2.04v-2.04h-2.04ZM388.96,621.72v2.04h2.04v-2.04h-2.04ZM388.96,601.3c.34.68.68,1.36,1.02,2.04v1.02c.34-1.02.68-2.04,1.02-3.06h-2.04ZM388.96,581.91v1.02l2.04-1.02h-2.04ZM389.98,563.53c.34-1.02.68-2.04,1.02-3.06-2.37-.17-1.8,2.01-1.02,3.06M388.95,541.08v1.02c.68-.34,1.36-.68,2.04-1.02h-2.04ZM388.95,520.66v1.02c.68-.34,1.36-.68,2.04-1.02h-2.04ZM388.95,499.22c.34.68.68,1.36,1.02,2.04v1.02c.34-1.02.68-2.04,1.02-3.06h-2.04ZM388.95,478.8v2.04h2.04v-2.05h-2.04ZM388.95,458.39v2.04h2.04v-2.05h-2.04ZM391,440.01v-2.04c-.94,1.81-1.37.53,0,2.04M388.95,418.57v1.02c.68-.34,1.36-.68,2.04-1.02h-2.04ZM388.95,398.16v1.02c.68-.34,1.36-.68,2.04-1.02h-2.04ZM388.95,357.32v1.02c.68-.34,1.36-.68,2.04-1.02h-2.04ZM388.95,336.9v1.02c.68-.34,1.36-.68,2.04-1.02h-2.04ZM388.95,316.49v1.02c.68-.34,1.36-.68,2.04-1.02h-2.04ZM388.95,255.23v1.01l2.04-1.02h-2.04ZM388.95,173.56v1.02c.68-.34,1.36-.68,2.04-1.02h-2.04ZM388.95,927.99c1.77,2.7.3,2.69,3.06,1.02l-3.06-1.02M388.95,868.78c.5,2.83,3.06-1.02,3.06-1.02-.81-2.14-3.71.35-3.06,1.02M388.95,662.56c1.77,2.7.3,2.69,3.06,1.02-1.02-.34-2.04-.68-3.06-1.02M399.16,980.05v1.02c.68-.34,1.36-.68,2.04-1.02h-2.04ZM400.19,961.67c.34-1.02.68-2.04,1.02-3.06-2.37-.17-1.8,2.01-1.02,3.06M399.16,876.94c.34.68.68,1.36,1.02,2.04v1.02c.34-1.02.68-2.04,1.02-3.06h-2.04ZM400.19,859.59c.34-1.02.68-2.04,1.02-3.06-2.37-.16-1.8,2.02-1.02,3.06M399.16,836.11c.34.68.68,1.36,1.02,2.04v1.02c.34-1.02.68-2.04,1.02-3.06h-2.04ZM401.2,797.32v-2.05c-.94,1.81-1.37.53,0,2.04M399.16,734.02v2.04h2.04v-2.04h-2.04ZM401.2,715.64v-2.04c-.94,1.81-1.37.53,0,2.04M401.2,674.81v-2.04c-.94,1.81-1.37.53,0,2.04M399.16,652.35c.34.68.68,1.36,1.02,2.04v1.02c.34-1.02.68-2.04,1.02-3.06h-2.04ZM399.16,632.95v1.02c.68-.34,1.36-.68,2.04-1.02h-2.04ZM399.16,611.51c.34.68.68,1.36,1.02,2.04v1.02c.34-1.02.68-2.04,1.02-3.06h-2.04ZM399.16,592.12v1.02c.68-.34,1.36-.68,2.04-1.02h-2.04ZM401.2,572.72v-2.04c-.94,1.81-1.37.53,0,2.04M399.16,550.26c.34.68.68,1.36,1.02,2.04v1.02c.34-1.02.68-2.04,1.02-3.06h-2.04ZM401.2,511.47v-2.04c-.94,1.81-1.37.53,0,2.04M399.16,490.03v1.02c.68-.34,1.36-.68,2.04-1.02h-2.04ZM401.2,470.63v-2.04c-.94,1.81-1.37.53,0,2.04M399.16,448.17v2.04h2.04v-2.04h-2.04ZM399.16,428.77v1.02c.68-.34,1.36-.68,2.04-1.02h-2.04ZM401.2,409.37v-2.04c-.94,1.81-1.37.53,0,2.04M399.16,386.91v2.04h2.04v-2.04h-2.04ZM401.2,368.54v-2.04c-.94,1.81-1.37.53,0,2.04M399.16,347.1v1.02c.68-.34,1.36-.68,2.04-1.02h-2.04ZM399.16,327.7h1.02l1.02,1.02v-2.04c-.68.34-1.36.68-2.04,1.02M399.16,245.01v1.02c.68-.34,1.36-.68,2.04-1.02h-2.04ZM411.41,1011.68v-2.04c-.94,1.81-1.37.53,0,2.04M409.37,989.22v2.05h2.04v-2.04h-2.04ZM408.35,927.97c.34,1.02.68,2.04,1.02,3.06,2.34-1.77.9.22,2.04-3.06h-3.06ZM411.41,848.34v-2.04c-.94,1.81-1.37.53,0,2.04M409.37,805.48v2.04h2.04v-2.04h-2.04ZM409.37,766.68h1.02l1.02,1.02v-2.04c-.68.34-1.36.68-2.04,1.02M411.41,746.27v-2.04c-.94,1.81-1.37.53,0,2.04M409.37,724.83v1.02c.68-.34,1.36-.68,2.04-1.02h-2.04ZM409.37,703.39v2.04h2.04v-2.04h-2.04ZM411.41,664.6v-2.04c-.94,1.81-1.37.53,0,2.04M411.41,644.18v-2.04c-.94,1.81-1.37.53,0,2.04M409.37,621.72v2.04h2.04v-2.04h-2.04ZM409.37,601.3v2.04h2.04v-2.04h-2.04ZM409.37,581.9v1.02c.68-.34,1.36-.68,2.04-1.02h-2.04ZM409.37,560.47c.34.68.68,1.36,1.02,2.04v1.02c.34-1.02.68-2.04,1.02-3.06h-2.04ZM409.37,543.11c2.34-1.77.9.22,2.04-3.06-1.48,1.45-1.05.75-2.04,3.06M409.37,519.63c.34.68.68,1.36,1.02,2.04v1.02c.34-1.02.68-2.04,1.02-3.06h-2.04ZM409.37,499.21v2.04h2.04v-2.04h-2.04ZM411.41,480.84v-2.04c-.94,1.81-1.37.53,0,2.04M411.41,460.42v-2.04c-.94,1.81-1.37.53,0,2.04M409.37,440h1.02c.34.34.68.68,1.02,1.02v-2.04c-.68.34-1.36.68-2.04,1.02M409.37,418.57v1.02c.68-.34,1.36-.68,2.04-1.02h-2.04ZM409.37,376.71v2.04h2.04v-2.04h-2.04ZM409.37,336.9v1.02c.68-.34,1.36-.68,2.04-1.02h-2.04ZM409.37,275.64v1.02c.68-.34,1.36-.68,2.04-1.02h-2.04ZM409.37,193.97v1.02c.68-.34,1.36-.68,2.04-1.02h-2.04ZM419.58,999.44c.34.68.68,1.36,1.02,2.04v1.02c.34-1.02.68-2.04,1.02-3.06h-2.04ZM419.58,979.02v2.04h2.04v-2.04h-2.04ZM419.58,876.94v2.04h2.04v-2.04h-2.04ZM419.58,815.68v2.04h2.04v-2.04h-2.04ZM419.58,775.87v1.02c.68-.34,1.36-.68,2.04-1.02h-2.04ZM419.58,754.43v2.05h2.04v-2.04h-2.04ZM421.62,736.06v-2.04c-.94,1.81-1.37.53,0,2.04M421.62,715.64v-2.04c-.94,1.81-1.37.53,0,2.04M419.58,694.2v1.02c.68-.34,1.36-.68,2.04-1.02h-2.04ZM419.58,652.35c.34.68.68,1.36,1.02,2.04v1.02c.34-1.02.68-2.04,1.02-3.06h-2.04ZM421.62,633.97v-2.04c-.94,1.81-1.37.53,0,2.04M419.58,612.53v1.02c.68-.34,1.36-.68,2.04-1.02h-2.04ZM419.58,591.09v2.04h2.04v-2.04h-2.04ZM419.58,570.68v2.04h2.04v-2.04h-2.04ZM419.58,550.26c.34.68.68,1.36,1.02,2.04v1.02c.34-1.02.68-2.04,1.02-3.06h-2.04ZM421.62,531.88v-2.04c-.94,1.81-1.37.53,0,2.04M421.62,511.47v-2.04c-.94,1.81-1.37.53,0,2.04M421.62,491.05v-2.04c-.94,1.81-1.37.53,0,2.04M419.58,469.61v1.02c.68-.34,1.36-.68,2.04-1.02h-2.04ZM419.58,448.17c.34.68.68,1.36,1.02,2.04v1.02c.34-1.02.68-2.04,1.02-3.06h-2.04ZM419.58,427.75v2.04h2.04v-2.04h-2.04ZM419.58,408.35v1.02c.68-.34,1.36-.68,2.04-1.02h-2.04ZM419.58,387.94v1.02c.68-.34,1.36-.68,2.04-1.02h-2.04ZM419.58,366.5v2.04h2.04v-2.04h-2.04ZM419.58,306.27v1.02c.68-.34,1.36-.68,2.04-1.02h-2.04ZM419.58,285.85v1.03c.68-.34,1.36-.68,2.04-1.02h-2.04ZM429.79,989.23c.34.68.68,1.36,1.02,2.04v1.02c.34-1.02.68-2.04,1.02-3.06h-2.04ZM429.79,968.81c.34.68.68,1.36,1.02,2.04v1.02c.34-1.02.68-2.04,1.02-3.06h-2.04ZM429.79,889.18c.68-.34,1.36-.68,2.04-1.02-.37-1.75-1.64-.83-2.04,1.02M429.79,847.33v1.02l2.04-1.02h-2.04ZM429.79,805.47c.34.68.68,1.36,1.02,2.04v1.02c.34-1.02.68-2.04,1.02-3.06h-2.04ZM429.79,786.08v1.02l2.04-1.02h-2.04ZM429.79,765.66v1.02c.68-.34,1.36-.68,2.04-1.02h-2.04ZM431.83,746.26v-2.04c-.94,1.81-1.37.53,0,2.04M431.83,725.84v-2.04c-.94,1.81-1.37.53,0,2.04M429.79,703.38v2.04h2.04v-2.04h-2.04ZM429.79,663.57v1.02c.68-.34,1.36-.68,2.04-1.02h-2.04ZM429.79,642.13c.34.68.68,1.36,1.02,2.04v1.02c.34-1.02.68-2.04,1.02-3.06h-2.04ZM429.79,621.71c.34.68.68,1.36,1.02,2.04v1.02c.34-1.02.68-2.04,1.02-3.06h-2.04ZM429.79,601.3v3.06c2.34-1.77.9.22,2.04-3.06h-2.04ZM431.83,582.92v-2.04c-.94,1.81-1.38.53,0,2.04M429.79,560.46c.34.68.68,1.36,1.02,2.04v1.02c.34-1.02.68-2.04,1.02-3.06h-2.04ZM429.79,540.04v2.04h2.04v-2.04h-2.04ZM429.79,519.63v3.06c2.34-1.77.9.22,2.04-3.06h-2.04ZM429.79,499.21v3.07c2.34-1.77.9.22,2.04-3.06h-2.04ZM429.79,479.81v1.02l2.04-1.02h-2.04ZM429.79,437.95v2.04h2.04v-2.04h-2.04ZM429.79,418.55v1.02c.68-.34,1.36-.68,2.04-1.02h-2.04ZM429.79,398.13v1.02c.68-.34,1.36-.68,2.04-1.02h-2.04ZM429.79,377.72v1.02c.68-.34,1.36-.68,2.04-1.02h-2.04ZM429.79,336.88v1.02l2.04-1.02h-2.04ZM429.79,173.54v1.02c.68-.34,1.36-.68,2.04-1.02h-2.04ZM440,979.01v2.04h2.04v-2.04h-2.04ZM440,858.55c.68-.34,1.36-.68,2.04-1.02-.37-1.75-1.64-.83-2.04,1.02M440,795.25v2.04h2.04v-2.02l-2.04-.02ZM440,755.44v1.02l2.04-1.02h-2.04ZM440,734v3.08c2.34-1.77.9.22,2.04-3.06l-2.04-.02ZM442.04,715.62v-2.03c-.94,1.81-1.37.53,0,2.04M440,693.18c.34.68.68,1.36,1.02,2.04v1.02c.34-1.02.68-2.04,1.02-3.06h-2.04ZM442.04,654.39v-2.04c-.94,1.81-1.37.53,0,2.04M440,632.95v1.02c.68-.34,1.36-.68,2.04-1.02h-2.04ZM440,592.12v1.02c.68-.34,1.36-.68,2.04-1.02h-2.04ZM440,571.7v1.02c.68-.34,1.36-.68,2.04-1.02h-2.04ZM440,550.26c.34.68.68,1.36,1.02,2.04v1.02c.34-1.02.68-2.04,1.02-3.06h-2.04ZM440,529.84v2.04h2.04v-2.04h-2.04ZM442.04,511.47v-2.04c-.94,1.81-1.37.53,0,2.04M440,489.01c.34.68.68,1.36,1.02,2.04v1.02c.34-1.02.68-2.04,1.02-3.06h-2.04ZM442.04,470.63v-2.04c-.94,1.81-1.37.53,0,2.04M440,408.36v1.02c.68-.34,1.36-.68,2.04-1.02h-2.04ZM440,387.94v1.02c.68-.34,1.36-.68,2.04-1.02h-2.04ZM440,774.85v3.06c2.28-1.02,1.62-.55,3.06-2.04-1.02-.34-2.04-.68-3.06-1.02M450.2,969.84v1.02c.68-.34,1.36-.68,2.04-1.02h-2.04ZM450.2,888.17v1.02c.68-.34,1.36-.68,2.04-1.02h-2.04ZM452.25,868.77v-2.04c-.94,1.81-1.37.53,0,2.04M450.2,846.31v2.04h2.04v-2.04h-2.04ZM450.2,806.49v1.02c.68-.34,1.36-.68,2.04-1.02h-2.04ZM450.2,745.24v1.02c.68-.34,1.36-.68,2.04-1.02h-2.04ZM450.2,724.83v1.02c.68-.34,1.36-.68,2.04-1.02h-2.04ZM450.2,704.41v1.02c.68-.34,1.36-.68,2.04-1.02h-2.04ZM450.2,682.97c.34.68.68,1.36,1.02,2.04v1.02c.34-1.02.68-2.04,1.02-3.06h-2.04ZM450.2,662.55v2.04h2.04v-2.04h-2.04ZM450.2,643.15v1.02c.68-.34,1.36-.68,2.04-1.02h-2.04ZM450.2,622.73v1.02c.68-.34,1.36-.68,2.04-1.02h-2.04ZM450.2,601.29c.34.68.68,1.36,1.02,2.04v1.02c.34-1.02.68-2.04,1.02-3.06h-2.04ZM451.23,583.94c.34-1.02.68-2.04,1.02-3.06-2.37-.17-1.8,2.02-1.02,3.06M450.2,560.46v3.06c2.34-1.77.9.22,2.04-3.06h-2.04ZM450.2,540.04v3.06c2.34-1.77.9.22,2.04-3.06h-2.04ZM450.2,520.65v1.02c.68-.34,1.36-.68,2.04-1.02h-2.04ZM450.2,500.23v1.02c.68-.34,1.36-.68,2.04-1.02h-2.04ZM450.2,479.81v1.02c.68-.34,1.36-.68,2.04-1.02h-2.04ZM450.2,418.56v1.02c.68-.34,1.36-.68,2.04-1.02h-2.04ZM450.2,398.14v1.02c.68-.34,1.36-.68,2.04-1.02h-2.04ZM450.2,377.72v1.02c.68-.34,1.36-.68,2.04-1.02h-2.04ZM450.2,764.63v3.06h2.04c.34-1.02.68-2.04,1.02-3.06h-3.06ZM460.42,979.03c.34.68.68,1.36,1.02,2.04v1.02c.34-1.02.68-2.04,1.02-3.06h-2.04ZM460.42,897.36c.34.68.68,1.36,1.02,2.04v1.02c.34-1.02.68-2.04,1.02-3.06h-2.04ZM460.42,857.54v1.02c.68-.34,1.36-.68,2.04-1.02h-2.04ZM460.42,837.12v1.02c.68-.34,1.36-.68,2.04-1.02h-2.04ZM460.42,774.85v2.04h2.04v-2.04h-2.04ZM460.42,755.45v1.02l2.04-1.02h-2.04ZM460.42,734.01c.34.68.68,1.36,1.02,2.04v1.02c.34-1.02.68-2.04,1.02-3.06h-2.04ZM461.44,716.66c.34-1.02.68-2.04,1.02-3.06-2.37-.17-1.8,2.02-1.02,3.06M462.46,695.22v-2.04c-.94,1.81-1.37.53,0,2.04M460.42,673.78v1.02c.68-.34,1.36-.68,2.04-1.02h-2.04ZM460.42,654.38h1.02l1.02,1.02v-2.04c-.68.34-1.36.68-2.04,1.02M460.42,631.92v3.06c2.34-1.77.9.22,2.04-3.06h-2.04ZM460.42,611.51c.34.68.68,1.36,1.02,2.04v1.03c.34-1.02.68-2.04,1.02-3.06h-2.04ZM460.42,592.11v1.02c.68-.34,1.36-.68,2.04-1.02h-2.04ZM460.42,550.25v2.04h2.04v-2.04h-2.04ZM460.42,529.84c.34.68.68,1.36,1.02,2.04v1.02c.34-1.02.68-2.04,1.02-3.06h-2.04ZM462.46,491.04v-2.04c-.94,1.81-1.37.53,0,2.04M460.42,468.58v2.04h2.04v-2.04h-2.04ZM460.42,448.17v2.04h2.04v-2.04h-2.04ZM460.42,428.77v1.02c.68-.34,1.36-.68,2.04-1.02h-2.04ZM460.42,408.35v1.02c.68-.34,1.36-.68,2.04-1.02h-2.04ZM460.42,386.91v2.04h2.04v-2.04h-2.04ZM472.67,868.76v-2.04c-.94,1.81-1.37.53,0,2.04M470.62,786.08v1.02c.68-.34,1.36-.68,2.04-1.02h-2.04ZM470.62,765.66v1.02c.68-.34,1.36-.68,2.04-1.02h-2.04ZM470.62,745.24v1.02c.68-.34,1.36-.68,2.04-1.02h-2.04ZM470.62,724.83v1.02c.68-.34,1.36-.68,2.04-1.02h-2.04ZM470.62,703.39v2.04h2.04v-2.04h-2.04ZM470.62,682.97v2.04h2.04v-2.04h-2.04ZM470.62,663.57v1.02c.68-.34,1.36-.68,2.04-1.02h-2.04ZM470.62,642.13c.34.68.68,1.36,1.02,2.04v1.02c.34-1.02.68-2.04,1.02-3.06h-2.04ZM470.62,621.72c.34.68.68,1.36,1.02,2.04v1.02c.34-1.02.68-2.04,1.02-3.06h-2.04ZM470.62,601.3v2.04h2.04v-2.04h-2.04ZM470.62,560.46v2.04h2.04v-2.04h-2.04ZM470.62,520.65v1.02c.68-.34,1.36-.68,2.04-1.02h-2.04ZM470.62,501.25h1.02l1.02,1.02v-2.03c-.68.34-1.36.68-2.04,1.02M470.62,459.4v1.02c.68-.34,1.36-.68,2.04-1.02h-2.04ZM470.62,438.99v1.02c.68-.34,1.36-.68,2.04-1.02h-2.04ZM470.62,418.57v1.02c.68-.34,1.36-.68,2.04-1.02h-2.04ZM470.62,357.32v1.02c.68-.34,1.36-.68,2.04-1.02h-2.04ZM470.62,316.48v1.02c.68-.34,1.36-.68,2.04-1.02h-2.04ZM470.62,296.06v1.02c.68-.34,1.36-.68,2.04-1.02h-2.04ZM470.62,275.65v1.02c.68-.34,1.36-.68,2.04-1.02h-2.04ZM470.62,193.98v1.02c.68-.34,1.36-.68,2.04-1.02h-2.04ZM470.62,173.56v1.02c.68-.34,1.36-.68,2.04-1.02h-2.04ZM480.83,999.44v2.04h2.04v-2.04h-2.04ZM480.83,980.04v1.02c.68-.34,1.36-.68,2.04-1.02h-2.04ZM480.83,795.27v2.04h2.04v-2.04h-2.04ZM480.83,714.62v1.02c.68-.34,1.36-.68,2.04-1.02h-2.04ZM480.83,694.2v1.02c.68-.34,1.36-.68,2.04-1.02h-2.04ZM480.83,672.76c.34.68.68,1.36,1.02,2.04v1.02c.34-1.02.68-2.04,1.02-3.06h-2.04ZM480.83,632.95c-.34.34-.68.68-1.02,1.02l1.02,1.02c2.34-1.77.9.22,2.04-3.06-.68.34-1.36.68-2.04,1.02M480.83,611.51v2.04h2.04v-2.04h-2.04ZM480.83,570.67v2.04h2.04v-2.04h-2.04ZM480.83,550.26v2.04h2.04v-2.04h-2.04ZM480.83,469.61v1.02c.68-.34,1.36-.68,2.04-1.02h-2.04ZM480.83,449.19v1.02c.68-.34,1.36-.68,2.04-1.02h-2.04ZM480.83,429.79c.68-.34,1.36-.68,2.04-1.02-.37-1.75-1.64-.83-2.04,1.02M480.83,367.52v1.02c.68-.34,1.36-.68,2.04-1.02h-2.04ZM480.83,347.1v1.02c.68-.34,1.36-.68,2.04-1.02h-2.04ZM480.83,285.85v1.03c.68-.34,1.36-.68,2.04-1.02h-2.04ZM491.04,888.16v1.02c.68-.34,1.36-.68,2.04-1.02h-2.04ZM491.04,765.66v1.02c.68-.34,1.36-.68,2.04-1.02h-2.04ZM491.04,704.41v1.02c.68-.34,1.36-.68,2.04-1.02h-2.04ZM491.04,642.13v3.06c2.34-1.77.9.22,2.04-3.06h-2.04ZM491.04,622.73v1.02c.68-.34,1.36-.68,2.04-1.02h-2.04ZM493.08,603.33v-2.04c-.94,1.81-1.37.53,0,2.04M491.04,560.46v3.06c2.34-1.77.9.22,2.04-3.06h-2.04ZM492.06,461.43c.34-1.02.68-2.04,1.02-3.06-2.37-.16-1.8,2.01-1.02,3.06M491.04,580.87c1.77,2.7.3,2.69,3.06,1.02-1.02-.34-2.04-.68-3.06-1.02M501.25,775.87v1.02c.68-.34,1.36-.68,2.04-1.02h-2.04ZM501.25,715.64h1.02l1.02,1.02v-2.04c-.68.34-1.36.68-2.04,1.02M503.29,654.39v-2.04c-.94,1.81-1.38.53,0,2.04M501.25,612.53v1.02c.68-.34,1.36-.68,2.04-1.02h-2.04ZM501.25,570.68v2.04h2.04v-2.04h-2.04ZM501.25,551.28v1.02l2.04-1.02h-2.04ZM501.25,448.17v2.04h2.04v-2.04h-2.04ZM501.25,387.94v1.02c.68-.34,1.36-.68,2.04-1.02h-2.04ZM501.25,367.52v1.02c.68-.34,1.36-.68,2.04-1.02h-2.04ZM501.25,265.43v1.02c.68-.34,1.36-.68,2.04-1.02h-2.04ZM501.25,183.76v1.02l2.04-1.02h-2.04ZM512.48,1012.71c.34-1.02.68-2.04,1.02-3.06h-2.04c.34.68.68,1.36,1.02,2.04v1.02M513.5,868.77v-2.04c-.94,1.81-1.37.53,0,2.04M511.46,805.48v2.04h2.04v-2.04h-2.04ZM511.46,786.08v1.02c.68-.34,1.36-.68,2.04-1.02h-2.04ZM511.46,723.81v2.04h2.04v-2.04h-2.04ZM511.46,704.41v1.02c.68-.34,1.36-.68,2.04-1.02h-2.04ZM511.46,642.14c.34.68.68,1.36,1.02,2.04v1.02c.34-1.02.68-2.04,1.02-3.06h-2.04ZM511.46,602.33v1.02c.68-.34,1.36-.68,2.04-1.02h-2.04ZM511.46,581.91v1.02c.68-.34,1.36-.68,2.04-1.02h-2.04ZM513.5,562.51v-2.04c-.94,1.81-1.37.53,0,2.04M511.46,520.65v1.02c.68-.34,1.36-.68,2.04-1.02h-2.04ZM511.46,440.01h1.02c.34.34.68.68,1.02,1.02v-2.04c-.68.34-1.36.68-2.04,1.02M511.46,398.15v1.02c.68-.34,1.36-.68,2.04-1.02h-2.04ZM521.67,999.44v2.04h2.04v-2.04h-2.04ZM521.67,897.36l1.02,2.04v1.02c.34-1.02.68-2.04,1.02-3.06h-2.04ZM521.67,877.96v1.02c.68-.34,1.36-.68,2.04-1.02h-2.04ZM521.67,857.54c-.34.34-.68.68-1.02,1.02l1.02,1.02c2.34-1.77.9.22,2.04-3.06-.68.34-1.36.68-2.04,1.02M521.67,837.12v1.02c.68-.34,1.36-.68,2.04-1.02h-2.04ZM521.67,816.7v1.02c.68-.34,1.36-.68,2.04-1.02h-2.04ZM545.57,783.59v2.17h2.17v-2.17h-2.17ZM521.67,775.87v1.02c.68-.34,1.36-.68,2.04-1.02h-2.04ZM521.67,754.43v2.05h2.04v-2.04h-2.04ZM521.67,734.01v2.04h2.04v-2.04h-2.04ZM523.71,715.64v-2.04c-.94,1.81-1.37.53,0,2.04M521.67,694.2v1.02c.68-.34,1.36-.68,2.04-1.02h-2.04ZM521.67,673.79v1.02c.68-.34,1.36-.68,2.04-1.02h-2.04ZM521.67,611.51v2.04h2.04v-2.04h-2.04ZM521.67,571.7v1.02c.68-.34,1.36-.68,2.04-1.02h-2.04ZM521.67,531.88h1.02l1.02,1.02v-2.04c-.68.34-1.36.68-2.04,1.02M521.67,367.52v1.02l2.04-1.02h-2.04ZM521.67,265.44v1.02c.68-.34,1.36-.68,2.04-1.02h-2.04ZM531.88,908.58v1.02c.68-.34,1.36-.68,2.04-1.02h-2.04ZM531.88,889.18h1.02l1.02,1.02v-2.04c-.68.34-1.36.68-2.04,1.02M531.88,744.22c.34.68.68,1.36,1.02,2.04v1.02c.34-1.02.68-2.04,1.02-3.06h-2.04ZM531.88,703.38c.34.68.68,1.36,1.02,2.04v1.02c.34-1.02.68-2.04,1.02-3.06h-2.04ZM533.92,685.01v-2.04c-.94,1.81-1.37.53,0,2.04M531.88,662.55v2.04h2.04v-2.04h-2.04ZM531.88,601.3c.34.68.68,1.36,1.02,2.04v1.02c.34-1.02.68-2.04,1.02-3.06h-2.04ZM533.92,582.92v-2.04c-.94,1.81-1.37.53,0,2.04M531.88,541.08v1.02c.68-.34,1.36-.68,2.04-1.02h-2.04ZM531.88,500.24v1.02c.68-.34,1.36-.68,2.04-1.02h-2.04ZM531.88,560.47c1.77,2.7.3,2.69,3.06,1.02-1.02-.34-2.04-.68-3.06-1.02M542.09,958.61c.34.68.68,1.36,1.02,2.04v1.02c.34-1.02.68-2.04,1.02-3.06h-2.04ZM542.09,836.11v2.04h2.04v-2.04h-2.04ZM542.09,754.44v2.04h2.04v-2.04h-2.04ZM544.13,736.06v-2.04c-.94,1.81-1.37.53,0,2.04M542.09,694.21v1.02l2.04-1.02h-2.04ZM542.09,611.52c.34.68.68,1.36,1.02,2.04v1.02c.34-1.02.68-2.04,1.02-3.06h-2.04ZM542.09,591.1v2.04h2.04v-2.04h-2.04ZM542.09,570.68v2.04h2.04v-2.05h-2.04ZM542.09,550.26c.34.68.68,1.36,1.02,2.04v1.02c.34-1.02.68-2.04,1.02-3.06h-2.04ZM542.09,529.85c.34.68.68,1.36,1.02,2.04v1.02c.34-1.02.68-2.04,1.02-3.06h-2.04ZM542.09,408.36v1.02l2.04-1.02h-2.04ZM542.09,326.7v1.02c.68-.34,1.36-.68,2.04-1.02h-2.04ZM542.09,856.53c1.77,2.7.3,2.69,3.06,1.02l-3.06-1.02M552.29,968.83v2.04h2.04v-2.04h-2.04ZM552.29,949.43v1.02c.68-.34,1.36-.68,2.04-1.02h-2.04ZM552.29,908.59v1.02c.68-.34,1.36-.68,2.04-1.02h-2.04ZM552.29,888.17v1.02c.68-.34,1.36-.68,2.04-1.02h-2.04ZM552.29,867.76v1.02c.68-.34,1.36-.68,2.04-1.02h-2.04ZM552.29,846.32v2.04h2.04v-2.04h-2.04ZM552.29,825.9v2.04h2.04v-2.04h-2.04ZM552.29,806.5v1.02c.68-.34,1.36-.68,2.04-1.02h-2.04ZM553.32,766.69h1.02v-2.04c-.34.68-.68,1.36-1.02,2.04M552.29,744.23c.34.68.68,1.36,1.02,2.04v1.02c.34-1.02.68-2.04,1.02-3.06h-2.04ZM552.29,621.72v2.04h2.04v-2.04h-2.04ZM552.29,601.3v2.04h2.04v-2.04h-2.04ZM552.29,560.47c.34.68.68,1.36,1.02,2.04v1.02c.34-1.02.68-2.04,1.02-3.06h-2.04ZM552.29,520.66v1.02c.68-.34,1.36-.68,2.04-1.02h-2.04ZM553.32,501.26h1.02v-2.04c-.34.68-.68,1.36-1.02,2.04M552.29,438.98v1.02c.68-.34,1.36-.68,2.04-1.02h-2.04ZM552.29,193.97v1.02c.68-.34,1.36-.68,2.04-1.02h-2.04ZM562.5,816.7v1.02c.68-.34,1.36-.68,2.04-1.02h-2.04ZM564.54,797.3v-2.04c-.94,1.81-1.37.53,0,2.04M562.5,755.46v1.02l2.04-1.02h-2.04ZM562.5,734.02c.34.68.68,1.36,1.02,2.04v1.02c.34-1.02.68-2.04,1.02-3.06h-2.04ZM564.54,613.55v-2.04c-.94,1.81-1.37.53,0,2.04M562.5,592.12v1.02c.68-.34,1.36-.68,2.04-1.02h-2.04ZM562.5,550.26v2.04h2.04v-2.04h-2.04ZM562.5,449.19v1.02c.68-.34,1.36-.68,2.04-1.02h-2.04ZM573.73,992.29c.34-1.02.68-2.04,1.02-3.06-2.37-.17-1.8,2.01-1.02,3.06M572.71,867.75v1.02c.68-.34,1.36-.68,2.04-1.02h-2.04ZM572.71,847.33v1.02c.68-.34,1.36-.68,2.04-1.02h-2.04ZM572.71,622.74c-.34.34-.68.68-1.02,1.02l2.04,1.02c.34-1.02.68-2.04,1.02-3.06-.68.34-1.36.68-2.04,1.02M572.71,541.07v1.02c.68-.34,1.36-.68,2.04-1.02h-2.04ZM574.75,501.26v-2.04c-.94,1.81-1.38.53,0,2.04M574.75,480.84v-2.04c-.94,1.81-1.37.53,0,2.04M572.71,398.15v1.02c.68-.34,1.36-.68,2.04-1.02h-2.04ZM582.92,1000.46v1.02c.68-.34,1.36-.68,2.04-1.02h-2.04ZM584.96,899.4v-2.04c-.94,1.81-1.37.53,0,2.04M582.92,509.42v3.06c2.34-1.77.9.22,2.04-3.06h-2.04ZM582.92,469.61v1.02c.68-.34,1.36-.68,2.04-1.02h-2.04ZM582.92,408.36v1.02c.68-.34,1.36-.68,2.04-1.02h-2.04ZM582.92,347.11v1.02c.68-.34,1.36-.68,2.04-1.02h-2.04ZM582.92,734.02v3.06c2.28-1.02,1.62-.55,3.06-2.04-1.02-.34-2.04-.68-3.06-1.02M595.17,991.28v-2.04c-.94,1.81-1.37.53,0,2.04M593.13,785.06l1.02,2.04v1.02c.34-1.02.68-2.04,1.02-3.06h-2.04ZM593.13,724.83v1.02l2.04-1.02h-2.04ZM593.13,602.33v1.02c.68-.34,1.36-.68,2.04-1.02h-2.04ZM595.17,521.68v-2.04c-.94,1.81-1.37.53,0,2.04M593.13,500.24v1.02c.68-.34,1.36-.68,2.04-1.02h-2.04ZM593.13,275.65v1.02c.68-.34,1.36-.68,2.04-1.02h-2.04ZM603.34,571.71v1.02c.68-.34,1.36-.68,2.04-1.02h-2.04ZM603.34,550.27c.34.68.68,1.36,1.02,2.04v1.02c.34-1.02.68-2.04,1.02-3.06h-2.04ZM605.38,511.47v-2.04c-.94,1.81-1.37.53,0,2.04M605.38,491.06v-2.04c-.94,1.81-1.37.53,0,2.04M603.34,285.86v1.02l2.04-1.02h-2.04ZM603.34,265.44v1.02l2.04-1.02h-2.04ZM615.59,562.51v-2.04c-.94,1.81-1.37.53,0,2.04M613.55,317.5h1.02c.34.34.68.68,1.02,1.02v-2.04c-.68.34-1.36.68-2.04,1.02M623.75,550.26v2.04h2.04v-2.04h-2.04ZM633.96,826.91v1.02c.68-.34,1.36-.68,2.04-1.02h-2.04ZM654.38,786.08v1.02l2.04-1.02h-2.04ZM656.42,582.93v-2.04c-.94,1.81-1.37.53,0,2.04"/></g></svg>