<?xml version="1.0" encoding="UTF-8"?><svg id="Layer_1" xmlns="http://www.w3.org/2000/svg" viewBox="0 0 585.22 585.23"><g id="Topo-Option1"><g id="Group_3"><path id="Path_2" d="M284.99,11.82c.55.48,1.06,1.04,1.56,1.56.44.51.91,1,1.42,1.45,9.01,8.24,18.6,12.76,26.96,12.76h0c8.27,0,15.27-4.19,20.79-12.45,3.07-4.65,5.37-9.76,6.83-15.13h-.29c-1.46,5.31-3.74,10.37-6.75,14.98-5.5,8.16-12.41,12.33-20.59,12.33h0c-8.3,0-17.81-4.52-26.8-12.68-.46-.44-.91-.93-1.4-1.45-.51-.54-1.03-1.08-1.56-1.6-4.04-3.61-8.38-6.93-12.58-10.15-.62-.47-1.23-.93-1.86-1.43h-.45c.71.56,1.44,1.1,2.17,1.66,4.2,3.21,8.52,6.54,12.53,10.15Z"/><path id="Path_3" d="M17.77,38.57c5.84-5.56,11.89-11.33,15.76-19.57C36.1,12.95,37.71,6.55,38.3,0h-.28c-.58,6.5-2.18,12.88-4.73,18.89-3.83,8.16-9.86,13.91-15.7,19.47C10.8,44.84,3.78,51.5.31,62.04c-.12.31-.22.63-.3.95v.94c.16-.62.37-1.22.55-1.78,3.47-10.48,10.47-17.14,17.22-23.58Z"/><path id="Path_4" d="M312.94,14.76h0c2.99-.05,5.88-1.11,8.19-3.01,1.95-1.57,3.58-3.5,4.81-5.69.51-.83,1.05-1.68,1.68-2.55.48-1.14.9-2.32,1.24-3.51h-.28c-.35,1.14-.73,2.26-1.18,3.34-.61.83-1.17,1.69-1.68,2.57-1.2,2.15-2.81,4.05-4.73,5.6-2.27,1.87-5.11,2.92-8.05,2.97h0c-7.52,0-14.75-6.85-21.11-12.87l-1.7-1.62h-.41c.63.6,1.26,1.18,1.91,1.81,6.41,6.08,13.69,12.95,21.32,12.95Z"/><path id="Path_5" d="M4.94,87.15c1.36-7.18,2.62-13.97,4.56-18.76,3.29-8.17,10.12-15.05,17.34-22.33,4.62-4.42,8.93-9.15,12.92-14.15,4.41-5.58,8.05-11.73,10.81-18.28,1.6-3.82,2.98-8.22,4.32-12.47.12-.37.26-.77.36-1.14h-.28c-.1.35-.22.71-.34,1.06-1.32,4.25-2.7,8.65-4.3,12.45-2.76,6.53-6.39,12.66-10.79,18.22-3.99,4.97-8.29,9.69-12.88,14.11-7.26,7.33-14.12,14.22-17.43,22.43-1.95,4.82-3.23,11.62-4.56,18.83-1.3,6.93-2.64,14.11-4.62,19.34-.02.04-.04.08-.04.13v.73c.09-.25.19-.5.3-.75,2.01-5.27,3.35-12.45,4.63-19.4Z"/><path id="Path_6" d="M27.09,176.64c9.43,3.86,21.16,8.63,25.64,18.41.3,5.33-1.52,9.88-3.47,14.67-2.74,6.72-5.84,14.34-4.1,26.25,1.34,9.05,6.53,14.86,12.56,21.58,2.49,2.78,5.03,5.64,7.47,8.9,6.35,8.55,10.69,18.2,14.06,26.52,3.39,8.28,6.04,14.82,14.93,17,5.88,1.28,11.84,2.2,17.83,2.76,2.59.3,5.19.46,7.79.48,3.42.06,6.83-.37,10.13-1.29,6.02-1.83,9.86-6.85,14.68-13.2,1.44-1.89,2.92-3.82,4.6-5.87,1.14-1.41,2.64-2.95,4.24-4.61,3.33-3.42,6.76-6.97,7.71-9.82.27-1.06.32-2.16.16-3.24-.11-.99-.13-1.98-.06-2.97l.02-.06-.04-.04c-3.23-4.36-7.14-7.84-10.93-11.25-6.43-5.77-12.53-11.21-14.82-20.15-1.22-4.71-.77-9.76,1.34-15.42,2.25-5.98,7.49-12.56,14.79-18.49,3.29-2.68,6.77-5.46,10.47-8.43,16.94-13.51,36.15-28.83,46.63-42.17l.02-.08c.32-1.85.23-3.75-.24-5.56-1.36-5.6-5.64-12.26-11.76-18.28-5.84-5.71-12.47-9.98-17.77-11.48-.43-.12-1.26-.35-2.15-.54-7.06-1.62-14.38-.5-21.44.58-6.11.93-11.91,1.82-17.53,1.08-12.15-1.64-20.89-9.96-23.97-22.83-4.06-16.89,7.16-27.5,18.01-37.77,7.99-7.6,16.29-15.42,18.46-25.76,2.07-9.73-.63-20.24-2.41-27.19-.71-2.8-1.58-5.6-2.52-8.39h-.28c.95,2.8,1.8,5.62,2.54,8.47,1.76,6.91,4.46,17.37,2.41,27.04-2.15,10.25-10.4,18.06-18.4,25.61-10.89,10.32-22.17,20.98-18.07,38.04,3.1,12.97,11.97,21.38,24.22,23.02,5.64.75,11.44-.12,17.58-1.06,7.04-1.08,14.32-2.18,21.34-.58.87.19,1.72.42,2.15.54,10.51,2.95,26.41,17.48,29.31,29.53.49,1.77.59,3.62.29,5.44-10.49,13.32-29.65,28.64-46.57,42.13-3.71,2.95-7.2,5.73-10.49,8.4-7.32,5.98-12.6,12.58-14.85,18.64-2.13,5.71-2.57,10.79-1.36,15.57,2.33,9.03,8.44,14.53,14.91,20.32,3.99,3.34,7.63,7.07,10.87,11.14-.07.99-.06,1.98.04,2.97.19,1.04.14,2.1-.14,3.11-.93,2.78-4.32,6.33-7.65,9.73-1.58,1.64-3.1,3.2-4.24,4.61-1.68,2.03-3.18,3.98-4.62,5.89-4.81,6.31-8.6,11.29-14.54,13.1-4.52,1.37-10.35,1.64-17.79.81-5.98-.58-11.93-1.5-17.81-2.76-8.74-2.12-11.4-8.61-14.75-16.83-3.39-8.34-7.71-18.01-14.08-26.61-2.43-3.26-4.99-6.12-7.47-8.9-6-6.68-11.17-12.47-12.49-21.44-1.74-11.83,1.34-19.41,4.06-26.11,1.95-4.84,3.81-9.4,3.51-14.82l-.02-.06c-4.54-9.86-16.33-14.69-25.8-18.53-2.63-1.16-5.35-2.09-8.13-2.78-6.26-1.4-12.64-2.25-19.05-2.54v.29c6.39.27,12.74,1.11,18.98,2.51,2.77.67,5.48,1.59,8.09,2.74Z"/><path id="Path_7" d="M164.67,8.08c.73,2.86,1.58,5.73,2.41,8.53,1.79,6.16,3.47,12,4.14,17.21.51,3.39.51,6.84.02,10.23-1.4,8.05-6.69,14.32-11.8,20.4-5.86,6.95-11.93,14.18-12.39,24.2.63,8.93,10.47,10.23,20.87,11.58,1.91.27,3.9.52,5.8.83,8.68,1.55,17.19,3.95,25.39,7.18,3.14,1.22,6.17,2.74,9.11,4.22,5.6,2.84,10.89,5.54,17.08,6.25.8.08,1.61.13,2.41.12,3.77-.12,7.48-.91,10.97-2.35,3.16-1.14,5.88-2.37,8.52-3.59,5.66-2.55,10.99-4.96,19.23-5.71,1.48-.16,2.96-.23,4.44-.23,8.95,0,16.43,2.41,23.69,4.73,6.25,2.03,12.19,3.92,18.34,3.92,1.2,0,2.4-.07,3.59-.23,9.33-1.21,16.51-6.14,21.91-15.13,4.77-7.93,7.5-17.95,9.8-27.6.97-3.94,1.72-7.93,2.25-11.95.41-3.61-.14-6.25-1.7-8.07-2.82-3.34-8.48-3.55-15.03-3.76-3.04-.06-6.08-.26-9.11-.62-12.9-1.7-23.71-3.4-35.68-8.53-9.86-4.19-19.71-9.44-26.27-13.07C251.66,20.47,239.21,12.85,230.43,0h-.32c8.82,12.97,21.34,20.69,32.43,26.88,8.53,4.81,17.29,9.18,26.27,13.1,11.99,5.1,22.84,6.83,35.76,8.55,3.06.4,6.15.5,9.13.62,6.49.21,12.11.4,14.87,3.65,1.48,1.76,2.03,4.34,1.62,7.86-.54,4.01-1.29,7.98-2.25,11.91-4.54,19.2-11.07,39.91-31.48,42.53-1.18.14-2.36.21-3.55.21-6.1,0-12.01-1.89-18.27-3.9-7.26-2.32-14.77-4.73-23.75-4.73-1.48,0-2.98.06-4.46.21-8.28.75-13.63,3.2-19.31,5.77-2.64,1.18-5.35,2.43-8.5,3.57-3.47,1.4-7.15,2.18-10.89,2.3-.79,0-1.59-.04-2.38-.13-6.12-.68-11.4-3.36-17-6.18-2.97-1.57-6.01-2.99-9.13-4.23-8.22-3.24-16.74-5.66-25.44-7.2-1.93-.31-3.91-.58-5.82-.81-10.28-1.38-20.02-2.66-20.64-11.36.46-9.88,6.51-17.06,12.33-24.01,5.15-6.08,10.45-12.41,11.89-20.51.47-3.43.46-6.91-.02-10.33-.69-5.25-2.39-11.06-4.18-17.23-.81-2.8-1.64-5.71-2.41-8.55-.49-1.85-.99-3.74-1.52-5.56-.22-.79-.43-1.62-.67-2.43h-.29c.24.85.49,1.68.69,2.51.52,1.83,1.03,3.69,1.54,5.56Z"/><path id="Path_8" d="M18.91,18.46C22.5,12.99,24.34,6.55,24.18,0h-.26c.15,6.49-1.68,12.87-5.23,18.31-3.49,5.5-8.52,8.8-13.88,12.31-1.61,1.06-3.22,2.12-4.81,3.26v.33c1.62-1.16,3.31-2.26,4.95-3.34,5.35-3.53,10.42-6.85,13.95-12.41Z"/><path id="Path_9" d="M182.44,24.89c1.64,3.78,3.37,7.64,3.93,11.68,1.6,11.08-4,18.28-9.39,25.28-3.71,4.75-7.18,9.24-8.26,14.75-.21,1.1-.26,2.23-.14,3.34.04.58.08,1.2.08,2.05v.04c1.38,3.92,5.5,6.68,8.72,8.3,11.64,5.89,30.61,8.68,44.44,10.71,2.09.3,4.2.45,6.31.46h0c5.26-.15,10.5-.79,15.64-1.91,5.99-1.29,12.09-2,18.22-2.14,1.78,0,3.61.08,5.37.23.36.04,1.38.1,2.68.19,1.91.11,4.3.23,5.98.37,4.86.43,9.67,1.25,14.4,2.45,5.76,1.31,11.16,2.55,19.17,2.55.83,0,1.7-.02,2.58-.04,6.37-1.02,12.21-7.89,14.54-17.1,1.92-7.62,1.48-17.75-5.54-23.35-8.26-6.58-32.31-12.35-45.23-13.41-2.76-.25-5.05-.27-7.26-.27-2.47-.02-5.01-.04-8.33-.33-8.91-.83-16.27-4.42-24.65-12.02-10.36-9.43-15.98-16.71-24.01-31.14-.97-1.79-1.78-3.67-2.43-5.6h-.3c.67,1.98,1.52,3.89,2.51,5.73,8.03,14.47,13.65,21.75,24.08,31.21,8.4,7.64,15.82,11.25,24.79,12.08,3.33.31,5.88.33,8.36.33,2.31.02,4.48.04,7.24.27,12.88,1.08,36.86,6.81,45.11,13.37,6.9,5.5,7.3,15.53,5.42,23.06-2.29,9.09-8.07,15.88-14.32,16.89-.85.02-1.7.04-2.53.04-7.95,0-13.39-1.26-19.11-2.55-4.74-1.2-9.57-2.02-14.44-2.45-1.68-.13-4.08-.29-5.98-.4-1.3-.06-2.31-.12-2.68-.14-1.79-.18-3.59-.26-5.39-.25-6.14.12-12.25.84-18.26,2.14-5.13,1.11-10.35,1.74-15.6,1.89h0c-2.1.01-4.19-.13-6.27-.43-13.82-2.03-32.76-4.79-44.36-10.68-3.16-1.58-7.22-4.3-8.56-8.14-.02-.83-.06-1.45-.08-2.03-.15-1.09-.11-2.2.12-3.28,1.08-5.42,4.52-9.9,8.2-14.63,5.45-7.01,11.07-14.28,9.45-25.49-.59-4.07-2.29-7.99-3.95-11.75-.65-1.48-1.34-3.01-1.93-4.55-2.62-6.57-4.69-13.33-6.21-20.24h-.26c1.53,6.94,3.61,13.75,6.23,20.36.59,1.51,1.26,3.05,1.93,4.52Z"/><path id="Path_10" d="M28.12,136.82c3.75-4.27,7.08-8.84,10.61-13.65,5.6-7.64,11.38-15.52,18.85-22.04.53-.5,1.05-1.04,1.54-1.58.45-.5.93-.99,1.42-1.45,4.87-4.4,10.45-7.93,15.82-11.31,3.73-2.37,7.61-4.79,11.24-7.53,2.88-2.18,5.78-4.46,8.56-6.66,4.24-3.36,8.62-6.81,13.04-9.92,2.09-1.47,4.26-2.89,6.57-4.38,11.28-7.37,24.06-15.71,26.01-30.8,1.03-7.97-1.02-18.24-5.38-27.48h-.28c4.36,9.22,6.41,19.49,5.4,27.46-1.95,14.96-14.67,23.27-25.9,30.57-2.29,1.49-4.46,2.93-6.55,4.38-4.44,3.13-8.82,6.6-13.04,9.94-2.8,2.2-5.68,4.48-8.6,6.66-3.61,2.72-7.47,5.17-11.2,7.51-5.39,3.43-10.97,6.95-15.84,11.35-.53.46-.99,1-1.46,1.47-.48.54-.98,1.05-1.52,1.54-7.48,6.54-13.28,14.45-18.87,22.08-3.53,4.83-6.88,9.38-10.61,13.64-7.29,8.35-17.08,14.13-27.91,16.48v.29c10.9-2.37,20.76-8.17,28.11-16.56Z"/><path id="Path_11" d="M11.49,126.07c3.63-5.42,3.65-15.25,3.27-23.22-.3-6.43-.2-18.72,3.91-28.93,3.18-7.8,10.73-14.76,18.03-21.44,1.12-1.04,2.21-2.06,3.28-3.07,14.62-13.64,21.89-25.9,28.27-40.08.55-1.2,1.01-2.49,1.48-3.74.56-1.59,1.2-3.15,1.93-4.67.14-.31.3-.62.45-.91h-.31c-.12.27-.26.52-.41.77-.71,1.54-1.35,3.11-1.91,4.71-.47,1.24-.93,2.51-1.5,3.72-6.37,14.18-13.59,26.4-28.19,40.01-1.08,1.01-2.19,2.01-3.29,3.03-7.33,6.72-14.91,13.68-18.1,21.56-4.14,10.25-4.24,22.6-3.94,29.04.39,7.95.35,17.72-3.22,23.08-2.6,3.84-6.73,6.58-11.26,8.92v.31c4.61-2.39,8.82-5.15,11.48-9.09Z"/><path id="Path_12" d="M4.04,7.62C5.81,5.76,6.56,2.85,6.56,0h-.3c0,2.8-.75,5.67-2.4,7.43-.96,1.14-2.36,1.82-3.85,1.89v.27H0c1.56-.06,3.03-.77,4.04-1.97Z"/><path id="Path_13" d="M87.37,4.41c-3.85,4.65-6.67,11-9.39,17.14-.43.93-.83,1.85-1.24,2.78-3.97,8.76-8.9,19.68-14.3,27.12-2.92,4.07-7.75,6.99-12.86,10.09-7.24,4.38-14.73,8.92-17.65,17.27-1.06,3.01-1.08,6.31-.04,10.44.81,2.16,2.91,3.56,5.22,3.47h0c4.02,0,8.76-3.18,10.71-4.88,3.88-3.34,7.28-7.97,10.55-12.47,1.76-2.39,3.57-4.9,5.44-7.18.91-1.06,4.04-4.71,6.65-6.29,6.21-3.74,14.16-6.6,22.57-9.63,11.7-4.19,23.77-8.53,31.3-15.59,4.02-3.69,6.39-9.5,6.59-15.9.23-6.72-2.12-13.28-6.58-18.32-.79-.88-1.64-1.7-2.56-2.45h-.45c1,.81,1.94,1.7,2.8,2.66,4.41,4.97,6.74,11.46,6.49,18.1-.16,6.31-2.53,12.06-6.47,15.71-7.5,6.99-19.57,11.33-31.22,15.52-8.44,3.03-16.39,5.9-22.62,9.65-2.7,1.64-5.82,5.29-6.71,6.37-1.91,2.26-3.71,4.78-5.48,7.2-3.27,4.46-6.63,9.07-10.49,12.39-1.93,1.68-6.61,4.84-10.55,4.84-2.2.09-4.2-1.24-4.97-3.3-1-4.03-.98-7.29.06-10.25,2.88-8.24,10.33-12.74,17.52-17.1,5.13-3.11,9.98-6.06,12.96-10.19,5.37-7.45,10.3-18.39,14.3-27.15.41-.93.81-1.87,1.24-2.8,2.72-6.12,5.54-12.43,9.37-17.06,1.44-1.75,3.11-3.29,4.97-4.59h-.46c-1.75,1.26-3.34,2.74-4.73,4.4Z"/><path id="Path_14" d="M194.63,75.41l.02.04c.47.58.82,1.24,1.04,1.95l.06.15.04.08c2.31,2.01,5.3,3.07,8.35,2.95h0c4.85,0,9.65-2.1,12.01-5.19,1.39-1.76,1.88-4.05,1.34-6.22-1.03-4.11-4.87-5.46-9.05-6.56l-.02-.02-.02.02c-7.1,1.06-14.44,5.5-13.77,12.76v.04ZM208.4,62.87c4.1,1.1,7.81,2.39,8.82,6.35.52,2.09.04,4.31-1.3,6-2.29,3.03-7.04,5.09-11.79,5.09h0c-2.99.12-5.91-.92-8.15-2.89l-.04-.1c-.24-.73-.59-1.42-1.06-2.03-.69-8.08,8.52-11.65,13.51-12.42h0Z"/><path id="Path_15" d="M268.11,80.18l.1.19.04.02c4.36,2.8,11.58,4.67,17.95,4.67h0c4.2,0,11.52-.85,13.43-6.64v-.02c.05-2-.73-3.93-2.15-5.33-2.76-2.9-8.25-4.69-14.32-4.69-7.69,0-15.98,3.03-16.11,9.75v.04l.06.04c.46.59.79,1.26,1,1.97ZM283.16,68.64c5.98,0,11.42,1.79,14.14,4.61,1.34,1.36,2.09,3.2,2.07,5.11-1.87,5.6-9.07,6.43-13.16,6.43h0c-6.31,0-13.43-1.85-17.79-4.61l-.04-.13c-.23-.72-.58-1.39-1.04-1.99.14-6.48,8.3-9.42,15.82-9.42h0Z"/><path id="Path_16" d="M74.93,212.71c-1.54,6.74-3.14,13.76-2.49,24.22,5.13,18.2,11.19,31.94,18.48,42.05,1.83,2.66,3.99,5.07,6.43,7.18,4.09,3.19,9.13,4.92,14.32,4.92h0c5.21,0,9.68-1.83,12.55-5.21,3.21-3.71,4.38-9.07,3.51-15.9-.69-4.01-1.76-7.94-3.21-11.75-1.45-3.78-2.52-7.7-3.2-11.7-1.97-14.84,4.24-30.22,16.53-41.11,5.02-4.32,10.29-8.34,15.78-12.04,5.93-4,11.58-8.39,16.91-13.16,8.36-7.74,17.81-16.54,19.37-29.8v-.06c-.99-6.27-2.9-12.72-9.88-17.33-4.08-2.67-8.89-4.02-13.77-3.86-4.87.17-9.72.78-14.48,1.82-5.58,1.19-11.25,1.87-16.96,2.03-1.44,0-2.86-.06-4.22-.17-3.36-.46-6.69-1.15-9.96-2.07-4.95-1.23-10.08-2.51-14.14-2.51-.78,0-1.56.06-2.33.19-5.48.85-11.28,5.71-15.72,9.84-7.4,6.87-14.38,14.03-15.54,19.92-.37,2.88-.38,5.79-.02,8.68.43,3.66,1.13,7.28,2.09,10.83,1.44,5.93,2.94,12.08,2.21,21.89-.41,4.42-1.17,8.8-2.28,13.1ZM75.26,177.66c-.95-3.54-1.64-7.15-2.07-10.79-.36-2.85-.36-5.74,0-8.59,1.14-5.83,8.09-12.95,15.46-19.8,4.42-4.09,10.18-8.9,15.58-9.78.76-.11,1.53-.15,2.29-.15,4.03,0,9.15,1.26,14.07,2.51,3.28.9,6.61,1.59,9.98,2.05,1.38.13,2.8.19,4.26.19,5.72-.15,11.41-.85,17-2.07,4.75-1.02,9.59-1.63,14.44-1.81,4.83-.15,9.6,1.18,13.65,3.82,6.88,4.56,8.74,10.91,9.74,17.16-1.56,13.14-10.95,21.87-19.27,29.61-5.33,4.74-10.98,9.11-16.9,13.1-5.51,3.72-10.79,7.76-15.82,12.1-12.37,10.94-18.6,26.4-16.63,41.34.69,4.01,1.77,7.94,3.23,11.75,1.45,3.78,2.52,7.71,3.18,11.71.89,6.74-.29,12.02-3.45,15.69-2.82,3.3-7.18,5.11-12.33,5.11h0c-5.13-.01-10.11-1.72-14.16-4.86-2.42-2.1-4.55-4.5-6.37-7.14-7.28-10.07-13.31-23.79-18.44-41.94-.65-10.38.95-17.37,2.51-24.08,1.11-4.32,1.86-8.72,2.25-13.16.73-9.86-.75-16.02-2.21-21.98h0Z"/><path id="Path_17" d="M91.89,212.01c.29,1.22.47,2.47.69,3.84.73,4.77,1.6,10.23,6.39,12.8l.04.02h.04c5.82-.41,9.49-5.73,13.39-11.33,1.4-1.99,2.82-4.07,4.36-5.87,8.58-10.15,18.25-16.87,27.6-23.39,6.57-4.59,12.8-8.93,18.3-14.17,1.65-.98,3.05-2.33,4.1-3.95.84-1.2,1.83-2.29,2.94-3.24,5.03-6.44,6.69-13.97,4.24-19.16-1.54-3.28-5.4-7.2-15.01-7.2-1.3,0-2.66.08-4.06.21-3.08.31-6.63.98-10.35,1.68-4.14.77-8.82,1.64-13.55,2.16-.99.1-1.93.19-2.86.31-12.62,1.29-20.22,2.12-27.81,11.25-5.39,6.54-8.28,14.61-9.09,25.45-.34,7.07-.25,14.15.25,21.21.18,3.36.34,6.54.38,9.38ZM91.55,181.44c.79-10.77,3.67-18.78,9.01-25.26,7.5-9.11,14.65-9.84,27.63-11.21.93-.08,1.87-.19,2.86-.29,4.75-.52,9.43-1.39,13.57-2.16,3.71-.68,7.24-1.37,10.32-1.66,1.34-.15,2.69-.22,4.04-.23,9.47,0,13.27,3.84,14.79,7.06,2.37,5.1.75,12.51-4.2,18.82-1.12.96-2.12,2.06-2.98,3.26-1,1.6-2.37,2.93-4,3.88l-.04.02c-5.5,5.27-11.73,9.61-18.3,14.18-9.37,6.54-19.03,13.26-27.65,23.45-1.55,1.88-3.01,3.84-4.36,5.87-3.85,5.54-7.49,10.79-13.17,11.21-4.66-2.51-5.46-7.64-6.23-12.58-.22-1.37-.4-2.64-.67-3.84-.04-2.82-.22-5.98-.39-9.34-.51-7.05-.58-14.13-.24-21.19Z"/><path id="Path_18" d="M267.3,178.91c2.07,19.71,4.02,38.35,19.05,51.68,10.1,8.95,26.43,18.47,42.07,18.47h0c9.53,0,17.36-3.61,23.29-10.75,5.11-6.21,7.75-13.45,10.77-21.85.32-.93.67-1.87,1.01-2.84.61-1.62,1.2-3.21,1.79-4.79,3.37-9.09,6.55-17.64,7.34-24.76,1.77-15.67-3.79-21.98-10.67-28.08-10.71-9.48-24.65-10.19-39.41-10.96-3.49-.19-7.63-.56-11.99-.98-6.88-.64-14.64-1.35-21.16-1.35-7.02,0-11.62.81-14.12,2.51-10.47,7.1-9.21,24.34-8.21,31.4l.24,2.3ZM275.41,145.45c2.46-1.68,7.02-2.49,13.98-2.49,6.49,0,14.28.73,21.14,1.37,4.36.39,8.5.79,11.99.96,14.73.75,28.62,1.47,39.25,10.9,6.84,6.04,12.33,12.31,10.59,27.85-.79,7.06-3.98,15.61-7.32,24.68-.59,1.6-1.2,3.19-1.77,4.81-.36.93-.71,1.89-1.04,2.84-3.02,8.36-5.64,15.59-10.75,21.77-5.84,7.08-13.59,10.67-23.06,10.67-15.54,0-31.85-9.53-41.89-18.45-14.97-13.22-16.9-31.82-18.95-51.47l-.26-2.32c-1.01-7.02-2.23-24.12,8.09-31.12h0Z"/><path id="Path_19" d="M281.66,182.14c1.8,17.02,3.35,31.71,16.82,42.61,6.25,5.09,17.54,11.02,28.72,11.02h0c5.56,0,10.24-1.47,13.95-4.4,10.51-8.32,15.07-25.63,15.8-37.92.83-14.2-4.26-26.67-13.61-33.31-8.58-6.12-19.49-6.74-31.07-7.39-2.54-.12-5.05-.27-7.57-.27-7.26,0-16.23.93-20.81,8.18-2.64,5.5-2.47,11.96-2.29,18.18.02,1.12.04,2.2.06,3.3ZM284.14,160.79c4.5-7.1,13.36-8.03,20.57-8.03,2.52,0,5.01.12,7.57.29,11.5.64,22.39,1.22,30.93,7.31,9.25,6.6,14.3,18.99,13.47,33.08-.71,12.24-5.26,29.47-15.7,37.73-3.95,2.99-8.82,4.53-13.77,4.36h0c-11.1,0-22.33-5.94-28.58-11-13.35-10.83-14.83-24.78-16.67-42.4-.02-1.08-.04-2.16-.1-3.28-.14-6.2-.31-12.62,2.29-18.05h0Z"/><path id="Path_20" d="M116.21,179.42l.06.04c.41.3.78.65,1.1,1.04.39.48.85.88,1.38,1.21l.02.02h.06c8.34-1.7,16.16-5.35,22.82-10.65,2.54-2.05,5.5-4.86,6.09-8.36l.02-.06-.04-.06c-.38-.51-.8-.99-1.26-1.43-.34-.33-.67-.64-.97-1l-.02-.06h-.06c-1.2-.13-2.4-.19-3.61-.18-6.69,0-15.82,2.07-21.3,7.87-2.96,3.1-4.51,7.29-4.28,11.58v.06ZM120.69,167.97c5.4-5.75,14.44-7.78,21.1-7.78,1.18,0,2.36.06,3.53.18.3.35.63.69.93,1,.45.4.86.85,1.2,1.35-.59,3.4-3.49,6.14-5.96,8.13-6.61,5.27-14.37,8.9-22.66,10.6-.47-.3-.89-.68-1.24-1.12-.34-.38-.7-.74-1.1-1.06-.22-4.19,1.3-8.28,4.2-11.31h0Z"/><path id="Path_21" d="M309.82,217.01c4.19,2.88,9.12,4.48,14.2,4.61h0c6,.07,11.64-2.89,14.97-7.89,8.52-12.01,4.67-34.74-7.55-44.18-4.88-3.76-10.9-5.76-17.06-5.67-1.95,0-3.9.17-5.82.52-8.54,1.47-12.98,8.38-12.84,19.94.12,8.78,2.13,24.72,14.1,32.67ZM308.6,164.67c1.91-.33,3.84-.49,5.78-.5,6.11-.09,12.06,1.88,16.92,5.58,5.76,4.48,9.92,12.14,11.4,21.07,1.46,8.71-.02,17.2-3.95,22.77-3.28,4.91-8.82,7.82-14.73,7.74h0c-5.03-.12-9.91-1.7-14.06-4.55-11.85-7.87-13.83-23.7-13.95-32.44-.17-11.41,4.22-18.21,12.59-19.67h0Z"/><path id="Path_22" d="M34.14,294.48c1,1.99,2.16,3.9,3.47,5.71l.06.06c1.76,2.34,4.76,6.25,8.94,5.6,4.5-.68,10.45-6.16,9.37-14.21-.85-6.43-5.07-11.14-13.29-14.82-.53-.23-1.05-.48-1.6-.71-3.95-1.7-7.71-3.32-9.43-7.18-1.78-7.64-2.13-17.93-2.51-28.87-.3-9.05-.63-18.43-1.83-26.42-2.29-15.42-10-24.59-23.57-28.1-1.23-.34-2.49-.6-3.75-.79v.29c1.24.18,2.48.44,3.69.77,13.45,3.45,21.09,12.58,23.37,27.87,1.18,7.99,1.5,17.35,1.83,26.4.37,10.94.73,21.25,2.51,28.95,1.78,3.98,5.58,5.6,9.59,7.33.55.25,1.08.45,1.6.71,8.11,3.61,12.27,8.26,13.1,14.61,1.06,7.87-4.72,13.22-9.13,13.88-4.02.62-6.96-3.2-8.7-5.46l-.06-.06c-1.29-1.8-2.45-3.71-3.45-5.69-3.51-6.5-7.14-13.22-17.53-11.45-4.91.81-10.42,3.48-16.83,8.11v.35c6.45-4.69,11.97-7.39,16.88-8.2,10.2-1.72,13.79,4.92,17.26,11.31Z"/><path id="Path_23" d="M6.74,257.67c6-6.77,9.21-16.77,8.8-27.48-.4-10.32-4.18-19.74-10.1-25.24-1.63-1.21-3.47-2.1-5.43-2.61v.27c1.89.52,3.67,1.38,5.25,2.53,5.88,5.48,9.61,14.84,10.02,25.05.41,10.63-2.78,20.59-8.72,27.31-1.96,2.15-4.16,4.08-6.55,5.75v.33c2.48-1.69,4.74-3.67,6.73-5.91Z"/><path id="Path_24" d="M250.45,259.47c-.39-2-.99-3.96-1.79-5.83-5.72-14.57-19.15-29.84-28.9-38.48-6.7-5.92-12.25-9.38-16.51-10.25-.97-.21-1.95-.32-2.94-.31-11.64,0-25.94,12.12-26.84,22.74.05.53.15,1.05.3,1.56.22.79.31,1.61.29,2.43v.04l.02.02c3.99,9.65,8.67,19,14,27.98,2.13,3.89,4.72,7.5,7.71,10.77,7.4,7.57,20.3,12.89,31.3,12.89h0c6.09,0,11.18-1.58,15.13-4.63,6.61-5.13,9.39-11.5,8.23-18.93ZM227.08,282.74h0c-10.93,0-23.73-5.27-31.1-12.81-2.98-3.25-5.56-6.83-7.69-10.69-5.3-8.96-9.97-18.29-13.96-27.91.03-.84-.08-1.68-.32-2.49-.13-.49-.23-.99-.3-1.49.91-10.5,15.07-22.45,26.59-22.45.97,0,1.94.08,2.9.27,4.22.89,9.74,4.32,16.39,10.21,9.72,8.63,23.1,23.85,28.8,38.37.79,1.86,1.4,3.79,1.8,5.77,1.12,7.33-1.64,13.61-8.18,18.66-3.88,3.01-8.91,4.57-14.94,4.57Z"/><path id="Path_25" d="M224.99,236.15c-5.86-5.48-12.84-9.45-18.26-10.32-.96-.18-1.94-.27-2.92-.27-3.02-.14-5.95,1.03-8.05,3.2-2.33,2.47-3.49,6.35-3.31,10.92,2.37,10.44,4.77,18.93,11.95,24.9,5.04,4,11.27,6.21,17.71,6.29h0c7.46,0,12.64-3.51,14.18-9.59.39-2.05.42-4.16.1-6.23-.89-6.06-5.05-12.95-11.4-18.91ZM236.01,261.19c-1.5,5.98-6.55,9.38-13.9,9.38h0c-6.37-.08-12.54-2.26-17.54-6.21-7.1-5.93-9.47-14.36-11.85-24.74-.18-4.46.97-8.26,3.24-10.71,2.06-2.09,4.92-3.21,7.85-3.07.97,0,1.93.09,2.88.25,11.24,1.85,27.52,16.23,29.45,28.99.31,2.03.26,4.09-.14,6.1Z"/><path id="Path_26" d="M290.38,283.51l-.04-.02-.06-.02c-.71-.1-1.43-.14-2.15-.14-1.59.01-3.18.26-4.7.73-8.58,2.55-17.22,10.17-20.08,17.68-2.03,5.29-1.18,11.14-.37,16.81.75,5.25,1.46,10.17.04,14.51-2.21,6.68-8.07,10.89-13.75,14.96-6,4.32-12.21,8.76-13.73,16.11-.94,5.08.46,10.32,3.81,14.26,4.79,5.83,13.57,9.63,22.35,9.63h0c5.22.16,10.34-1.43,14.56-4.5,2.98-2.3,5.05-5.48,7.22-8.82l.35-.54c2.15-4.36,2.86-9.59,3.63-15.17.54-5.02,1.56-9.98,3.04-14.8,1-2.93,2.05-5.4,3.06-7.74,3.1-7.24,5.76-13.53,4.48-28.95-.74-8.84-2.26-19.57-7.67-23.97ZM293.31,336.31c-1.02,2.39-2.07,4.83-3.06,7.78-1.47,4.85-2.49,9.82-3.04,14.86-.77,5.54-1.5,10.75-3.61,15.07l-.3.5c-2.27,3.49-4.22,6.48-7.18,8.78-3.73,2.9-8.72,4.42-14.4,4.42-8.68,0-17.4-3.74-22.15-9.51-3.29-3.89-4.67-9.04-3.75-14.05,1.5-7.22,7.4-11.43,13.61-15.9,5.74-4.11,11.62-8.36,13.85-15.11,1.46-4.42.75-9.38,0-14.63-.83-5.65-1.66-11.48.35-16.69,2.82-7.45,11.38-14.98,19.88-17.52,1.51-.46,3.07-.7,4.64-.7.7,0,1.4.05,2.09.14,5.34,4.36,6.86,14.98,7.59,23.74,1.23,15.35-1.41,21.58-4.51,28.81h0Z"/><path id="Path_27" d="M40.8,338.52c-1.2-1.11-2.77-1.73-4.4-1.74-2.72,0-5.72,1.74-8.28,4.77-3.12,3.74-4.87,8.59-4.34,12.08,1.12,5.25,5.73,9.01,11.1,9.05h0c3.1.05,6.03-1.45,7.81-3.98,3.71-5.23,2.67-16.15-1.89-20.17ZM42.48,358.51c-1.73,2.48-4.58,3.94-7.61,3.88h0c-5.23-.03-9.74-3.7-10.83-8.82-.51-3.38,1.2-8.16,4.3-11.85,2.48-2.97,5.44-4.65,8.05-4.65,1.57,0,3.08.6,4.24,1.66,4.49,3.95,5.47,14.68,1.85,19.78Z"/><path id="Path_28" d="M139.54,375.05c-.24-.42-.42-.86-.55-1.33l-.02-.04-.02-.04c-1.03-.77-2.28-1.19-3.57-1.2-2.08.06-4.05.98-5.42,2.55-1.3,1.4-1.97,3.28-1.85,5.19l.02.04c.79,1.86,2.63,3.05,4.65,3.03h0c3.21,0,7.06-2.84,7.4-6.62v-.04c-.13-.54-.35-1.06-.65-1.54ZM132.78,382.96h0c-1.9.02-3.63-1.1-4.38-2.84-.14-1.83.51-3.63,1.76-4.96,1.33-1.5,3.21-2.39,5.21-2.45,1.21.01,2.38.41,3.35,1.14.14.46.34.91.59,1.33.26.45.46.93.59,1.43-.34,3.63-4.03,6.35-7.12,6.35h0Z"/><path id="Path_29" d="M505.79,5.13c6.43,3.25,13.95,3.58,20.65.91,3.12-1.32,5.87-3.39,7.99-6.04h-.33c-2.06,2.55-4.72,4.53-7.75,5.77-6.62,2.66-14.07,2.35-20.44-.87-2.31-1.21-4.35-2.88-6-4.9h-.36c1.7,2.13,3.82,3.88,6.24,5.13Z"/><path id="Path_30" d="M273.45,16.53c2.56,1.85,4.99,3.82,7.34,5.71,5.7,4.57,11.07,8.84,17,10.88,6.63,3.38,12.97,5.08,19.03,5.08,4.99.01,9.91-1.19,14.34-3.51,13.35-6.87,20.87-21.88,23.75-34.68h-.29c-2.88,12.7-10.32,27.62-23.59,34.43-9.92,5.1-21.08,4.56-33.14-1.58-5.9-2.01-11.26-6.31-16.94-10.87-2.35-1.87-4.79-3.82-7.36-5.69-2.76-2.01-5.62-3.96-8.4-5.83-4.95-3.23-9.72-6.72-14.3-10.46h-.45c4.66,3.84,9.54,7.41,14.6,10.69,2.78,1.89,5.64,3.82,8.4,5.83Z"/><path id="Path_31" d="M369.31,21.74c1.8,4.48,5.78,6.66,12.15,6.66,3.11-.08,6.21-.42,9.27-1.02h.08c.62-.1,1.25-.15,1.89-.15,2.6.14,5.17.65,7.63,1.51,1.28.39,2.64.79,3.94,1.06,1.05.25,2.09.43,3.12.66,4.28.85,8.72,1.74,12.74,3.63,1.58.75,3.2,1.47,4.79,2.16,7.83,3.47,15.92,7.06,21.17,14.03.33.44.61.87.91,1.31,3.67,5.56,6.86,11.54,9.9,17.33,3.36,6.69,7.14,13.16,11.32,19.38,4.16,6,9.76,12.62,15.17,19.03,1.89,2.24,3.65,4.36,5.38,6.43,8.6,10.42,16.71,20.23,31.68,20.23h.02c4.22-.06,8.4-.69,12.45-1.87,12.96-3.57,35.84-12.49,43.67-31.84,2.07-5.12,3.45-12.29,4.91-19.84,1.11-5.71,2.27-11.62,3.73-16.54v-.94c-1.64,5.73-2.96,11.54-3.97,17.41-1.48,7.58-2.86,14.7-4.91,19.8-7.79,19.26-30.59,28.1-43.49,31.67-4.03,1.19-8.2,1.81-12.39,1.87h-.02c-14.83,0-22.92-9.77-31.46-20.15-1.72-2.08-3.51-4.19-5.4-6.41-5.4-6.41-10.99-13.05-15.17-19.01-4.14-6.23-7.9-12.69-11.27-19.36-3.06-5.79-6.25-11.79-9.92-17.35-.28-.44-.61-.91-.93-1.33-5.29-7.01-13.41-10.63-21.26-14.11-1.6-.7-3.23-1.43-4.79-2.16-4.06-1.91-8.5-2.8-12.8-3.67-1.05-.21-2.09-.42-3.12-.64-1.28-.29-2.62-.68-3.92-1.06-2.48-.88-5.08-1.39-7.71-1.54-.64,0-1.29.05-1.92.15l-.12.02c-3.03.59-6.1.92-9.19,1-6.23,0-10.14-2.12-11.89-6.45-1.82-4.46-1.21-12.04-.67-18.74.08-1.02.16-1.97.22-2.91h-.28c-.06.94-.12,1.89-.2,2.89-.55,6.72-1.14,14.34.67,18.84Z"/><path id="Path_32" d="M481.49,8.52c8.05,11.17,22.35,17.81,38.23,17.81,3.83.01,7.66-.4,11.4-1.22,14.12-3.19,18.64-13.05,20.65-25.09h-.27c-.53,3.64-1.49,7.2-2.86,10.61-3.27,7.72-8.86,12.24-17.57,14.22-3.73.82-7.54,1.24-11.36,1.22-15.8,0-30-6.62-38.01-17.7-.96-2.73-1.75-5.52-2.37-8.35h-.28c.63,2.88,1.44,5.71,2.41,8.49l.02.02Z"/><path id="Path_33" d="M404.5,14.35c7.18,1.06,14.04,3.24,20.63,5.35,4.26,1.37,8.68,2.78,13.16,3.88,2.86.7,5.72,1.27,8.26,1.66,2.25.37,4.52.57,6.8.6h0c3.93,0,6.27-.83,7-2.49,2.01-4.42,3.55-14.03,3.63-23.35h-.27c-.08,9.28-1.62,18.83-3.59,23.25-.69,1.54-2.98,2.3-6.77,2.3-2.26-.03-4.52-.22-6.75-.58-2.54-.4-5.38-.96-8.24-1.66-4.48-1.1-8.86-2.51-13.12-3.88-6.63-2.12-13.49-4.32-20.71-5.37-7.1-1.04-12.76-6.02-16.08-14.05h-.3c3.36,8.21,9.12,13.27,16.36,14.35Z"/><path id="Path_34" d="M562.69,7.19c-.37,10.21-.69,19.05-7.32,24.26-6.9,5.46-18.94,7.02-27.75,8.14-.87.12-1.74.25-2.55.35-1.57.21-3.15.31-4.73.31h0c-8.96,0-18.52-3.09-27.77-6.06-8.27-2.64-16.81-5.4-24.81-5.87h-.02l-.02.02c-4.56,1.33-5.7,6.31-5.25,10.52,1.3,16.46,6.96,29.93,19.59,46.51,2.53,3.32,4.93,6.71,7.22,9.98,3.94,5.52,7.63,10.77,11.95,15.71,5.94,7.19,14.81,11.31,24.14,11.19h0c11.08,0,23.53-5.27,34.18-14.51,10.97-12.16,12.62-28.27,13.37-43.73.06-1.2.08-2.45.12-3.8.16-6.21.34-13.95,3.33-17.77,2.54-3.16,5.53-5.93,8.86-8.24v-.33c-3.43,2.34-6.49,5.18-9.09,8.43-3.02,3.86-3.2,11.64-3.39,17.89-.04,1.35-.06,2.61-.12,3.8-.73,15.4-2.37,31.48-13.28,43.56-10.59,9.17-22.96,14.44-33.98,14.44-9.24.1-18.04-3.98-23.93-11.1-4.24-5.04-8.22-10.29-11.92-15.73-2.29-3.26-4.69-6.62-7.22-9.96-12.6-16.54-18.26-29.99-19.53-46.38-.45-4.07.63-8.92,5.03-10.21,7.93.48,16.45,3.2,24.7,5.85,9.27,2.97,18.84,6.06,27.85,6.06h0c1.59,0,3.19-.11,4.77-.31.81-.12,1.68-.23,2.56-.33,8.82-1.14,20.93-2.72,27.85-8.2,6.75-5.31,7.08-14.17,7.46-24.49.08-2.14.14-4.36.28-6.58.04-.21.04-.4.06-.6h-.28c0,.21-.02.37-.02.58-.16,2.24-.24,4.44-.32,6.6Z"/><path id="Path_35" d="M566.91,144.68l-.04.02c-1.87,1.52-4.69,3.82-4.38,6.99l.02.06.04.04c.58.47,1.12,1,1.6,1.58l.02.04h.04c3.43.71,6.92,1.07,10.43,1.08h0c3.56,0,7.11-.38,10.59-1.12v-.29c-6.89,1.47-14.01,1.49-20.91.06-.47-.55-.99-1.07-1.54-1.54-.26-2.99,2.35-5.12,4.26-6.7l.04-.04c3.31-2.68,7.63-4.71,12.23-6.85,1.99-.91,3.97-1.87,5.92-2.87v-.31c-1.99,1.02-4.04,1.99-6.05,2.9-4.6,2.16-8.96,4.2-12.27,6.94Z"/><path id="Path_36" d="M578.71,2.35c.3,3.84,3.35,7.24,6.51,7.24v-.29c-3.04,0-5.94-3.26-6.23-6.97-.08-.77-.09-1.55-.02-2.33h-.26c-.07.78-.07,1.57,0,2.35Z"/><path id="Path_37" d="M540.88,53.74c-1.87.01-3.73.21-5.56.58-4.14.83-8.56,2.16-13.27,3.57-5.22,1.69-10.54,3.07-15.92,4.15-4.81.89-6.9,3.07-6.35,6.7v.02c1.69,3.89,3.15,7.89,4.36,11.95,2.96,9.34,6.05,18.99,13.53,24.01,3.7,2.4,8.03,3.64,12.43,3.59h0c7.69-.09,15.05-3.16,20.53-8.57,4.42-4.44,7.65-11.66,8.64-19.32,1.06-8.07-.53-15.73-4.36-21-2.56-3.51-7.95-5.69-14.04-5.69ZM550.44,99.54c-5.42,5.36-12.7,8.41-20.33,8.51-4.36.06-8.64-1.18-12.29-3.57-7.42-4.96-10.47-14.55-13.45-23.85-1.19-4.07-2.63-8.06-4.32-11.96-.51-3.49,1.42-5.52,6.12-6.35,5.4-1.1,10.73-2.49,15.98-4.17,4.66-1.41,9.11-2.74,13.21-3.57,1.82-.37,3.66-.55,5.52-.56,6.01,0,11.3,2.14,13.81,5.58,8.34,11.42,4.48,31.2-4.26,39.93h0Z"/><path id="Path_38" d="M230.16,177.33c1.38,2.68,2.8,5.44,3.98,8.18,1.05,2.34,2.11,4.81,3.14,7.22,6.31,14.67,12.82,29.87,22.31,42.05,3.84,4.72,7.94,9.22,12.27,13.49,3.88,3.77,7.55,7.76,10.98,11.95,1.46,1.89,2.8,3.86,4.02,5.91,2.62,4.15,5.09,8.07,9.21,10.77l.04.02,1.18-.08c15.74-.95,29.35-1.79,43.85-4.48,10.3-1.91,17.61-3.96,21.64-6.08,8.34-4.38,10.61-12.2,13.04-20.5.26-.85.53-1.72.77-2.6,3.53-11.75,8.64-23.66,21.89-31.11l.04-.06c.1-.12.2-.25.32-.37,2.74-1.48,5.48-2.97,8.23-4.46,4.79-2.57,9.74-5.27,14.62-7.84,2.11-1.12,4.2-2.28,6.27-3.38,3.2-1.76,6.53-3.57,9.82-5.25,2.22-1.19,4.31-2.59,6.27-4.17.49-.37.99-.77,1.48-1.14,1.88-1.5,3.95-2.73,6.16-3.67,4.34-1.74,9.15-1.95,13.77-2.18,4.06-.01,8.11-.53,12.05-1.54,3.71-1.1,6.29-2.07,8.44-5.31,6.95-10.38,3.43-18.14-2.27-27.95-6-10.29-13.3-18.33-21.72-23.85-1.51-.95-3.09-1.8-4.73-2.53-1.81-.81-3.55-1.77-5.19-2.88-1.89-1.33-3.71-2.78-5.48-4.19-1.44-1.14-2.9-2.32-4.4-3.44-6.11-4.5-13.41-9.51-21.6-12.45-2.64-.83-5.4-1.22-8.17-1.16-2.22,0-4.43.19-6.61.6-2.39.57-4.68,1.54-6.75,2.86-.91.52-1.89,1.06-2.88,1.56-1.1.5-2.23.89-3.33,1.29-1.46.46-2.87,1.06-4.22,1.79-3.33,1.87-6.55,4.05-9.66,6.17-3,2.03-6.1,4.13-9.29,5.96-15.05,8.66-27.95,13.53-40.51,15.4-3.74.56-7.52.85-11.3.85-4.66,0-9.3-.43-13.88-1.31-3.53-.66-7.16-1.7-10.69-2.72-6.19-1.76-12.56-3.59-18.8-3.59-3.24-.04-6.46.51-9.49,1.64-5.96,2.24-11.28,6.89-16.92,11.83-2.88,2.51-5.84,5.1-9.07,7.57-.73.54-1.64,1.18-2.68,1.91-2.29,1.66-5.15,3.69-7.61,5.81-4.56,4.01-5.82,7.66-4.32,12.66,1.53,4.44,3.46,8.74,5.75,12.85ZM228.88,152.05c2.46-2.14,5.29-4.15,7.61-5.81,1.03-.73,1.93-1.37,2.66-1.93,3.24-2.45,6.23-5.06,9.1-7.58,5.6-4.92,10.89-9.55,16.82-11.79,3.01-1.11,6.2-1.66,9.41-1.64,6.21,0,12.55,1.83,18.72,3.61,3.55,1.02,7.18,2.06,10.73,2.74,4.59.86,9.25,1.29,13.91,1.29,3.79,0,7.57-.28,11.32-.85,12.64-1.87,25.54-6.79,40.63-15.44,3.18-1.83,6.29-3.94,9.31-5.96,3.08-2.12,6.33-4.28,9.61-6.14,1.34-.71,2.74-1.3,4.18-1.76,1.14-.38,2.26-.82,3.35-1.33,1.02-.48,1.99-1.04,2.9-1.53,2.05-1.31,4.31-2.27,6.67-2.84,2.17-.41,4.37-.62,6.57-.62,2.74-.04,5.48.36,8.09,1.18,8.13,2.93,15.46,7.93,21.52,12.43,1.48,1.1,2.98,2.26,4.4,3.42,1.78,1.39,3.61,2.84,5.48,4.19,1.67,1.11,3.43,2.08,5.26,2.9,1.61.72,3.17,1.56,4.67,2.51,8.4,5.52,15.68,13.51,21.64,23.74,5.66,9.76,9.15,17.45,2.29,27.68-2.11,3.18-4.64,4.11-8.27,5.19-3.87,1.18-8.01,1.35-11.99,1.56-4.67.19-9.47.41-13.89,2.18-2.22.96-4.3,2.2-6.19,3.7-.53.37-1.01.77-1.5,1.14-1.94,1.57-4.02,2.97-6.21,4.17-3.33,1.66-6.63,3.46-9.84,5.21-2.05,1.12-4.18,2.3-6.29,3.4-4.89,2.6-9.84,5.25-14.6,7.85-2.76,1.51-5.5,3.01-8.26,4.48l-.04.02c-.12.12-.24.25-.34.39-13.3,7.54-18.41,19.49-21.96,31.28-.26.87-.53,1.74-.77,2.6-2.41,8.24-4.71,16.02-12.92,20.32-4.04,2.14-11.28,4.19-21.56,6.08-14.48,2.7-28.09,3.53-43.83,4.48l-1.08.06c-4.06-2.66-6.51-6.52-9.11-10.64-1.23-2.05-2.57-4.03-4.02-5.94-3.44-4.19-7.11-8.19-10.99-11.98-4.33-4.27-8.42-8.77-12.25-13.49-9.47-12.16-16-27.33-22.29-41.96-1.03-2.41-2.09-4.88-3.12-7.22-1.22-2.74-2.64-5.52-4.01-8.2-2.27-4.11-4.18-8.4-5.72-12.83-1.46-4.86-.26-8.43,4.22-12.33h0Z"/><path id="Path_39" d="M254.16,196.15l.53,2.05c5.5,20.92,13.65,33.33,30.12,45.68l.38.31c8.86,6.64,16.53,12.41,25.05,15.17,4.87,1.49,9.95,2.22,15.05,2.14h.02c7.4,0,14.95-1.33,20.16-3.53,13.77-5.83,18.82-18.16,24.62-32.48,7.63-18.74,21-42.98,41.26-52.07,3.67-1.64,7.22-1.97,10.97-2.32,1.44-.12,2.94-.29,4.46-.5,5.74-.83,12.15-2.03,19.63-3.69,1.05-.21,2.11-.46,3.17-.71,5.48-1.24,12.72-4.77,15.09-10.59,1.77-4.29,1.5-8.22-.71-11.64-6.61-10.17-29.39-13.66-38.74-13.68h-.18c-4.17.07-8.33.36-12.47.87-2.33.25-4.73.52-7.04.66-3.99.3-7.82,1.67-11.1,3.96-4.1,2.63-8.89,3.97-13.75,3.86-4.1-.13-8.18-.58-12.21-1.35-1.28-.23-2.62-.44-3.95-.64-6.21-.87-12.49-1.27-18.76-1.21-4.5,0-9.05.15-13.43.29-4.36.13-8.84.27-13.27.27-6.87.09-13.73-.43-20.51-1.56-1.74-.33-3.63-.79-5.64-1.27-4.3-1.06-9.17-2.26-14.05-2.26-2.5-.03-4.99.32-7.38,1.04-11.3,3.49-20.75,17.62-22.49,28.66-.64,4.43-.54,8.93.29,13.32,1.3,7.56,3.04,14.18,4.89,21.19ZM249.27,161.68c1.72-10.96,11.08-24.97,22.27-28.43,2.38-.71,4.84-1.06,7.32-1.04,4.87,0,9.71,1.18,14,2.24,1.99.5,3.89.96,5.66,1.29,6.79,1.14,13.67,1.66,20.55,1.56,4.42,0,8.9-.12,13.27-.27,4.38-.14,8.92-.29,13.43-.29,6.26-.06,12.52.34,18.72,1.21,1.34.23,2.68.44,3.96.64,4.04.76,8.14,1.21,12.25,1.33,4.92.12,9.76-1.22,13.91-3.86,3.23-2.26,7.02-3.62,10.95-3.92,2.31-.18,4.7-.41,7.04-.66,4.13-.51,8.29-.8,12.45-.87h.18c9.31.02,31.95,3.47,38.5,13.53,2.17,3.34,2.41,7.18.69,11.41-2.33,5.71-9.47,9.17-14.89,10.42-1.04.23-2.09.46-3.14.71-7.48,1.64-13.9,2.84-19.63,3.67-1.5.21-3,.35-4.44.48-3.77.37-7.36.71-11.05,2.37-20.36,9.11-33.75,33.41-41.42,52.21-5.78,14.24-10.79,26.54-24.46,32.31-5.19,2.2-12.68,3.51-20.06,3.51h-.02c-5.07.07-10.12-.64-14.97-2.1-8.48-2.74-16.11-8.49-24.99-15.15l-.39-.31c-16.39-12.31-24.52-24.66-30-45.51l-.53-2.05c-1.87-7.01-3.61-13.66-4.87-21.17-.84-4.37-.93-8.84-.29-13.24Z"/><path id="Path_40" d="M560.44,191.07l-.04.06c-.63,1.16-1.24,2.16-1.78,3.03-2.11,3.02-3.36,6.56-3.63,10.23-.35,4.13-.39,8.28-.12,12.41.35,4.91.21,9.84-.42,14.71-2.8,17.39-16.33,35.32-31.48,41.69-1.57.69-3.19,1.24-4.85,1.66-1.02.19-2.06.29-3.1.31h0c-8.9,0-10.95-8.97-12.92-17.62-.46-1.93-.91-3.92-1.44-5.77-2.03-7.12-4.77-11.83-8.84-15.29-4.12-3.45-9.65-5.69-17.95-7.26-3.12-.6-6.29-.91-9.47-.93-5.78,0-11.28,1.1-18.44,3.67-.32.1-.61.21-.91.33-3.98,1.39-7.36,2.59-9.76,6.39-4.58,7.35-8.32,19.22-6.55,27.62,1.72,8.24,7.57,9.9,13.73,11.6,1.2.33,2.39.68,3.61,1.06,1.63.53,3.21,1.21,4.7,2.05,10.42,5.88,21.26,10.98,32.44,15.27,10.87,4.3,16.14,13.76,21.24,22.85,4.97,8.84,10.08,17.99,20.28,22.35,1.65.69,3.42,1.03,5.21,1.02h0c2.54-.06,5.05-.55,7.42-1.45,7.28-2.6,13.79-10.59,18.66-17.25,7.63-10.46,17.1-23.47,28.32-31.84.3-.21.59-.42.89-.62v-.35c-.34.25-.69.5-1.05.77-11.24,8.36-20.73,21.4-28.38,31.88-4.83,6.64-11.32,14.59-18.52,17.17-2.35.88-4.83,1.35-7.34,1.41h0c-1.75.02-3.49-.31-5.11-.98-10.1-4.34-15.21-13.43-20.14-22.25-5.11-9.15-10.45-18.62-21.4-22.95-11.16-4.29-21.98-9.39-32.39-15.27-1.51-.86-3.11-1.55-4.77-2.05-1.17-.39-2.41-.73-3.59-1.06-6.1-1.72-11.86-3.34-13.55-11.41-1.74-8.34,1.97-20.11,6.53-27.42,2.31-3.69,5.68-4.92,9.59-6.27.3-.12.61-.23.93-.33,7.12-2.6,12.6-3.67,18.34-3.67,3.15.02,6.3.33,9.39.93,16.01,3.01,22.72,8.65,26.61,22.37.53,1.83.99,3.82,1.42,5.73,2.01,8.78,4.1,17.83,13.2,17.83h0c1.05,0,2.11-.1,3.14-.29,1.68-.41,3.33-.97,4.91-1.68,7.51-3.15,14.83-9.17,20.65-16.95,5.59-7.33,9.36-15.88,11.01-24.95.61-4.89.75-9.84.41-14.76-.27-4.13-.22-8.27.14-12.39.25-3.64,1.49-7.14,3.59-10.13.51-.85,1.11-1.85,1.79-3.01,5.27-4.42,11.95-6.81,18.82-6.72,1.93,0,3.86.17,5.76.5v-.29c-1.9-.31-3.83-.47-5.76-.48-6.95-.09-13.7,2.32-19.02,6.79Z"/><path id="Path_41" d="M570.13,211.55c-1.4,4.17-1.66,8.49-1.97,13.47-.1,1.72-.2,3.53-.39,5.48-.65,7.55-2.07,15.34-3.47,22.87-1.36,7.45-2.66,14.49-2.9,20.03v.06l.06.04c.78.72,1.78,1.17,2.84,1.27.2,0,.4-.02.59-.08l.04-.02c2.72-1.6,5.62-3.05,8.44-4.46,4.1-1.92,8.06-4.13,11.85-6.62v-.33c-3.81,2.52-7.81,4.76-11.95,6.7-2.82,1.41-5.74,2.86-8.46,4.48-.15.03-.31.05-.47.04-.98-.09-1.92-.49-2.66-1.14.24-5.5,1.52-12.49,2.88-19.92,1.4-7.53,2.84-15.32,3.49-22.89.18-1.95.28-3.76.37-5.48.3-4.98.57-9.26,1.97-13.41,1.91-5.71,6.55-9.42,11.82-9.42,1.01,0,2.02.14,3,.39v-.27c-.98-.25-1.99-.37-3-.37-5.37,0-10.12,3.76-12.09,9.59Z"/><path id="Path_42" d="M465.25,249.01c-5.11,0-10.28,2.57-10.33,8.32v.04c1.58,5.64,9.23,12.52,15.88,12.52h0c3.94.09,7.34-2.78,7.91-6.68.46-3.19-.33-6.43-2.21-9.05-2.27-3.15-6.61-5.15-11.26-5.15ZM478.45,263.14c-.34,2.14-1.56,4.03-3.37,5.23-1.27.84-2.76,1.28-4.28,1.25-6.55,0-14.06-6.75-15.62-12.29.06-5.56,5.09-8.03,10.06-8.03,4.56,0,8.8,1.91,11.05,5.02,1.82,2.56,2.6,5.72,2.15,8.82h0Z"/><path id="Path_43" d="M554.41,283.48l-.06-.02c-.51-.19-1.04-.28-1.58-.27-2.29,0-4.77,1.48-7.14,2.89-.89.52-1.8,1.06-2.7,1.52-.51.27-1.01.52-1.56.79-7.83,3.92-18.54,9.32-17.79,22.12,1.07,3.98,4.32,8.01,9.15,8.01h0c.46,0,.92-.05,1.38-.12,8.76-3.71,14-14.11,17.61-22.81l.26-.62c1.62-3.9,3.45-8.28,2.45-11.42l-.02-.06ZM551.74,294.84l-.26.64c-3.59,8.61-8.8,18.99-17.45,22.64-.43.06-.86.1-1.3.1h0c-4.66,0-7.83-3.92-8.88-7.76-.75-12.6,9.9-17.93,17.65-21.83.53-.27,1.07-.52,1.56-.79.89-.44,1.8-1,2.72-1.52,2.34-1.41,4.77-2.84,7-2.84.49,0,.97.07,1.44.21.91,3.03-.89,7.35-2.47,11.15Z"/><path id="Path_44" d="M458.17,381.71c-2.58-2.43-5.17-3.69-7.69-3.69-5.94,0-9.9,6.95-10.73,13.8-.63,5.14-.5,10.34.38,15.44.85,4.55,2.64,6.83,6.33,8.14,1,.34,2.03.61,3.06.81,1.74.39,3.51.6,5.29.62h0c4.28,0,7.4-1.52,9.29-4.5,2.17-3.42,1.83-11.37,1.28-15.54-.66-5.69-3.2-10.99-7.22-15.07ZM463.87,412.17c-1.83,2.9-4.89,4.36-9.05,4.36-1.76-.01-3.51-.21-5.23-.6-1.03-.2-2.05-.47-3.04-.81-3.63-1.27-5.29-3.4-6.12-7.93-.9-5.06-1.03-10.22-.39-15.32.81-6.74,4.67-13.57,10.45-13.57,2.43,0,4.97,1.2,7.5,3.61,3.97,4.03,6.47,9.26,7.12,14.88.51,3.86.91,12.02-1.24,15.38h0Z"/><path id="Path_45" d="M28.63,474.23c2.6-.48,4.79-1.04,6.92-1.55,2.6-.64,5.05-1.27,8.21-1.77,2.9-.44,5.96-.66,8.95-.89,6.67-.44,13.57-.91,19.45-4.07,7.4-3.97,8.18-14.05,5.64-22.29-4.28-13.97-9.8-23.62-16.88-29.51-2.77-2.37-5.41-4.9-7.91-7.56-5.09-5.17-10.34-10.52-17.18-13.34-5.55-2.15-11.24-3.92-17.02-5.31-3.51-.93-7.12-1.91-10.55-2.99-1.6-.5-3.35-1.14-5.17-1.85-.99-.37-2.03-.75-3.08-1.12v.29c1.01.37,2.01.74,2.98,1.1,1.85.68,3.59,1.35,5.19,1.85,3.45,1.08,7.06,2.05,10.55,2.97,5.78,1.41,11.46,3.19,17.02,5.31,6.78,2.82,12.01,8.16,17.06,13.28,2.52,2.66,5.17,5.19,7.95,7.57,7.04,5.85,12.51,15.46,16.77,29.41,2.49,8.11,1.76,18.05-5.5,21.92-5.84,3.13-12.7,3.61-19.35,4.09-2.98.19-6.06.42-8.96.87-3.18.52-5.76,1.14-8.26,1.76-2.11.54-4.28,1.08-6.88,1.56-4.77.87-9.61,1.54-14.32,2.16-4.95.68-9.78,1.35-14.26,2.2v.29c4.48-.87,9.31-1.54,14.3-2.2,4.71-.65,9.56-1.29,14.33-2.18Z"/><path id="Path_46" d="M22.5,457.44c6.34-1.67,12.56-3.79,18.6-6.33,5.98-2.66,12.05-5.77,14.75-12.04,3.49-8.18.08-17-9.13-23.53-1.6-1.14-3.1-2.26-4.58-3.36-6.17-4.63-11.99-8.99-20.38-10.65-7.19-1.17-14.46-1.8-21.75-1.89v.29c7.27.05,14.53.68,21.7,1.87,8.32,1.66,14.12,6,20.26,10.6,1.48,1.1,3,2.24,4.58,3.36,9.11,6.48,12.48,15.15,9.03,23.18-2.64,6.17-8.66,9.28-14.58,11.89-6.04,2.54-12.25,4.66-18.58,6.33-3.2.91-6.53,1.89-9.78,2.95-4.14,1.29-8.36,2.31-12.63,3.06v.29c4.3-.75,8.55-1.78,12.72-3.07,3.22-1.06,6.55-2.03,9.78-2.95Z"/><path id="Path_47" d="M20.53,490.46c6.3.38,12.61.32,18.9-.19,5.45-.65,10.86-1.66,16.19-3.01,1.28-.27,2.54-.58,3.83-.85.95-.23,1.89-.44,2.86-.64,9.78-2.14,19.9-4.32,28.13-10.07,9.59-6.66,10.85-20.65,6.47-30.3-4-8.84-10.69-15.84-17.16-22.6-5.38-5.58-10.93-11.37-14.91-18.22-1.82-2.49-3.33-4.9-4.79-7.22-4.71-7.47-8.42-13.36-18.3-15.73-19.03-4.55-35.46-8.47-38.52-27.87-1.07-6.87.41-12.25,1.83-17.43,1.14-4.13,2.21-8.03,1.97-12.43l-.02-.06-.04-.02c-.51-.48-.99-.98-1.46-1.48-.62-.69-1.29-1.33-2.01-1.91l-.04-.04h-.06c-1.15.07-2.29.24-3.41.5v.27c1.12-.24,2.25-.4,3.39-.48.68.57,1.32,1.19,1.92,1.85.47.48.93,1,1.44,1.43.24,4.36-.81,8.22-1.95,12.29-1.42,5.23-2.9,10.63-1.83,17.56,3.08,19.59,19.59,23.53,38.72,28.1,9.78,2.32,13.47,8.2,18.11,15.61,1.46,2.35,3,4.73,4.81,7.22,3.98,6.85,9.56,12.66,14.93,18.28,6.45,6.75,13.14,13.7,17.14,22.5,4.3,9.57,3.1,23.37-6.39,29.99-8.23,5.68-18.29,7.91-28.03,10-.97.21-1.92.44-2.88.62-1.28.29-2.56.58-3.83.89-5.32,1.32-10.72,2.32-16.17,2.99-6.27.51-12.57.57-18.84.19-7.2-.25-14.02-.5-20.55.52v.29c6.51-1.02,13.35-.77,20.53-.54Z"/><path id="Path_48" d="M209.98,427.62c.84.37,1.64.82,2.39,1.35,2.9,2.27,5.47,4.94,7.63,7.93,4.24,5.54,7.19,11.96,8.64,18.78,2.37,10.27,8.66,14.34,18.74,17.91,5.94,2.07,12.19,3.13,18.48,3.14,3.11,0,6.22-.28,9.29-.83,10.87-1.99,17.85-8.71,19.13-18.51.28-2.03.65-4.17,1.02-6.23,1.48-8.3,3-16.89-1.71-24.55-3.85-6.23-11.14-7.1-18.44-7.1-1.4,0-2.84.04-4.18.06-1.34.04-2.72.08-4.02.08-2.09.02-4.18-.11-6.25-.39-5.82-.95-11.62-2.41-17.18-3.82-9.23-2.3-17.93-4.52-26.63-4.52-1.8,0-3.61.11-5.4.31-2.21.27-4.2,2.22-5.4,5.25-1.09,2.82-1.42,6.6.33,8.76,1.02,1.02,2.22,1.84,3.56,2.39ZM206.37,416.58c1.14-2.93,3.06-4.82,5.15-5.06,1.79-.2,3.58-.3,5.38-.31,8.68,0,17.34,2.18,26.55,4.5,5.6,1.41,11.38,2.86,17.22,3.8,2.08.31,4.18.44,6.29.39,1.3,0,2.68-.02,4.02-.04,1.36-.04,2.78-.06,4.18-.06,7.22,0,14.42.83,18.19,6.95,4.65,7.55,3.14,16.1,1.68,24.34-.37,2.08-.75,4.21-1.01,6.25-1.28,9.65-8.15,16.29-18.9,18.28-3.05.56-6.15.83-9.25.81-6.26,0-12.48-1.05-18.4-3.09-10-3.55-16.23-7.57-18.56-17.74-1.47-6.86-4.44-13.31-8.7-18.89-2.16-3-4.74-5.68-7.65-7.97-.77-.53-1.59-.99-2.43-1.39-1.3-.52-2.48-1.3-3.47-2.28-1.45-1.76-1.55-5.25-.29-8.49Z"/><path id="Path_49" d="M260.08,465.06c2.76,0,5.51-.36,8.17-1.1.47-.16.93-.35,1.38-.56,2.48-1.01,4.13-3.39,4.22-6.06,0-2.18-.86-4.28-2.37-5.85-1.98-2.17-5.04-3.01-7.85-2.14-3.04.95-9.43,4.67-11.32,8.74-.65,1.22-.75,2.67-.26,3.97,1,2.47,4.91,3.01,8.03,3.01ZM252.54,458.21c1.89-3.98,8.15-7.68,11.16-8.59.72-.22,1.46-.33,2.21-.33,2.05,0,4,.87,5.38,2.39,1.48,1.51,2.31,3.55,2.29,5.67-.09,2.56-1.68,4.83-4.06,5.79-.44.21-.88.4-1.34.56-2.64.73-5.36,1.09-8.09,1.08-4.32,0-7.06-1-7.77-2.8-.48-1.23-.4-2.6.22-3.76h0Z"/><path id="Path_50" d="M344.05,570.09c-.05-.66-.05-1.33-.02-1.99.04-.73.02-1.47-.04-2.2-.53-4.52-2.33-10.07-4.22-15.92-1.95-5.98-3.96-12.14-4.91-18.08-.38-2.49-.65-5.17-.91-7.76-.79-8.47-1.6-17.18-7.38-21.09-2.61-1.78-6.45-2.59-12.03-2.59-3.12,0-6.49.25-9.8.48-1.28.08-2.58.19-3.86.27-11.42.7-35.19,3.74-43.49,10.17-11.32,8.78-12.68,23.85-12.5,37.46,1.34,17.12,12.78,26.71,25.38,36.38h.45c-12.66-9.71-24.2-19.26-25.58-36.4-.16-13.51,1.2-28.52,12.43-37.21,8.22-6.39,31.93-9.42,43.33-10.13,1.28-.06,2.58-.19,3.87-.27,3.29-.25,6.65-.48,9.76-.48,5.54,0,9.31.81,11.89,2.55,5.66,3.82,6.47,12.47,7.28,20.88.22,2.59.49,5.29.89,7.78.95,5.96,2.96,12.14,4.91,18.14,1.91,5.83,3.71,11.33,4.2,15.84.06.72.08,1.44.04,2.16-.04.68-.02,1.36.04,2.03.46,5.09-.06,10.22-1.52,15.11h.29c1.46-4.9,1.97-10.04,1.5-15.13Z"/><path id="Path_51" d="M38.69,572.09c-.16-3.95-.06-7.91.08-11.75.18-5.87.37-11.46-.63-15.94-2.41-11.02-15.98-18.89-27.89-22.58-3.3-1.07-6.78-1.48-10.24-1.18v.27c3.44-.27,6.9.13,10.18,1.18,11.82,3.67,25.29,11.48,27.69,22.35.99,4.46.81,10.03.63,15.88-.14,3.86-.26,7.82-.08,11.77.2,4.38.07,8.77-.4,13.14h.28c.46-4.36.59-8.75.38-13.14Z"/><path id="Path_52" d="M329.94,567.54c-.51-2.68-1.46-5.91-2.47-9.36-1.68-5.33-3-10.78-3.93-16.29-.24-1.62-.45-3.15-.65-4.65-1.32-9.75-2.35-17.45-8.72-22.56-4.34-3.47-12.45-5.54-21.7-5.54-11.26,0-21.72,2.9-28.01,7.78-10.32,7.99-10.73,22.08-9.27,32.5,2.27,11.1,10.06,16.81,19.94,24.09,4.96,3.5,9.71,7.29,14.22,11.35.12.1.24.25.39.35h.41c-.23-.17-.41-.37-.63-.56-4.51-4.07-9.25-7.87-14.2-11.39-9.84-7.2-17.61-12.91-19.86-23.91-1.48-10.34-1.07-24.3,9.19-32.23,6.21-4.82,16.63-7.7,27.83-7.7,9.19,0,17.22,2.04,21.54,5.48,6.31,5.02,7.3,12.66,8.6,22.35.22,1.52.41,3.07.65,4.65.94,5.53,2.26,10.99,3.95,16.33,1.01,3.45,1.97,6.68,2.45,9.34,1.03,5.88.66,11.93-1.08,17.64h.28c1.74-5.73,2.1-11.79,1.07-17.68Z"/><path id="Path_53" d="M132.76,551.02c-1.39-5.59-1.85-11.36-1.36-17.1.16-1.18.41-2.34.73-3.49,1.08-4.32,2.41-9.67-2.88-13.55l-.04-.02h-.02c-9.82-1.18-15.78,7.06-21.03,14.32-1.38,1.93-2.66,3.69-4,5.33-4.79,5.13-11.3,8.8-18.21,12.72-10.69,6.08-21.76,12.37-26.96,24.61-1.53,3.72-2.87,7.52-4.01,11.37h.28c1.24-3.9,2.51-7.87,3.96-11.27,5.19-12.18,16.2-18.41,26.88-24.47,6.92-3.92,13.45-7.62,18.25-12.8,1.36-1.62,2.66-3.43,4.04-5.31,5.21-7.2,11.09-15.38,20.75-14.24,5.09,3.78,3.85,8.8,2.76,13.24-.33,1.16-.58,2.34-.77,3.53-.47,5.76,0,11.57,1.38,17.18,1.98,6.56,4.3,13.01,6.96,19.32,1.95,4.83,3.91,9.79,5.64,14.82h.28c-1.72-5.06-3.73-10.04-5.66-14.92-2.66-6.3-4.99-12.74-6.95-19.29Z"/><path id="Path_54" d="M288.07,517.55c-6.08,0-12.09,1.83-16.04,4.9-5.15,3.96-8.24,8.74-7.67,20.32,3.51,14.76,19.15,22.71,32.09,22.71h0c1.64,0,3.29-.13,4.91-.4h.04l.02-.02c1.93-1.65,3.64-3.53,5.11-5.6l.02-.06c4.75-15,4.52-27.48-.59-34.2-3.65-4.86-10.18-7.64-17.89-7.64ZM306.31,559.3c-1.46,2.02-3.14,3.88-5.01,5.52-1.61.24-3.23.36-4.85.37h0c-12.86,0-28.36-7.89-31.8-22.46-.57-11.46,2.47-16.17,7.52-20.07,3.92-3.03,9.86-4.84,15.9-4.84,7.63,0,14.06,2.74,17.67,7.51,5.07,6.64,5.25,19.03.57,33.95Z"/><path id="Path_55" d="M221.38,558.91c-2.05-10.09-4.14-20.48-10.57-28.76-3.31-4.26-7.38-5.9-12.56-5.13-10.63,1.62-23.26,11.46-30.06,16.77-7.61,8.11-10.47,17.93-8.78,30.01.73,4.53,1.74,9.02,3.02,13.43h.29c-1.3-4.42-2.31-8.92-3.02-13.47-1.68-12,1.15-21.75,8.68-29.78,6.76-5.25,19.35-15.09,29.92-16.67.78-.12,1.56-.18,2.35-.19,3.98,0,7.22,1.7,9.94,5.21,6.39,8.22,8.5,18.58,10.53,28.62,1.8,9.03,3.67,18.39,8.74,25.92.06.13.15.25.24.35h.32c-.12-.15-.24-.33-.36-.5-5.01-7.49-6.88-16.81-8.68-25.82Z"/><path id="Path_56" d="M289.39,536.55l-.02-.04c-.85-1.63-2.5-2.7-4.34-2.8-.56,0-1.11.11-1.62.33l-.02.02c-1.02.79-1.68,1.94-1.84,3.22-.1.81.16,1.63.71,2.24.38.31.74.66,1.05,1.04l.02.02h.04c.51.2,1.05.31,1.6.31h0c1.86-.06,3.54-1.14,4.38-2.8l.02-.06c.04-.5.02-1.02.02-1.45v-.02ZM289.09,537.99c-.79,1.56-2.37,2.57-4.12,2.61h0c-.51,0-1.02-.09-1.5-.25-.32-.36-.66-.7-1.03-1.02-.48-.56-.71-1.3-.63-2.03.17-1.18.77-2.26,1.7-3.01.48-.19,1-.29,1.52-.29,1.72.1,3.27,1.09,4.08,2.61.02.46.02.92-.02,1.37h0Z"/><path id="Path_57" d="M13.47,548.97c-3.39-4.26-6.55-6-13.47-7.33v.29c6.79,1.31,9.92,3.01,13.27,7.2,5.9,7.45,9.53,21.31,10.4,31.05.16,1.81.24,3.49.24,5.04h.26c0-1.56-.06-3.26-.22-5.06-.87-9.77-4.54-23.72-10.48-31.19Z"/><path id="Path_58" d="M188.01,552.62c-.38,0-.79,0-1.2.04-3.72.32-7.15,2.16-9.47,5.09-3.55,4.32-5.13,10.92-4.44,18.57.27,2.99.73,5.97,1.38,8.9h.26c-.64-2.94-1.1-5.93-1.38-8.92-.67-7.6.87-14.11,4.38-18.39,2.28-2.87,5.64-4.68,9.29-5,.4-.02.79-.04,1.18-.04,11.01,0,15.09,13.43,18.68,25.24.75,2.49,1.48,4.92,2.25,7.12h.3c-.79-2.2-1.52-4.67-2.29-7.2-3.6-11.92-7.7-25.4-18.94-25.4Z"/><path id="Path_59" d="M113.21,563.79c-1.85-.27-3.71-.4-5.58-.4-15.09,0-28.91,8.43-35.82,21.84h.31c6.86-13.28,20.57-21.61,35.51-21.56,1.86.01,3.71.14,5.56.37,8.01,1.12,15.92,7.93,21.64,18.66.45.83.89,1.68,1.28,2.53h.28c-.4-.89-.85-1.78-1.32-2.66-5.78-10.81-13.73-17.66-21.86-18.78Z"/><path id="Path_60" d="M.39,575.66c-.13,0-.26,0-.38.02v.25h.38c2.11,0,3.83,1.39,4.91,3.94.66,1.71.98,3.53.95,5.35h.3c.01-1.87-.33-3.72-1.01-5.46-1.11-2.63-2.93-4.11-5.15-4.11Z"/><path id="Path_61" d="M92.09,585.22h.46c4.34-3.06,9.52-4.71,14.83-4.73,5.05-.04,9.97,1.63,13.96,4.73h.45c-4.08-3.28-9.17-5.05-14.4-5-5.5.02-10.85,1.77-15.29,5Z"/><path id="Path_62" d="M485.22,558.26c-3.38-6.08-6.44-12.33-9.19-18.72-1.46-3.53-2.78-7.39-4.18-11.5-5.96-17.54-12.72-37.4-33.65-37.4h-.83c-7.61.18-14.77,2.91-19.43,5.17-1.13.52-2.31,1.08-3.49,1.66-3.51,1.64-7.14,3.34-10.41,5.19-9.51,5.38-20.42,7.99-30.95,10.54l-.14.02c-.89.23-1.84.45-2.86.64-7.06,1.54-15.84,3.47-18.64,11.85-2.13,6.47-.16,14.76,1.72,22.74.69,2.93,1.34,5.68,1.78,8.3,1.53,8.39,1.63,16.98.29,25.4-.18,1-.39,2.01-.63,3.05h.29c.24-1.02.43-2.01.61-3.01,1.34-8.45,1.24-17.07-.29-25.49-.46-2.64-1.1-5.4-1.78-8.32-1.91-7.97-3.83-16.21-1.72-22.6,2.74-8.26,11.44-10.13,18.44-11.64,1.01-.23,1.97-.44,2.86-.66l.14-.02c10.57-2.53,21.5-5.17,31.03-10.56,3.23-1.83,6.86-3.55,10.37-5.21,1.2-.54,2.35-1.1,3.49-1.64,4.65-2.26,11.8-4.96,19.33-5.14.29-.02.57-.02.83-.02,20.73,0,27.44,19.78,33.41,37.25,1.38,4.09,2.7,7.97,4.16,11.52,2.68,6.47,5.98,12.7,9.21,18.76,2.74,5.13,5.33,9.96,7.57,14.96,1.78,4.25,4.13,8.23,7,11.83h.36c-2.94-3.61-5.35-7.63-7.14-11.93-2.21-4.99-4.81-9.85-7.55-15.02Z"/><path id="Path_63" d="M577.72,505.8c-17.24,6.66-28.76,19.24-33.28,36.38-1.3,5.55-2.31,11.16-3.02,16.81-1.08,7.35-2.19,14.94-4,20.22-.74,2.18-1.86,4.22-3.31,6.02h.32c1.41-1.77,2.5-3.77,3.23-5.92,1.85-5.31,2.94-12.91,4.02-20.28.72-5.64,1.73-11.25,3.02-16.79,4.5-17.02,15.94-29.55,33.12-36.19,1.94-.69,3.91-1.24,5.92-1.66.49-.08.97-.18,1.48-.25v-.29c-.53.1-1.03.17-1.54.27-2.02.42-4.01.98-5.96,1.68Z"/><path id="Path_64" d="M560.96,379.14c-5.52,1.27-10.83,4.01-15.96,6.68-5.15,2.66-10.47,5.42-15.94,6.6-14.18,3.14-19.43-9.57-24.06-20.82-.67-1.6-1.3-3.14-1.93-4.61-2.47-5.59-5.46-10.94-8.92-15.98-6.03-8.93-13.74-16.6-22.7-22.58-7.81-5.04-14.4-7.8-20.69-8.65-10.2-1.39-17.46,1.85-25.82,5.56-1.81.81-3.69,1.66-5.62,2.45-5.52,2.28-11.79,4.88-16.07,10.52-3.2,4.23-5.64,9.36-7.95,14.34l-.55,1.12c-4.32,9.15-7.48,18.18-10.83,27.73-.75,2.16-1.5,4.36-2.23,6.52-2.01,5.92-4.08,12.04-6.61,17.83-1.89,4.42-4.77,8.26-7.55,12-1.56,2.07-3.17,4.21-4.56,6.43-3.59,5.6-9.21,10.5-14.67,15.23-1.97,1.72-3.83,3.34-5.58,4.98-1.1,1-2.25,2.03-3.51,3.11-5.64,4.98-12.03,10.63-13.71,17.79-.22.95-.43,1.91-.63,2.82-1.8,8.01-3.39,14.94-11.22,19.96-7.4,4.75-16.41,6.29-24.34,7.64-3.75.64-7.57,1.14-11.24,1.66-6.41.7-12.78,1.81-19.05,3.32-13.31,3.63-21.42,13.07-24.12,28.12-2.62,14.67.04,32.58,3,39.91,2.66,6.6,7.14,11.77,12.51,16.4h.45c-5.48-4.65-10.02-9.86-12.72-16.52-2.92-7.26-5.6-25.11-2.98-39.74,2.7-14.92,10.71-24.3,23.92-27.87,6.26-1.54,12.62-2.66,19.02-3.36,3.67-.48,7.49-.98,11.24-1.62,7.95-1.37,16.98-2.9,24.44-7.7,7.95-5.08,9.49-12.06,11.32-20.13.22-.91.45-1.87.65-2.82,1.66-7.08,8.03-12.66,13.63-17.62,1.24-1.1,2.43-2.14,3.51-3.15,1.74-1.62,3.59-3.26,5.58-4.96,5.46-4.75,11.1-9.63,14.68-15.3,1.42-2.2,3.02-4.34,4.57-6.41,2.78-3.74,5.68-7.62,7.61-12.04,2.53-5.79,4.6-11.93,6.61-17.87.73-2.14,1.48-4.36,2.23-6.52,3.13-9.42,6.74-18.67,10.83-27.71l.51-1.12c2.33-4.96,4.75-10.07,7.97-14.3,4.22-5.56,10.45-8.14,15.92-10.4,1.95-.83,3.81-1.66,5.62-2.45,8.34-3.73,15.54-6.95,25.7-5.58,6.25.87,12.78,3.59,20.57,8.64,8.95,5.97,16.64,13.62,22.64,22.54,3.44,5.02,6.41,10.35,8.86,15.92.65,1.45,1.28,2.99,1.95,4.61,2.25,5.42,4.77,11.56,8.48,15.81,4.28,4.88,9.47,6.58,15.9,5.17,5.47-1.2,10.81-3.98,15.98-6.66,5.13-2.64,10.45-5.4,15.9-6.62,9.01-2.05,17.26.33,24.2,2.84v-.29c-6.95-2.52-15.21-4.86-24.25-2.85Z"/><path id="Path_65" d="M546.68,484.03c-6.43,6.39-12.51,12.45-20.48,14.82-11.08,3.34-19.45-5-27.57-13.1-.49-.5-.99-1-1.48-1.49-4.12-4.07-9.05-7.16-13.81-10.13-3.51-2.11-6.9-4.42-10.14-6.91-2.39-1.93-4.93-3.71-7.38-5.44-1.66-1.2-3.37-2.41-4.99-3.61-2.72-2.03-4.6-5.23-6.45-8.34-.95-1.69-2.01-3.32-3.17-4.88-3.12-4.11-7.52-7.22-11.8-10.25-7.83-5.52-15.23-10.75-15.76-21.58-.3-6.45,1.11-14.46,3.89-22,3.16-7.9,7.84-15.1,13.77-21.19,4.16-4.32,8.38-6.33,12.54-5.98,7.38.64,13.71,8.64,18.4,15.55,2.76,4.07,3.86,7.97,4.99,12.12.66,2.54,1.47,5.04,2.42,7.49,1.05,2.62,2.33,5.19,3.53,7.68,2.09,3.94,3.81,8.06,5.15,12.31,2.07,7.24,2.48,17.74-.73,23.8-3.12,5.85-1.64,15.8,1.64,21,2.98,4.73,10.45,7.74,16.45,10.17,1.36.54,2.61,1.08,3.75,1.55.53.25,1.08.48,1.58.73,1.74.89,3.58,1.58,5.47,2.07,9.31,1.95,15.74-2.62,19.61-13.95,4.08-11.91,1.26-22.75-7.95-30.53-2.85-2.24-5.9-4.21-9.11-5.89-1.4-.79-2.86-1.62-4.26-2.47-.36-.23-.73-.44-1.1-.69-4.06-2.47-9.09-5.54-11.87-9.11-4.12-5.28-7.53-11.08-10.14-17.25-1.3-3.11-2.33-6.29-3.41-9.67-.79-2.43-1.6-4.92-2.54-7.45-1.95-5.03-4.54-9.79-7.69-14.17-4.38-6.1-12.27-14.3-20.12-17.29-12.41-4.71-29.13,7.82-37.34,17.37-4.61,5.36-7.59,12.04-9.92,17.85-.63,1.58-1.23,3.2-1.86,4.75-3.39,8.72-6.61,16.96-11.97,24.55-1.65,2.44-3.16,4.98-4.52,7.6-.99,1.81-2.01,3.71-3.14,5.52-2.88,4.61-7.26,7.35-11.58,9.63-1.99,1.06-4.06,2.03-6.04,3.01-5.76,2.74-11.7,5.6-16.55,10.27-3.08,2.99-4.3,6.14-3.65,9.4,1.08,5.4,6.92,9.44,12.05,11.39,10.65,4.07,22.98,2.6,33.83,1.27l1.4-.14c.87-.1,1.72-.19,2.58-.29,4.79-.5,9.33-.98,13.88-3.63.73-.42,1.44-.83,2.15-1.25,6.87-4.01,12.82-7.49,20.71-9.28,4.95-1.14,12.31-1.04,16.8,1.85,2.23,1.41,3.19,3.57,4.2,5.85.58,1.46,1.31,2.85,2.19,4.15,3.77,5.04,8.86,9.01,13.79,12.87,4.83,3.76,9.84,7.66,13.61,12.58,2.26,3.18,4.27,6.54,5.98,10.04,1.68,3.47,3.65,6.78,5.9,9.9,4.48,5.66,10.57,7.62,17.22,5.5,5.76-1.85,12.15-6.85,18.34-11.68.95-.75,1.86-1.47,2.78-2.18,3.22-2.49,6.37-5.11,9.41-7.64,8.36-6.95,16.27-13.53,25.17-17.23,3.84-1.5,7.82-2.63,11.89-3.36v-.29c-4.1.73-8.11,1.87-11.99,3.4-8.95,3.7-16.88,10.32-25.25,17.27-3.04,2.53-6.17,5.13-9.39,7.62-.91.71-1.84,1.43-2.76,2.18-6.16,4.81-12.53,9.82-18.28,11.64-6.53,2.08-12.54.16-16.92-5.42-2.24-3.09-4.21-6.38-5.88-9.82-1.72-3.53-3.74-6.91-6.02-10.11-3.81-4.94-8.8-8.86-13.65-12.64-4.91-3.84-9.98-7.8-13.73-12.83-.86-1.28-1.59-2.64-2.17-4.07-1.04-2.3-2.01-4.5-4.28-6-4.56-2.93-12.03-3.03-17.02-1.89-7.93,1.83-13.89,5.29-20.79,9.34-.71.39-1.44.81-2.15,1.27-4.48,2.59-8.98,3.05-13.77,3.55-.83.1-1.7.21-2.58.29l-1.38.19c-10.85,1.29-23.12,2.76-33.73-1.29-6.35-2.41-11.01-6.81-11.87-11.18-.63-3.16.57-6.23,3.59-9.13,4.79-4.63,10.73-7.49,16.45-10.25,2.01-.93,4.08-1.93,6.09-2.99,4.32-2.28,8.76-5.06,11.68-9.76,1.11-1.8,2.15-3.67,3.14-5.5,1.35-2.6,2.85-5.13,4.5-7.55,5.39-7.64,8.6-15.9,12.01-24.64.61-1.58,1.22-3.15,1.86-4.77,2.33-5.77,5.29-12.41,9.86-17.74,8.15-9.48,24.75-21.96,37.04-17.29,7.79,2.95,15.64,11.12,19.98,17.2,3.17,4.34,5.76,9.08,7.69,14.1.93,2.51,1.74,5.02,2.52,7.43,1.07,3.38,2.11,6.58,3.43,9.69,2.62,6.19,6.04,12,10.16,17.31,2.82,3.61,7.87,6.7,11.93,9.2.39.21.75.44,1.14.68,1.38.85,2.86,1.66,4.26,2.47,3.2,1.66,6.23,3.62,9.05,5.85,9.11,7.7,11.9,18.43,7.89,30.24-3.84,11.19-10.16,15.67-19.33,13.76-1.88-.47-3.69-1.16-5.42-2.03-.51-.23-1.05-.48-1.58-.75-1.11-.48-2.41-.98-3.75-1.53-5.98-2.43-13.41-5.42-16.33-10.07-3.23-5.15-4.71-14.92-1.64-20.71,3.23-6.1,2.82-16.73.75-24.03-1.34-4.26-3.06-8.39-5.13-12.35-1.24-2.49-2.48-5.06-3.53-7.68-.95-2.44-1.75-4.92-2.41-7.45-1.14-4.17-2.23-8.1-5.03-12.2-4.73-6.93-11.11-15.01-18.6-15.65-4.24-.37-8.52,1.66-12.74,6.04-5.96,6.12-10.66,13.35-13.83,21.28-2.8,7.57-4.22,15.65-3.91,22.12.53,10.96,8.32,16.46,15.86,21.79,4.26,3.01,8.66,6.12,11.77,10.19,1.15,1.56,2.2,3.18,3.14,4.88,1.85,3.09,3.75,6.31,6.49,8.38,1.64,1.23,3.37,2.45,5.01,3.61,2.43,1.74,4.97,3.55,7.36,5.44,3.25,2.51,6.65,4.82,10.18,6.91,4.77,2.99,9.67,6.06,13.75,10.13.53.5.99.98,1.5,1.5,8.15,8.11,16.59,16.54,27.83,13.16,8.01-2.39,14.14-8.45,20.61-14.88,6.12-6.1,12.49-12.43,21.05-16.11,5.59-2.2,11.37-3.85,17.28-4.92v-.29c-5.95,1.07-11.78,2.74-17.4,4.98-8.58,3.67-14.95,10.01-21.14,16.12Z"/><path id="Path_66" d="M556.66,401.28c-4.4.95-8.91,3.24-13.67,5.62-7.91,3.98-16.07,8.12-23.59,5.71-13.53-4.32-18.72-19.03-23.31-31.98-.95-2.66-1.82-5.15-2.78-7.55-2.01-5.18-4.63-10.11-7.81-14.67-4.81-6.85-10.71-11.08-16.96-15.54-.95-.67-1.89-1.35-2.86-2.03-5.5-4.01-12.21-7.95-19.96-6.81-2.43.35-4.97,1.68-7.4,2.97-1.43.8-2.9,1.51-4.42,2.12-1.06.4-2.13.81-3.23,1.22-8.3,3.05-16.88,6.25-22.78,13.12-1.72,2.19-3.24,4.53-4.54,6.99-.73,1.31-1.42,2.51-2.13,3.67-3.01,4.75-5.54,9.79-7.55,15.05-2.08,5.95-3.69,12.06-4.81,18.26-1.38,6.58-2.8,13.41-5.38,19.59-2.66,6.35-9.67,10.92-15.88,14.92-1.68,1.1-3.29,2.14-4.71,3.17-4.08,3.06-7.89,6.47-11.4,10.17-2.31,2.3-4.71,4.71-7.24,6.89-5.86,5.06-8.48,13.72-6.88,22.58,2.84,15.52,8.74,18.08,21.52,20.26,9.73,1.64,21.07,1.24,34.62-1.16,7.81-1.41,15.23-6.58,22.39-11.54,2.61-1.83,5.07-3.53,7.48-5,10.06-6.22,22.01-4.92,31.93,3.47,1.28,1.06,2.56,2.12,3.83,3.14,7.55,6.18,14.68,12.02,18.48,21.29,1.58,4.09,2.87,8.29,3.86,12.56.96,4.19,2.21,8.31,3.73,12.33,2.86,6.62,7.11,12.55,12.45,17.39,4.52,4.09,11.38,8.49,18.32,6.41,6.45-1.93,10.24-9.42,14.28-17.35,2.56-5.04,5.23-10.23,8.74-14.55,4.57-5.62,10.67-10.71,14.87-14.05l.43-.35c9-7.14,17.48-13.9,28.72-16.19.71-.17,1.44-.29,2.17-.39v-.3c-.75.12-1.48.25-2.25.39-11.3,2.3-19.8,9.09-28.78,16.25l-.47.35c-5.43,4.18-10.43,8.9-14.91,14.09-3.53,4.34-6.17,9.57-8.76,14.61-4,7.89-7.79,15.32-14.12,17.21-6.79,2.05-13.57-2.3-18.05-6.33-5.3-4.83-9.52-10.73-12.37-17.31-1.52-4.01-2.77-8.11-3.73-12.29-.99-4.29-2.28-8.5-3.86-12.6-3.83-9.34-11.34-15.46-18.6-21.4-1.24-1.02-2.53-2.07-3.79-3.13-10.04-8.47-22.09-9.75-32.25-3.51-2.43,1.49-4.89,3.2-7.46,5-7.18,4.98-14.58,10.11-22.33,11.5-13.51,2.45-24.81,2.82-34.52,1.16-12.64-2.14-18.48-4.69-21.3-20.03-1.6-8.76,1.01-17.31,6.77-22.29,2.54-2.22,4.95-4.61,7.28-6.93,3.49-3.69,7.28-7.09,11.34-10.15,1.42-1.02,3.04-2.05,4.7-3.15,6.23-4.02,13.29-8.59,15.98-15.02,2.6-6.23,4.02-13.08,5.39-19.65,1.28-6.1,2.56-12.37,4.81-18.2,2-5.24,4.51-10.28,7.5-15.02.73-1.14,1.42-2.39,2.15-3.67,1.3-2.45,2.81-4.78,4.52-6.95,5.86-6.81,14.4-9.98,22.66-13.05,1.08-.41,2.15-.81,3.25-1.2,1.5-.63,2.97-1.35,4.4-2.14,2.43-1.29,4.95-2.6,7.34-2.95,7.67-1.12,14.28,2.8,19.77,6.77.97.7,1.89,1.35,2.84,2.01,6.25,4.48,12.13,8.67,16.89,15.48,3.17,4.56,5.78,9.48,7.79,14.65.93,2.37,1.81,4.88,2.76,7.53,4.6,13.01,9.82,27.79,23.51,32.15,7.61,2.43,15.84-1.72,23.77-5.73,4.77-2.41,9.25-4.65,13.59-5.6,6.17-1.35,17.54-1.89,28.52-1.62v-.29c-10.98-.23-22.38.29-28.54,1.64Z"/><path id="Path_67" d="M551.13,179.36c-7.4,5.25-11.85,12.7-13.18,22.1-.37,3.85-.27,7.73.28,11.56.44,4.07.87,8.26.24,12.22-.69,4.54-3.09,8.61-6.11,10.42-2.1,1.28-4.7,1.46-6.96.48-7.99-9.51-14.52-15.82-24.36-19.92-2.82-1.16-5.66-2.18-9.21-3.3-1.72-.56-3.47-1.14-5.15-1.7-10.69-3.59-21.76-7.29-39.76-5.77-8.64.73-15.15,2.37-20.83,8.24-3.75,3.88-6.59,8.55-9.29,13.08-1.94,3.32-4.06,6.54-6.35,9.63-1.2,1.54-2.6,3.05-3.95,4.52-2.1,2.12-3.99,4.44-5.66,6.91-3.18,5.17-3.33,13.78-2.13,19.57,1.58,7.57,6.31,14.07,11.05,20.09,1.16,1.49,2.27,3.14,3.49,4.86,3.16,4.65,6.45,9.44,11.01,11.93,5.01,2.7,10.85,2.72,16.41,2.33,1.96-.21,3.89-.61,5.78-1.18,2.78-.77,5.66-1.58,8.44-1.06,9.88,1.81,21.08,8.84,28.23,14.84,3.89,3.23,7.4,6.87,10.49,10.88,2.39,3.11,4.69,6.25,7.14,9.61,4.18,5.73,8.5,11.64,13.41,17.5,4.56,5.46,10.51,10.61,19.84,7.3,5.29-1.89,9.86-5.13,14.1-8.3,6.27-4.73,11.95-11.35,17.44-17.79,5.01-5.89,9.78-11.46,14.46-14.86,1.55-1.15,3.33-1.97,5.21-2.39v-.27c-1.94.42-3.78,1.25-5.38,2.43-4.73,3.43-9.47,8.99-14.52,14.92-5.46,6.39-11.12,13.03-17.39,17.72-4.36,3.3-8.76,6.41-14.02,8.26-9.19,3.26-15.05-1.83-19.55-7.2-4.89-5.85-9.23-11.79-13.39-17.5-2.45-3.36-4.77-6.52-7.16-9.61-3.09-4.03-6.62-7.7-10.53-10.94-7.2-6-18.44-13.07-28.36-14.88-2.84-.52-5.74.27-8.56,1.06-1.87.57-3.78.96-5.72,1.16-5.52.4-11.32.4-16.27-2.28-4.5-2.45-7.77-7.22-10.93-11.83-1.17-1.74-2.31-3.38-3.49-4.9-4.71-5.96-9.45-12.43-10.99-19.97-1.18-5.75-1.03-14.26,2.11-19.36,1.64-2.48,3.52-4.79,5.62-6.89,1.36-1.45,2.78-2.97,3.96-4.5,2.31-3.09,4.43-6.32,6.35-9.67,2.74-4.52,5.54-9.17,9.29-13.01,5.62-5.81,12.07-7.45,20.65-8.18,17.95-1.49,29.01,2.18,39.65,5.77,1.68.56,3.43,1.14,5.15,1.7,3.53,1.12,6.39,2.14,9.17,3.3,9.82,4.07,16.35,10.38,24.28,19.86l.02.02.04.02c2.35,1,5.04.82,7.24-.48,3.08-1.85,5.54-6.02,6.25-10.63.61-3.98.16-8.2-.26-12.29-.54-3.81-.63-7.67-.28-11.5,1.34-9.34,5.74-16.71,13.06-21.92,8.38-5.95,20.08-8.74,33.96-8.2v-.29c-13.94-.51-25.68,2.27-34.1,8.27Z"/><path id="Path_68" d="M159.52,26.7c.46,3.9,1.05,11.14-.26,16-2.19,8.01-8.52,14.9-14.62,21.58-8.64,9.4-17.57,19.14-14.83,32.15,1.48,7.01,5.17,11.37,11.36,13.34,5.35,1.72,11.95,1.49,19.37,1.08,13.55-.77,22.74,1.51,28.07,3.59,5.39,2.12,10.34,5.6,15.17,9.01,6.45,4.55,12.55,8.86,19.45,9.82,2.54.39,5.13.28,7.63-.31,6.45-1.45,11.32-4.77,16.47-8.3,8.76-5.96,17.81-12.14,35.37-8.55,3.86.77,7.69,1.95,11.75,3.18,12.94,3.92,26.33,7.95,41.3-.17,13.53-6.95,22.05-19.72,30.26-32.06,3.76-5.87,7.83-11.53,12.19-16.96,5.61-6.69,13.26-15.83,22.65-12.66,3.74,1.13,7.57,1.96,11.44,2.47,5.98.98,12.15,1.97,17.71,5.54,3.98,2.55,7.06,6.19,10.06,9.71,1.4,1.64,2.86,3.34,4.38,4.92,3.25,3.56,6.17,7.41,8.72,11.5,2.21,3.45,4.64,6.76,7.28,9.9,3.65,3.3,6.86,6.18,10.59,9.63,4.49,4.41,8.7,9.09,12.6,14.03,7.62,9.28,14.8,18.01,24.2,20.84,6.63,2.01,13.49,1.74,22.23-.83,5.19-1.7,10.25-3.74,15.17-6.1,9.19-4.31,18.05-9.31,26.49-14.94,6.07-4.13,10.77-9.98,13.5-16.79v-.73c-2.67,7.02-7.42,13.05-13.63,17.27-8.45,5.63-17.3,10.63-26.49,14.94-4.9,2.36-9.95,4.39-15.11,6.08-8.72,2.55-15.52,2.82-22.09.85-9.31-2.8-16.47-11.52-24.08-20.75-3.9-4.95-8.12-9.65-12.64-14.05-3.73-3.47-6.92-6.37-10.57-9.65-2.62-3.13-5.04-6.42-7.24-9.86-2.57-4.09-5.5-7.94-8.74-11.52-1.54-1.58-2.98-3.28-4.38-4.94-3-3.53-6.11-7.18-10.12-9.73-5.6-3.61-11.81-4.61-17.81-5.56-3.85-.53-7.66-1.36-11.38-2.49-9.57-3.22-17.32,6-22.96,12.74-4.36,5.44-8.44,11.11-12.21,16.98-8.21,12.35-16.69,25.09-30.14,31.98-14.89,8.07-28.23,4.05-41.14.15-4.06-1.23-7.89-2.39-11.76-3.18-17.65-3.59-26.75,2.6-35.56,8.59-5.13,3.51-9.98,6.81-16.41,8.26-2.46.58-5,.68-7.5.29-6.82-.91-12.92-5.21-19.35-9.78-4.81-3.38-9.82-6.91-15.23-9.03-5.34-2.07-14.56-4.38-28.17-3.61-12.72.73-27.16,1.56-30.47-14.2-2.68-12.86,6.18-22.56,14.76-31.92,6.15-6.71,12.49-13.62,14.68-21.69,1.28-4.63.87-11.31.3-16.1-.93-7.7-3.14-15.61-5.5-23.95-.24-.89-.49-1.78-.75-2.7h-.29c.26.94.53,1.85.79,2.78,2.34,8.34,4.57,16.21,5.47,23.9Z"/><path id="Path_69" d="M554.98,554.51c-1.01,5.54-1.48,11.27-1.95,16.81-.41,4.84-.79,9.53-1.52,13.91h.26c.73-4.4,1.14-9.11,1.52-13.89.49-5.54.95-11.27,1.97-16.79,3.51-19.26,12.92-30.78,27.24-33.29.93-.17,1.83-.27,2.72-.35v-.27c-.93.06-1.86.18-2.78.35-14.42,2.53-23.91,14.12-27.46,33.52Z"/><path id="Path_70" d="M475.77,569.82c-1.81-5.91-4.02-11.68-6.61-17.29l-.43-.97c-1.6-3.76-2.92-7.76-4.3-12.02-2.82-8.7-5.74-17.68-11.52-24.16-5.13-5.73-13.51-9.03-23-9.03-5.08-.05-10.12.99-14.77,3.05-4.72,2.07-9.02,4.96-12.72,8.55-2.86,2.84-7.04,4.32-11.07,5.79-2.73.87-5.38,1.99-7.91,3.34-7.34,4.28-11.97,10.23-13.35,17.31-1.3,6.58-1.15,15.07-1.01,23.26.06,4.98.16,10.15-.06,14.92-.04.83-.1,1.74-.18,2.64h.28c.06-.89.12-1.78.16-2.64.22-4.75.14-9.94.06-14.92-.14-8.2-.26-16.67,1.01-23.22,1.38-6.97,5.95-12.89,13.23-17.12,2.52-1.34,5.15-2.45,7.87-3.32,4.04-1.45,8.23-2.95,11.16-5.83,3.68-3.57,7.96-6.45,12.65-8.51,4.61-2.03,9.6-3.06,14.64-3.01,9.41,0,17.71,3.26,22.8,8.95,5.74,6.43,8.66,15.38,11.46,24.05,1.4,4.23,2.7,8.28,4.32,12.02l.45.99c2.57,5.6,4.77,11.36,6.57,17.25.89,3.22,1.66,6.77,2.41,10.21.39,1.76.75,3.47,1.14,5.11h.28c-.39-1.64-.77-3.38-1.16-5.17-.73-3.45-1.5-7.02-2.41-10.23Z"/><path id="Path_71" d="M463.34,574.82c-.65-4.5-1.4-9.61-3.18-14.07-.74-1.72-1.71-3.34-2.88-4.82-.86-1.12-1.64-2.31-2.31-3.55-.98-1.96-1.84-3.99-2.56-6.06-2.35-6.16-4.77-12.54-11.42-14.34-2.07-.48-4.2-.69-6.33-.62-2.82,0-5.8.23-8.46.46-1.05.06-2.03.14-2.94.23-8.91.64-17.46,3.77-24.69,9.03-8.25,6.14-10.63,16.5-11.7,23.8-.81,5.23-1.54,12.97.93,19.53.12.27.22.54.32.81h.3c-.12-.31-.26-.6-.39-.91-2.45-6.48-1.7-14.2-.93-19.4,1.07-7.22,3.45-17.54,11.62-23.62,7.19-5.21,15.69-8.32,24.55-8.99.91-.04,1.89-.12,2.94-.21,2.66-.23,5.64-.48,8.44-.48,2.11-.05,4.22.17,6.27.66,6.53,1.77,8.9,8.07,11.22,14.13.74,2.08,1.6,4.12,2.58,6.1.69,1.25,1.47,2.44,2.33,3.57,1.14,1.46,2.1,3.06,2.86,4.75,1.76,4.44,2.52,9.53,3.16,14.03.46,3.43.67,6.89.63,10.36h.26c.06-3.48-.15-6.95-.63-10.4Z"/><path id="Path_72" d="M584.98,541.6h-.02c-12.84,1.18-20.02,15.48-21.93,43.62h.28c1.89-27.96,8.97-42.15,21.64-43.35.09.02.17.04.26.04v-.27c-.08-.03-.16-.04-.24-.04Z"/><path id="Path_73" d="M581.75,576.94c-1.62,2.5-2.66,5.33-3.04,8.28h.26c.4-2.88,1.42-5.65,3-8.09.98-.64,2.09-1.05,3.25-1.2v-.25c-1.22.13-2.4.55-3.43,1.23l-.04.04Z"/><path id="Path_74" d="M149.76,547.78c2.11-7.03,5.7-11.29,11.34-17.66.87-1.02,1.85-2.01,2.88-3.11,4.02-4.25,8.58-9.09,9.59-14.11,2.03-10.04-4.04-15.94-10.26-20.34-3.15-2.1-6.45-3.96-9.88-5.56-4.32-2.16-8.8-4.4-12.5-7.66-3.93-3.48-7.32-8.45-10.1-14.78-1.12-2.83-1.92-5.77-2.37-8.78-.43-2.93-1.18-5.79-2.25-8.55-5.44-12.45-12.54-26.52-24.14-36.38-5.05-4.28-11.42-11.04-13.1-19.1-1.1-5.29.43-9.92,1.66-13.64l.2-.66c2.76-8.38,10.99-28.39,28.24-33.44,3.58-.95,7.21-1.72,10.87-2.3,5.03-.87,10.24-1.8,14.02-3.24,5.92-2.24,10.14-5.33,14.62-8.84l.65-.5c4.28-3.36,9.62-7.53,16.57-7,6.02.52,12.92,3.72,18.86,8.86,6.03,5.19,10.04,11.48,11.08,17.27.65,3.74.95,6.74,1.24,9.65.26,2.51.47,4.88.93,7.49,2.23,13.07,8.36,23.51,18.24,30.96,8.03,6.06,18.72,10.32,31.83,12.62,17,3.03,31.44-2.66,36.83-5.23,8.6-4.11,17.81-13.99,25.76-22.95,7.91-8.9,12.09-14.17,13.02-28.31.2-4.4.06-8.82-.4-13.2-.12-1.66-.28-3.36-.39-5.06-.06-1.25-.16-2.49-.28-3.82-.57-4.42-.57-8.88,0-13.3,1.6-9.42,6.92-13.59,16.31-12.66,12.37,1.27,22.94,9.47,27.24,21.15,3.43,9.3.67,19.01-1.52,26.86l-.37,1.29c-3.63,12.97-8.58,23.08-15.09,30.92-3.71,4.42-7.79,8.57-11.76,12.62-1.48,1.47-2.98,3.01-4.44,4.54-2.07,2.14-4.36,4.11-6.59,6-2.9,2.36-5.61,4.93-8.11,7.7-3.16,3.84-5.89,8.01-8.13,12.45-6.8,12.79-11.54,24.07-14.48,34.41-2.8,9.49-10.18,16.95-19.63,19.86-12.43,3.97-30.24,3.51-52.92-1.37-11.12-2.41-17.75-8.92-19.65-19.4-2.17-11.95-10.08-17.91-18.42-24.2-2.15-1.62-4.36-3.3-6.51-5.06-8.87-7.43-4.44-14.46.22-21.92,2.09-3.34,4.24-6.77,5.15-10.27,1.48-5.48-.43-11.27-2.25-16.87-.97-2.73-1.74-5.54-2.29-8.38-2.15-12.93-4.3-23.14-10.73-27.33-3.45-2.24-7.87-2.55-13.55-.91-.91.23-1.93.54-3,.87-2.19.67-4.69,1.41-6.73,1.87-3.68.8-7.41,1.39-11.16,1.79-4.16.54-8.44,1.08-13.16,2.1-6.98,1.42-13.35,4.98-18.21,10.19-4.7,5.13-7.7,11.58-8.6,18.47-.52,2.77-.42,5.63.28,8.36,2.35,8.18,9.61,13.95,16,19.03,1.48,1.16,2.88,2.26,4.22,3.4l.22.19c6.19,5.23,13.9,11.75,13.61,20.69-.3,9.21.85,15.9,3.83,22.37,4.71,10.17,11.34,16.36,22.9,21.3.87.35,1.72.73,2.6,1.08,4.07,1.62,8.03,3.49,11.87,5.6,2.78,1.73,5.28,3.88,7.38,6.39,1.22,1.31,2.47,2.66,3.91,3.94,1.85,1.77,3.56,3.69,5.09,5.75,4.36,5.52,9.31,11.77,16.96,10.27,3.91-.77,7.77-3.53,11.87-6.43,3.57-2.55,7.26-5.19,11.42-6.87,7.04-2.82,16.96-3.49,27.46-4.21,6.37-.43,12.98-.89,19.01-1.85,13.71-2.22,22.98-7.14,28.33-15.05,1.5-2.35,2.73-4.87,3.65-7.51.73-2.02,1.6-3.99,2.62-5.89.85-1.37,1.92-2.6,3.16-3.63.68-.59,1.33-1.23,1.93-1.91,1.1-1.24,2.15-2.55,3.18-3.84,1.14-1.41,2.31-2.89,3.57-4.28,1.95-2.18,4.16-4.17,6.29-6.14,1.97-1.83,4.02-3.71,5.88-5.75,1.45-1.64,2.78-3.38,3.98-5.21,1.33-2.1,2.87-4.06,4.58-5.85,3.31-3.22,6.32-6.74,9.01-10.5,2.23-3.3,3.22-6.54,4.34-9.94.3-1.06.65-2.14,1.05-3.26.98-2.51,2.26-4.89,3.81-7.1.87-1.35,1.74-2.72,2.48-4.09,2.68-5.01,5.05-10.18,7.08-15.48.53-1.43,1.01-2.88,1.52-4.3.2-.6.43-1.18.63-1.79.95-2.7,1.97-5.44,2.96-8.1,2.84-7.7,5.8-15.65,7.32-22.91.97-4.63,1.83-9.57.79-14.45-3.53-16.75-19.39-34.2-33.93-37.4-6.71-1.45-15.19-1.37-23.85.29-14.38,2.76-19.7,9.86-18.96,25.36.16,3.61.51,7.26.79,10.79.69,7.64,1.34,14.86.55,21.83-.45,3.41-1.36,6.75-2.7,9.92-2.11,5.21-6.94,14.11-12.96,23.76-5.92,9.48-13.89,16.4-21.89,18.99-15.15,4.92-35.45.04-47.26-11.37-5.92-5.71-12.23-15.48-8.72-29.47.25-.89.57-1.77.95-2.62.53-1.11.94-2.27,1.22-3.47,1.88-3.15,4-6.15,6.35-8.96,5.03-6.37,9.78-12.37,7.95-20.96-.44-1.73-1.02-3.43-1.74-5.06-1.48-3.69-3-7.49-1.22-9.75,3.69-4.42,7.67-8.6,11.9-12.52,7.81-7.6,15.9-15.48,18.2-22.87,2.33-7.41-2.43-14.78-4.46-17.89-2.19-3.38-4.71-6.87-7.34-10.6-2.05-2.87-4.18-5.83-6.19-8.78-1.66-2.47-3.29-4.84-4.89-7.18-3.69-5.44-7.18-10.54-10.77-16.02-1.42-2.18-2.84-4.52-4.24-6.76-2.33-3.78-4.73-7.66-7.14-10.96-5.27-7.22-11.22-10.19-17.73-8.84-6.45,1.35-13.45,6.46-19.51,11.1-.83.62-1.64,1.24-2.46,1.89-11.32,8.69-24.18,18.53-27.56,29.47-2.86,9.32,2.43,13.65,8.03,18.24.61.5,1.22.99,1.8,1.52,3.23,2.77,6.2,5.83,8.88,9.13,3.15,4,6.02,8.22,8.58,12.62,1.89,3.07,3.67,6.02,5.46,8.4,6.15,8.24,14.12,11.87,21.8,15.42,7.57,3.45,15.35,6.97,21.26,14.88,0,.29.02.56.02.85.07.81.02,1.63-.16,2.43-7.02,7.76-15.72,9.69-26.61,5.98-3.5-1.33-6.88-2.97-10.1-4.9-7.79-4.32-15.84-8.76-25.11-5.87-6.67,2.05-11.3,6.87-15.78,11.52-4.42,4.61-8.99,9.36-15.6,11.73-3.87,1.35-7.87,1.74-13.49,2.2-14.16,1.1-20.99,2.76-26.81,10.31-7.67,9.98-17.12,27.6-20.02,34.89-.9,2.17-1.63,4.4-2.17,6.68-2.47,12.7,5.15,22.62,12.05,29.88,1.66,1.72,3.51,3.34,5.27,4.88,1.58,1.39,3.23,2.82,4.75,4.34,2.98,3.25,5.64,6.78,7.93,10.54,1.24,1.85,2.45,3.74,3.77,5.54,9.51,12.97,12.37,24.28,9.31,36.69-2.23,8.9-7.3,20.17-18.96,23.24-4.53,1.07-9.14,1.81-13.77,2.24-4.64.48-9.25,1.21-13.81,2.18-4.01.93-7.81,2.14-11.48,3.34-5.13,1.62-9.98,3.2-14.99,3.84-8.78,1.2-16.57-.69-24.12-2.45-6.65-1.6-12.98-3.09-19.21-2.24v.29c6.21-.87,12.49.62,19.15,2.2,7.57,1.81,15.37,3.65,24.22,2.47,5.12-.84,10.15-2.12,15.04-3.85,3.65-1.18,7.47-2.39,11.48-3.32,4.54-.97,9.13-1.69,13.75-2.16,4.65-.43,9.26-1.19,13.81-2.26,9.33-2.47,15.96-10.57,19.15-23.43,3.1-12.52.22-23.89-9.33-36.96-1.3-1.79-2.53-3.67-3.75-5.5-2.31-3.78-5-7.32-8.01-10.56-1.5-1.56-3.14-2.99-4.72-4.36-1.77-1.55-3.59-3.15-5.25-4.9-6.86-7.18-14.44-17.04-11.97-29.64.53-2.26,1.24-4.48,2.15-6.62,2.88-7.26,12.31-24.86,19.96-34.8,5.74-7.47,12.58-9.15,26.63-10.25,5.64-.44,9.63-.83,13.57-2.22,6.67-2.35,11.26-7.14,15.7-11.75,4.64-4.86,9.04-9.44,15.64-11.46,9.19-2.84,17.2,1.58,24.93,5.85,3.23,1.92,6.62,3.57,10.12,4.92,11.03,3.76,19.84,1.79,26.96-6.06l.02-.06c.19-.84.24-1.7.14-2.55v-.93l-.04-.04c-5.92-7.97-13.77-11.56-21.36-15.02-7.67-3.49-15.62-7.14-21.7-15.32-1.77-2.39-3.57-5.31-5.46-8.4-2.57-4.41-5.45-8.63-8.6-12.64-2.69-3.31-5.67-6.38-8.9-9.18-.61-.52-1.22-1-1.8-1.49-5.54-4.55-10.77-8.84-7.95-17.95,3.37-10.86,16.17-20.65,27.44-29.33.83-.62,1.66-1.27,2.48-1.91,6.02-4.65,13-9.71,19.39-11.04s12.27,1.6,17.48,8.74c2.41,3.28,4.79,7.18,7.12,10.94,1.38,2.24,2.8,4.57,4.24,6.77,3.57,5.48,7.08,10.6,10.77,16.04,1.6,2.32,3.23,4.73,4.91,7.18,1.99,2.95,4.1,5.92,6.17,8.78,2.66,3.71,5.17,7.22,7.34,10.59,2.01,3.11,6.71,10.38,4.44,17.66-2.29,7.35-10.37,15.15-18.15,22.75-4.24,3.92-8.22,8.11-11.93,12.54-1.87,2.41-.33,6.29,1.21,10.04.71,1.62,1.28,3.29,1.71,5,1.8,8.47-2.92,14.42-7.91,20.73-2.35,2.84-4.48,5.86-6.37,9.03l-.02.06c-.28,1.18-.69,2.33-1.22,3.42-.38.86-.69,1.74-.95,2.64-2.76,11.04.37,21.6,8.82,29.76,11.85,11.48,32.27,16.35,47.52,11.43,8.03-2.64,16.06-9.59,21.99-19.09,6.05-9.69,10.91-18.6,13-23.83,1.35-3.19,2.26-6.55,2.72-9.98.79-7.02.14-14.24-.53-21.9-.32-3.53-.65-7.18-.81-10.77-.37-7.85.81-13.35,3.69-17.25,2.94-3.92,7.71-6.43,15.05-7.82,8.64-1.66,17.08-1.76,23.75-.29,14.46,3.15,30.2,20.53,33.71,37.17,1.04,4.82.18,9.71-.77,14.32-1.52,7.26-4.48,15.19-7.32,22.85-.97,2.67-1.99,5.42-2.94,8.11-.22.6-.42,1.2-.65,1.81-.46,1.41-.99,2.86-1.52,4.3-2.01,5.29-4.36,10.44-7.04,15.42-.73,1.37-1.62,2.74-2.47,4.09-1.56,2.23-2.86,4.63-3.86,7.16-.38,1.12-.73,2.22-1.07,3.26-.91,3.48-2.35,6.81-4.26,9.86-2.68,3.75-5.7,7.25-9.01,10.46-1.71,1.81-3.25,3.78-4.6,5.87-1.17,1.84-2.49,3.58-3.93,5.21-1.85,2.02-3.92,3.92-5.9,5.73-2.13,1.97-4.32,3.98-6.31,6.18-1.22,1.39-2.43,2.84-3.57,4.28-1.01,1.27-2.07,2.57-3.16,3.82-.59.66-1.26,1.31-1.91,1.91-1.26,1.05-2.35,2.29-3.2,3.69-1.04,1.9-1.93,3.87-2.66,5.9-.91,2.62-2.12,5.14-3.59,7.49-5.32,7.84-14.52,12.7-28.17,14.9-6,.98-12.59,1.43-18.98,1.87-10.53.73-20.47,1.39-27.54,4.23-4.09,1.83-7.94,4.13-11.48,6.87-4.06,2.9-7.89,5.65-11.74,6.39-7.48,1.47-12.37-4.69-16.71-10.15-1.54-2.07-3.25-4-5.11-5.79-1.37-1.24-2.67-2.56-3.9-3.94-2.13-2.52-4.64-4.69-7.44-6.43-3.85-2.11-7.83-3.98-11.91-5.6-.87-.35-1.72-.73-2.6-1.08-11.48-4.92-18.09-11.04-22.74-21.15-2.98-6.43-4.12-13.1-3.81-22.27.28-9.05-7.49-15.63-13.73-20.92l-.22-.17c-1.32-1.14-2.72-2.26-4.2-3.42-6.67-5.31-13.59-10.81-15.94-18.89-.68-2.7-.76-5.51-.24-8.24,1.95-14.45,12.15-25.36,26.59-28.43,4.71-1.02,9.01-1.53,13.12-2.07,3.91-.5,7.63-1,11.19-1.81,2.05-.46,4.54-1.2,6.76-1.87,1.05-.33,2.07-.64,3-.89,5.6-1.6,9.96-1.29,13.35.91,6.33,4.09,8.46,14.28,10.59,27.13.56,2.87,1.33,5.69,2.31,8.45,1.81,5.56,3.69,11.31,2.27,16.69-.93,3.48-3.08,6.89-5.15,10.21-4.73,7.55-9.21,14.69-.16,22.25,2.15,1.81,4.36,3.49,6.51,5.09,8.32,6.27,16.17,12.18,18.32,24.05,1.95,10.59,8.62,17.18,19.88,19.59,22.7,4.92,40.57,5.37,53.02,1.39,9.55-2.92,16.99-10.45,19.81-20.03,2.94-10.36,7.67-21.58,14.48-34.39,2.24-4.41,4.95-8.57,8.09-12.39,2.5-2.77,5.21-5.33,8.11-7.68,2.21-1.91,4.5-3.86,6.57-6,1.46-1.54,2.98-3.09,4.44-4.57,3.98-4.03,8.1-8.22,11.79-12.64,6.55-7.86,11.5-18.01,15.13-31.03l.36-1.29c2.23-7.84,4.97-17.62,1.52-27.02-4.35-11.76-14.99-20.03-27.46-21.34-9.53-.91-14.99,3.3-16.57,12.91-.79,4.59-.4,9.05-.02,13.36.1,1.33.2,2.57.28,3.82.12,1.72.24,3.4.39,5.06.46,4.37.6,8.77.42,13.16-.95,14.03-5.11,19.3-12.96,28.14-7.95,8.92-17.14,18.8-25.68,22.87-5.38,2.57-19.76,8.24-36.69,5.23-29.05-5.15-45.8-19.72-49.86-43.36-.43-2.59-.67-4.98-.89-7.47-.3-2.93-.59-5.92-1.26-9.69-1.04-5.85-5.09-12.18-11.16-17.43-6-5.15-12.92-8.4-19.03-8.9-7.06-.56-12.43,3.63-16.75,7.03l-.63.5c-4.5,3.51-8.7,6.6-14.56,8.82-3.75,1.41-8.96,2.33-14,3.24-3.66.58-7.29,1.34-10.87,2.28-17.36,5.08-25.66,25.19-28.44,33.6l-.2.68c-1.26,3.76-2.78,8.39-1.66,13.78,1.68,8.14,8.11,14.96,13.2,19.26,11.54,9.8,18.66,23.83,24.06,36.3,1.06,2.72,1.81,5.56,2.23,8.45.45,3.04,1.25,6.01,2.39,8.86,2.78,6.35,6.21,11.35,10.16,14.86,3.69,3.3,8.22,5.52,12.56,7.68,3.42,1.6,6.71,3.46,9.84,5.56,6.15,4.36,12.17,10.17,10.14,20.07-.99,4.94-5.5,9.73-9.51,13.95-1.03,1.1-1.99,2.14-2.9,3.16-5.66,6.35-9.23,10.63-11.36,17.74-1.58,5.31-1.7,14.82-.26,21.65,1.16,5.5,2.58,10.79,4.02,15.88h.29c-1.44-5.11-2.86-10.4-4.04-15.94-1.41-6.79-1.31-16.23.25-21.51Z"/></g></g></svg>