<?xml version="1.0" encoding="UTF-8"?>
<svg xmlns="http://www.w3.org/2000/svg" version="1.1" viewBox="0 0 575.8 562.7">
  <!-- Generator: Adobe Illustrator 28.6.0, SVG Export Plug-In . SVG Version: 1.2.0 Build 709)  -->
  <g>
    <g id="Layer_1">
      <g>
        <path d="M267,1.4l.8.6c3.9,2.9,8.3,6.2,12.3,9.7h0c.4.3.8.7,1.2,1.1l.3.3c.5.5,1,1,1.4,1.4,8.9,8,18.5,12.4,26.9,12.4s15.3-4.1,20.9-12.2c2.9-4.2,5.3-9.5,6.8-14.7l.2-.6h-1.3V-.2c-1.5,5.1-3.8,10-6.7,14.3-5.3,7.7-12,11.6-19.8,11.6s-17.3-4.3-26-12.1c-.4-.3-.7-.7-1.1-1.1l-.3-.3c-.5-.5-1-1-1.6-1.6-4-3.5-8.2-6.6-12.3-9.7l-.3-.2c-.6-.4-1.1-.8-1.6-1.2h-.1c0-.1-2.1-.1-2.1-.1l1.2.9c.3.4.7.8,1.2,1.1Z"/>
        <path d="M.9,60.2v-.3c3.5-9.9,10.3-16.3,16.9-22.4h0c5.8-5.4,11.8-10.9,15.6-19,2.2-4.7,4-11.4,4.7-18.4V-.5c0,0-1.2,0-1.2,0V0c-.7,6.8-2.4,13.4-4.6,18-3.7,7.8-9.6,13.3-15.4,18.6C10.2,42.8,3.3,49.3-.2,59.5c-.1.3-.2.7-.3,1v4.8l1-3.7c.1-.5.3-1,.4-1.4Z"/>
        <path d="M285.6,1.2c.3.3.7.6,1,.9,6.4,5.9,13.6,12.6,21.3,12.6s5.8-1,8.4-3c2.4-1.8,3.6-3.7,4.8-5.5h.1c.6-1,1.1-1.8,1.6-2.5h.1c.5-1.1.9-2.3,1.2-3.5l.2-.6h-1.3V0c-.6,1-.9,2-1.3,3-.7.9-1.2,1.7-1.6,2.5-1.1,1.7-2.2,3.5-4.5,5.3-2.4,1.8-5,2.8-7.6,2.8-7.2,0-14.2-6.5-20.4-12.2l-1.8-1.7h-1.9l.9.9c.2,0,.5.3.8.6Z"/>
        <path d="M.7,102.9v-.3c2.1-5.2,3.5-12.4,4.7-18.7v-.5c1.4-6.7,2.6-13,4.5-17.5,3.2-7.7,9.8-14.3,16.8-21.2h.1c4.1-4.2,8.8-8.7,12.8-13.8,4.8-6.1,8-11.4,10.7-17.7,1.6-3.6,2.9-7.8,4.2-11.9l.2-.5c0-.3.2-.5.3-.8v-.5h-1.3V0c-.2.3-.3.6-.4.9h0c-1.1,3.7-2.5,8.2-4.2,12-2.7,6.2-5.8,11.4-10.5,17.4-3.9,4.9-8.5,9.5-12.6,13.5h-.1c-7.1,7.1-13.9,13.8-17.1,21.7-2,4.7-3.3,11.6-4.5,18.3-1.3,6.6-2.6,13.5-4.5,18.4,0,0,0,.2,0,.3v4l1-3.2c0,0,0-.2.1-.3Z"/>
        <path d="M18.6,167.7c2.8.6,5.4,1.6,7.9,2.6v-.2h.1v.2c9,3.7,20.4,8.2,24.7,17.3.3,5-1.5,9.3-3.4,13.8-2.7,6.5-5.8,13.9-4.1,25.5,1.3,8.9,6.5,14.5,12.5,21,2.5,2.7,5,5.4,7.3,8.5,6.3,8.3,10.7,18,13.8,25.4,3.4,8.1,6,14.4,15,16.6,4.1,1,10,1.9,17.6,2.7,2.8.3,5.4.5,7.7.5,3.9,0,7.2-.4,10.1-1.3,6.1-1.8,9.9-6.7,14.7-12.9,1.5-1.9,2.9-3.7,4.5-5.6,1-1.3,2.4-2.6,3.9-4.1l.3-.3c3.3-3.3,6.7-6.8,7.7-9.6.3-1.1.3-2.1.2-3.1v-.2c-.1-.9-.2-1.8-.1-2.7v-.3c.1,0,0-.2,0-.2-3.1-4.2-6.9-7.5-10.6-10.7l-.3-.3c-6.2-5.5-12.1-10.6-14.3-19-1.2-4.4-.7-9.2,1.3-14.5,2.2-5.7,7.3-11.9,14.4-17.6,2.2-1.8,4.5-3.6,6.9-5.4l3.4-2.7c16.7-13,35.6-27.7,45.9-40.6v-.2c.1,0,.1-.1.1-.1.3-1.6.3-3.4-.2-5.6-1.4-5.5-5.6-12-11.7-17.8-5.8-5.5-12.4-9.7-17.7-11.2-.4,0-1.3-.3-2.1-.5-7-1.6-14.3-.5-21.3.6-6,.9-11.6,1.7-17,1-11.7-1.5-20.2-9.4-23.2-21.6-3.9-15.9,7-26,17.6-35.8l.2-.2c7.9-7.3,16-14.8,18.1-24.9,2.1-9.5-.6-19.6-2.4-26.4-.6-2.4-1.4-5-2.5-8.1v-.3h-1.5l.2.7c1,2.7,1.8,5.5,2.5,8.1h0c1.7,6.7,4.3,16.6,2.3,25.8-2.1,9.7-10.1,17.2-18,24.4-10.8,10-22,20.4-17.9,37,3.1,12.7,11.9,20.9,24.2,22.5,5.6.7,11.4,0,17.4-1,6.9-1,14-2.1,20.8-.6.8.2,1.6.4,2.1.5,10.2,2.8,25.7,16.6,28.5,28,.5,1.8.6,3.4.3,4.9-10.4,12.8-29.1,27.4-45.7,40.3-3.9,3.1-7.2,5.6-10.3,8.1-7.3,5.8-12.5,12.3-14.8,18.1-2.1,5.6-2.6,10.6-1.4,15.3,2.3,8.9,8.4,14.2,14.8,19.8,3.4,3,7.3,6.4,10.5,10.5-.1,1,0,1.8,0,2.6v.2c.1,1.1.2,1.9-.1,2.8-.9,2.7-4.7,6.4-7.4,9.2v.4c-1.4,1.4-2.8,2.8-3.8,4.1-1.8,2.1-3.3,4.1-4.6,5.7-4.7,6-8.4,10.7-14,12.4-4.4,1.3-10.1,1.5-17.3.8-7.8-.8-13.5-1.7-17.5-2.6-8.4-2-10.9-8.1-14.2-15.9-3.3-8-7.6-17.4-13.9-25.7-2.4-3.1-4.9-5.8-7.3-8.5h0c-5.8-6.5-10.9-11.9-12.2-20.5-1.7-11.2,1.3-18.4,4-24.8v-.2c2-4.7,3.8-9,3.5-14.3v-.2c-4.7-9.7-16.4-14.4-25.7-18.1-2.4-1-5.1-2.1-8.1-2.7C12.4,165.1,6.1,164.3,0,164.1h-.5v1.3H0c5.8,0,12,.9,18.6,2.3Z"/>
        <path d="M160,2.6c.5,1.7,1,3.5,1.5,5.2h0c.7,2.8,1.5,5.6,2.3,8.2h0c1.7,6,3.4,11.5,4.1,16.6.5,3.5.5,7.1,0,9.7-1.3,7.6-6.5,13.5-11.4,19.3h-.1c-5.8,6.8-11.8,13.8-12.3,23.7.7,9,11,10.3,21,11.6l1.7.2c1.3.2,2.7.4,4,.6,7.4,1.2,16,3.6,24.9,6.9,3.1,1.2,6,2.6,9,4.1,5.5,2.7,10.8,5.3,16.9,6,.8,0,1.6,0,2.4,0,4.2,0,7.9-1.2,11-2.3,3.2-1.1,6-2.4,8.4-3.5,5.5-2.4,10.7-4.7,18.8-5.4,1.3,0,2.7-.2,4.3-.2,8.7,0,16,2.3,23.1,4.5h.1c5.9,1.9,11.9,3.8,18.2,3.8s2.5,0,3.6-.2c9.4-1.2,16.5-6,21.9-14.8,4.9-8,7.6-17.9,9.7-26.7.7-2.7,1.8-7.8,2.2-11.6.4-3.6-.2-6.3-1.8-8.1-2.9-3.4-8.9-3.6-15.2-3.8-2.9,0-5.9-.2-8.8-.6-12.7-1.6-23.3-3.3-35-8.2-7.5-3.1-16.2-7.3-25.8-12.5-10.8-5.9-23-13.2-31.5-25.5l-.2-.2h-1.5l.5.8c8.8,12.7,21.2,20.1,32.1,26,6.4,3.5,16.1,8.5,25.9,12.6,11.8,4.9,22.5,6.6,35.3,8.3,2.8.4,5.6.5,8.4.6h.7c6.3.2,11.7.4,14.3,3.3,1.4,1.6,1.9,3.9,1.5,7.2-.5,4.1-1.8,9.7-2.2,11.4-4.4,18.3-10.8,38-30.5,40.5-1.1,0-2.2.2-3.4.2-6,0-11.7-1.8-17.9-3.7-7.2-2.2-14.6-4.6-23.5-4.6s-3,0-4.4.2c-8.2.7-13.4,3.1-19,5.5l-.7.3c-2.4,1.1-4.9,2.1-7.7,3.1-3,1.1-6.5,2.2-10.5,2.2s-1.5,0-2.3,0c-5.9-.6-11-3.2-16.4-5.8h-.1c-2.9-1.5-5.9-3-9-4.2-8.9-3.3-17.6-5.7-25.1-7-1.8-.3-3.7-.5-5.8-.8-9.9-1.3-19.3-2.5-19.9-10.4.4-9.3,6.3-16.1,11.9-22.7h.1c4.9-5.7,10.3-12,11.8-20.1.5-2.6.5-6.3,0-10.1-.7-5-2.3-10.4-4-16.2v-.4c-1-3.1-1.8-5.7-2.5-8.2-.4-1.6-.9-3.5-1.5-5.4-.1-.3-.2-.6-.3-1-.1-.5-.3-.9-.4-1.4v-.4h-1.4l.3,1c-.2,1,0,1.7.2,2.4Z"/>
        <path d="M4.8,30.3l.4-.3c5.3-3.4,10.3-6.6,13.8-12h0c2.7-4.2,5.2-9.3,5.3-18v-.5h-1.3v.5c0,8.4-2.4,13.3-5,17.3-3.4,5.2-8.3,8.4-13.5,11.7l-.5.3c-1.4.9-2.8,1.8-4.2,2.8h-.2v1.6l.8-.6c1.4-.8,2.9-1.8,4.4-2.8Z"/>
        <path d="M177.1,19.8c.5,1.3,1.1,2.7,1.9,4.4l.2.4c1.5,3.5,3.1,7,3.7,10.7,1.5,10.4-3.9,17.2-9.1,23.8h-.1c-3.5,4.5-7.1,9-8.2,14.5-.3,1.3-.2,2.1-.2,3.1v.3c0,.5.1,1.1.1,2v.2c1.4,3.9,5.6,6.7,8.8,8.3,11.5,5.7,30.2,8.4,43.9,10.3,7.9,1.1,14.4,0,21.6-1.4h.4c5.4-1.1,11.1-2.1,17.6-2.1s3.4,0,5.2.2c.3,0,1.1,0,2.1,0h1c1.8.2,3.9.3,5.4.4,5.6.4,10.1,1.4,14.1,2.3h.2c5.6,1.3,10.9,2.4,18.8,2.4h2.6c6.5-1,12.4-7.8,14.7-16.8,1.9-7.5,1.5-17.4-5.6-23-8.2-6.4-32-12-44.8-13-2.7-.2-5.1-.3-7.3-.3s-4.9,0-8.1-.3c-8.6-.8-15.8-4.2-24-11.4-10.2-9-15.6-16-23.5-29.8-.8-1.4-1.6-3.2-2.4-5.3v-.3h-1.5l.2.7c.9,2.5,1.7,4.2,2.5,5.6,7.9,14,13.5,21,23.8,30.1,8.3,7.4,15.7,10.9,24.7,11.7,3.2.3,5.8.3,8.3.3s4.4,0,7.1.3c12.6,1,36.1,6.5,44.1,12.7,6.6,5.1,7,14.5,5.2,21.7-2.2,8.5-7.7,14.9-13.6,15.9h-2.5c-7.6,0-12.8-1.1-18.3-2.4h-.4c-4-1-8.6-2-14.3-2.5-1.7,0-4-.3-5.9-.4-1.1,0-2.1,0-2.5,0h-.1c-1.6-.2-3.3-.2-5.4-.2-6.8,0-12.8,1.1-18,2.1-5.1.9-10,1.8-15.3,1.8s-4.2,0-6.1-.4h-.3c-13.5-1.9-31.9-4.6-43.2-10.2-3-1.5-6.8-3.9-8.1-7.5v-1.9c-.1-1.1-.1-1.8.1-3,1-5.1,4.4-9.4,8-13.9,5.4-6.8,11-13.9,9.4-24.9-.6-4.1-2.4-8.2-3.9-11.4l-.3-.6c-.6-1.2-1.1-2.5-1.6-3.7-1.9-4.7-4.5-11.8-6.1-19.4v-.4h-1.4V.1c1.9,7.7,4.5,15,6.4,19.7Z"/>
        <path d="M28,131.9h0c3.6-4,6.8-8.2,10.1-12.7l.4-.5c5.5-7.3,11.2-14.9,18.5-21.1l1.5-1.5c.4-.5.9-.9,1.4-1.4,4.8-4.3,10.5-7.7,15.5-10.8l.7-.5c3.4-2.1,7-4.3,10.4-6.8,2.8-2.1,5.7-4.3,8.4-6.4,4.3-3.3,8.5-6.6,12.8-9.5,2-1.4,4.2-2.8,6.5-4.2,11.2-7.1,23.9-15.2,25.8-30,1-7.7-1-17.7-5.3-26.7v-.3h-1.5l.3.7c4.3,8.8,6.2,18.6,5.3,26.1-1.9,14.2-14.3,22.1-25.3,29-2.1,1.3-4.3,2.8-6.5,4.2-4.4,3-8.7,6.4-12.9,9.6l-.9.7c-2.5,1.9-5,3.9-7.6,5.7-3.5,2.6-7.2,4.9-11,7.2h-.2c-5.3,3.4-10.7,6.7-15.5,10.9-.4.3-.7.7-1.1,1,0,0-.3.3-.4.4l-.3.3c-.4.4-.8.8-1.2,1.1-7.5,6.4-13.4,14.3-18.6,21.3-3.7,5-6.9,9.1-10.4,13.1-6.9,8.2-16.6,13.7-27,15.9h-.4v1.4H.1c10.7-2.4,20.6-8.1,27.9-16.2Z"/>
        <path d="M11.7,121.5h0c3.7-5.3,3.7-14.9,3.3-22.6-.3-6.1-.2-17.9,3.8-27.6,3.1-7.5,10.8-14.4,17.6-20.4,1.1-1,2.2-2,3.2-3,14.4-13.2,21.6-25,27.9-38.7.5-1,.9-2.1,1.3-3.2l.2-.5c.5-1.4,1.1-2.9,1.9-4.5,0-.2.2-.4.3-.6l.5-1h-1.4v.3c-.2.2-.3.5-.5.7-.8,1.6-1.4,3.2-1.9,4.6v.3c-.5,1.1-1,2.2-1.5,3.3-6.2,13.6-13.3,25.3-27.6,38.3-.6.6-1.2,1.1-1.9,1.7-.5.4-.9.8-1.4,1.3-7.2,6.5-14.7,13.2-17.9,20.8-4.1,9.9-4.2,21.9-3.9,28.1.4,7.5.4,16.8-3.1,21.9-2.1,3.1-5.5,5.7-10.9,8.4h-.3v1.5l.7-.4c3.9-1.7,8.7-4.5,11.6-8.7Z"/>
        <path d="M4.3,7.7c1.7-1.7,2.6-4.5,2.6-7.7v-.5h-1.3v.5c0,2.8-.8,5.3-2.2,6.8-1,1.1-2.2,1.7-3.4,1.7v.5h-.5v.8h.5c1.6-.1,3.1-.8,4.3-2.1Z"/>
        <path d="M48.5,58.7c-7.2,4.3-14.6,8.6-17.6,16.9-1.1,3-1.1,6.3,0,10.4,1.1,2.4,3,3.6,5.6,3.6,4.1,0,8.9-3.1,10.9-4.8,4-3.4,7.6-8.2,10.5-12.1l1-1.3c1.4-1.9,2.9-3.8,4.4-5.6,2.6-3,4.7-4.9,6.4-5.9,6.1-3.6,13.9-6.3,22.1-9.2,11.5-4,23.5-8.2,31-15.1,4-3.6,6.4-9.3,6.7-15.6.2-6.7-2.2-13.1-6.6-18-.9-1-1.8-1.8-2.6-2.4h-.3c0,0-2,0-2,0l1.1.9c1,.8,1.9,1.6,2.7,2.5,4.2,4.6,6.5,10.7,6.3,17.1-.2,5.9-2.4,11.3-6.2,14.8-7.3,6.6-19.1,10.8-30.5,14.8-8.3,2.9-16.1,5.7-22.3,9.3-2.7,1.6-5.8,5.2-6.7,6.2-1.8,2-3.4,4.3-5,6.4l-.4.5c-3.2,4.3-6.5,8.6-10.2,11.8-2.1,1.8-6.6,4.5-10.1,4.5s-3.6-.9-4.4-2.8c-1-3.8-.9-6.8,0-9.6,2.8-7.7,10-12,17-16.2,5.1-3,9.9-5.9,12.9-9.9,5.2-7,10-17.3,13.8-25.5l.5-1c.4-.8.7-1.6,1.1-2.4,2.6-5.8,5.4-11.9,9.1-16.3,1.3-1.6,2.9-3,4.8-4.3l1.3-.9h-2.3c-1.8,1.4-3.4,2.8-4.7,4.4h0c-3.9,4.5-6.6,10.7-9.3,16.6-.4.9-.8,1.8-1.2,2.7v.3c-4.3,8.4-9.1,18.7-14.3,25.8-2.8,3.8-7.5,6.6-12.5,9.5Z"/>
        <path d="M191,72.7v.2c.5.4.7,1,1,1.7h.1c0,0,.2.4.2.4,2.1,1.9,5.1,3,8.6,3s9.8-2.1,12.2-5.2c1.5-1.9,2-4.1,1.4-6.4-1.1-4.2-5.1-5.6-9.1-6.6l-.3-.3-.3.3c-7.2,1.1-14.5,5.5-13.8,12.7v.2ZM200.8,76.7c-3.1,0-5.8-.9-7.6-2.6h0c-.3-.8-.5-1.4-1-2-.5-7.1,8.1-10.4,12.8-11.1,4,1,7.3,2.2,8.2,5.7.5,1.9.1,3.8-1.2,5.3-2.1,2.8-6.6,4.7-11.2,4.7Z"/>
        <path d="M263.3,77.3l.2.4h.1c4.4,2.8,11.6,4.7,17.9,4.7s11.7-.9,13.7-6.7v-.2c0-2.1-.7-3.9-2.3-5.5-2.8-2.9-8.3-4.7-14.4-4.7s-16.2,3.1-16.3,9.9v.3c.1,0,.3,0,.3,0,.3.4.6,1.1.8,1.7ZM263.5,74.9c.3-5.8,8-8.4,15.1-8.4s11,1.6,13.5,4.3c1.3,1.3,1.9,2.8,1.9,4.5-1.8,5-8.6,5.8-12.5,5.8-6,0-12.9-1.7-17.1-4.3v-.2c-.2-.6-.5-1.2-.9-1.7Z"/>
        <path d="M135.9,197.9c5-4.3,10.1-7.8,15-11.2l.5-.3c5.5-3.8,11.2-7.7,16.6-12.7,8.3-7.5,17.7-16,19.2-29h0c-1-6.2-2.9-12.6-9.9-17.1-4-2.6-8.4-3.8-13.8-3.8s-9.2.8-14.1,1.7h-.4c-5.3,1-10.8,2-16.5,2s-2.7,0-4.1-.2c-2.6-.2-5.8-1-9.7-2h-.2c-4.8-1.2-9.8-2.4-13.8-2.4s-1.6,0-2.4.2c-5.5.8-11.3,5.6-15.7,9.6-7.3,6.6-14.3,13.6-15.4,19.4-.5,2.3-.3,5.9,0,8.5.4,3.8,1.2,6.9,1.9,10v.5c1.5,5.7,3,11.5,2.3,20.9-.3,4.4-1.2,8.1-2.2,12.5h0c-1.5,6.5-3.1,13.3-2.5,23.4h0c5,17.6,11,30.9,18.3,40.7,1.7,2.3,3.8,4.9,6.4,7,3.8,3,9.2,4.8,14.4,4.8s9.8-1.8,12.7-5.2c3.3-3.7,4.5-9,3.6-15.7-.5-3.8-1.9-7.8-3.2-11.4-1.3-3.7-2.7-7.5-3.1-11.2-1.9-14,4.2-28.6,16.1-39ZM118.6,237.1c.5,3.7,1.9,7.6,3.2,11.4,1.2,3.5,2.7,7.5,3.1,11.2.9,6.3-.2,11.3-3.3,14.7-2.7,3.1-6.8,4.7-11.8,4.7s-10-1.7-13.6-4.6c-2.5-2-4.5-4.6-6.2-6.8-7.1-9.6-13-22.7-18-40.1-.6-10,.9-16.6,2.5-22.9.9-3.7,1.9-7.9,2.2-12.7.7-9.7-.8-15.6-2.2-21.3v-.2c-.8-3.1-1.6-6.4-2-10.1-.3-2.5-.4-6,0-8.1,1.1-5.5,7.9-12.2,15.1-18.8,4.3-3.9,9.9-8.5,15.1-9.3.6,0,1.3,0,2.2,0,4,0,9.2,1.3,13.8,2.4,3.6.9,7.1,1.7,9.8,2,1.4.1,2.8.2,4.2.2,6,0,12-1.1,16.8-2h.6c4.8-.9,9.2-1.7,13.6-1.7s9.4,1.1,13.2,3.6c6.6,4.3,8.4,10.3,9.3,16.1-1.5,12.4-10.7,20.7-18.8,28.1-5.4,4.9-11,8.8-16.6,12.6-4.8,3.3-10.3,7-15.6,11.7-12.4,10.5-18.6,25.5-16.6,40Z"/>
        <path d="M142.5,181.2c6.4-4.4,12.5-8.5,17.9-13.5,1.8-.9,3.1-2.5,4.1-3.9l.2-.3c.8-1,1.6-2,2.6-2.8h.1c5.1-6.4,6.7-13.9,4.2-19-1.6-3.3-5.5-7.2-15.2-7.2s-2.5.1-4,.2c-3,.3-6.2.9-10.2,1.6h-.1c-4,.7-8.6,1.6-13.1,2h-.8c-.7.2-1.4.2-2,.3-12.5,1.2-20,2-27.7,11-5.4,6.4-8.2,14.2-9.1,24.8-.5,6.7,0,14,.2,20.5.2,3.3.3,6.3.4,9h0c.2,1.1.4,2.1.6,3.1v.6c.8,4.5,1.7,10.1,6.7,12.7h.2c0,.1,0,.1,0,.1,5.9-.4,9.6-5.6,13.5-11.1l.4-.6c1.2-1.7,2.5-3.5,3.8-5,8.4-9.7,17.8-16.1,26.9-22.3l.3-.2ZM97.6,219.1c-4.2-2.3-5-7.1-5.7-11.7v-.8c-.3-1-.4-2-.6-2.9,0-2.2-.2-4.5-.3-7v-2.2c-.4-6.3-.8-13.5-.3-20,.8-10.2,3.5-17.8,8.7-24,7.2-8.6,14.2-9.3,26.7-10.6h0c.7-.1,1.3-.1,2-.2h.8c4.7-.6,9.2-1.4,13.4-2.2l1.1-.2c3.2-.6,6.3-1.1,9-1.4,1.4-.1,2.7-.2,3.9-.2,9.1,0,12.7,3.5,14.1,6.5,2.3,4.8.7,11.6-4,17.5-1.1.9-2,2-2.9,3.1h-.1c-1.1,1.5-2.1,2.9-3.8,3.7h-.1c-5.4,5.2-11.5,9.3-18,13.7-9.2,6.3-18.7,12.8-27.2,22.6-1.4,1.6-2.8,3.5-4,5.3l-.3.5c-3.8,5.1-7.3,10-12.5,10.5Z"/>
        <path d="M262.5,172.1h.3-.3c2,19.1,4,37.1,18.9,50,10,8.6,26.2,17.9,41.7,17.9s17.4-3.5,23.3-10.5c5.1-6.1,7.8-13.4,10.7-21.2.2-.5.4-1,.6-1.6l.4-1.1c.4-1,.8-2,1.2-3l.7-1.8c3.3-8.7,6.4-16.8,7.2-23.7,1.8-15.3-3.8-21.5-10.7-27.4-10.6-9.2-24.4-9.9-39.1-10.7-3.6-.2-8-.6-11.8-.9-6-.5-14.2-1.3-20.9-1.3s-11.6.8-14.2,2.5c-10.5,7-9.3,23.8-8.3,30.7l.3,2.1ZM271.2,140.3c2.3-1.6,6.7-2.3,13.5-2.3s14,.7,20.8,1.3h1.5c3.8.4,7.3.7,10.3.9,14.4.7,28,1.4,38.3,10.4,6.6,5.7,11.9,11.6,10.2,26.3-.8,6.6-3.8,14.6-7,23.2l-.7,1.9c-.4,1.1-.8,2.1-1.2,3.2-.4.9-.7,1.8-1,2.7-3,8-5.5,14.9-10.5,20.8-5.7,6.7-13.2,10.1-22.3,10.1-15.2,0-31.1-9.1-40.9-17.6-14.6-12.6-16.5-30.3-18.5-49.2l-.3-2.2c-.9-6.8-2.1-23,7.8-29.5h0Z"/>
        <path d="M276.6,175.1h0c1.8,16.5,3.3,30.8,16.7,41.3,6.2,4.9,17.4,10.7,28.6,10.7s10.3-1.5,14-4.3c10.5-8.1,15-24.9,15.7-36.8.8-13.8-4.3-26-13.6-32.5-8.6-6-19.4-6.6-30.8-7.2h-1c-2.1-.1-4.3-.2-6.5-.2-7.3,0-16.2.9-20.9,8.1-2.7,5.5-2.5,12-2.3,17.7v3.2ZM299.8,147.4c2.6,0,5.2.1,7.4.3h.2c11.2.6,21.8,1.2,30,6.9,9,6.3,13.8,18,13,31.4-.7,11.7-5.1,28.1-15.3,35.9-3.5,2.7-8,4.1-13.2,4.1-10.8,0-21.7-5.6-27.8-10.5-13-10.3-14.4-23.6-16.2-40.4,0-1,0-2.1-.1-3.2h0c-.1-6-.3-12,2.2-17.1,4.3-6.6,12.8-7.4,19.8-7.4Z"/>
        <path d="M114.1,173c.3.2.6.5.9.8l.2.2c.4.4.8.9,1.4,1.1h0c0,.1.3.1.3.1h0c7.6-1.3,16.3-5.3,22.7-10.3,2.6-2,5.6-4.8,6.2-8.3v-.5c-.4-.4-.8-.8-1.1-1.2l-.4-.4-.8-.8v-.3h-.5c-1.1-.1-2.4-.2-3.6-.2-6.7,0-15.8,2-21.3,7.7-3.1,3.2-4.5,7.1-4.4,11.5v.4c0,0,.3.2.3.2ZM119.1,161.8c5.2-5.4,13.9-7.3,20.4-7.3s2.2.1,3.2.2c.3.3.5.6.8.9.3.3.7.6,1,1-.6,3-3.3,5.5-5.6,7.3-6.1,4.9-14.5,8.7-21.9,10.1-.3-.2-.6-.5-1-.9-.3-.3-.6-.6-.9-.9,0-4,1.3-7.5,4-10.4h0Z"/>
        <path d="M304.5,209.1c4.5,2.9,9.5,4.5,14.2,4.5s11.4-2.7,15.1-7.8c8.5-11.8,4.7-34-7.5-43.2-3.3-2.5-8.9-5.6-17.1-5.6s-3.9.2-5.8.5c-8.7,1.5-13.2,8.3-13,19.7.2,8.6,2.1,24.1,14.1,31.9ZM318.8,212.3c-4.5,0-9.3-1.5-13.6-4.3-11.5-7.4-13.4-22.5-13.5-30.8-.2-10.7,4-17.1,12-18.4,1.9-.3,3.8-.5,5.6-.5,7.7,0,13.2,2.9,16.3,5.3,5.6,4.2,9.6,11.5,11,19.9,1.4,8.2,0,16.3-3.8,21.5-3.4,4.8-8.2,7.3-14,7.3Z"/>
        <path d="M16.7,272.8c9.7-1.6,13.1,4.6,16.4,10.6h0c1.1,1.9,2.2,3.9,3.5,5.6,1.6,2,4.3,5.7,8.3,5.7s.6,0,1-.1c4.6-.7,10.7-6.2,9.6-14.2-.9-6.4-5.1-11-13.4-14.6l-.6-.3c-.3-.1-.6-.3-.9-.4-3.8-1.6-7.4-3.1-9-6.6-1.7-7.2-2.1-17-2.4-27.3v-.4c-.3-8.3-.6-17.7-1.8-25.5-2.3-15-10-24-23.6-27.4-1.4-.4-2.6-.6-3.7-.8h-.6c0-.1,0,1.2,0,1.2H-.1c1.2.3,2.4.5,3.6.8,13,3.3,20.4,11.9,22.6,26.4,1.1,7.6,1.5,16.4,1.8,25v.3c.3,10,.7,20.4,2.5,28,1.8,4,5.6,5.6,9.7,7.3.2.1.5.2.7.3.3.1.6.2.9.4,7.8,3.4,11.8,7.7,12.6,13.7,1,7.3-4.4,12.2-8.6,12.8-3.7.5-6.4-3-8.2-5.1-1.2-1.6-2.2-3.4-3.4-5.4-3.5-6.4-7.2-13-17.8-11.3-4.9.8-10.4,3.4-16.8,7.9h-.2v1.7l.8-.6c6.5-4.4,11.9-7,16.6-7.7Z"/>
        <path d="M7,248.1c6-6.6,9.2-16.4,8.8-26.8-.4-10-4.2-19.2-10.1-24.7-1.8-1.3-3.6-2.1-5.5-2.6l-.6-.2v1.3H0c1.7.6,3.4,1.3,5,2.4,5.7,5.2,9.3,14,9.7,23.7.4,10.1-2.7,19.5-8.4,25.9-1.7,1.9-3.8,3.7-6.4,5.5h-.2v1.6l.8-.5c2.5-1.7,4.7-3.6,6.5-5.6Z"/>
        <path d="M170.8,222.7h0c4.1,9.5,8.7,18.6,13.8,26.9,2.2,3.6,4.6,7.4,7.7,10.5,7.4,7.4,20.2,12.5,31.1,12.5s11.2-1.5,15.2-4.5c6.7-5.1,9.5-11.3,8.3-18.7-.3-1.7-1-3.8-1.8-5.7-5.7-14.1-18.9-28.9-28.6-37.2-6.7-5.8-12.2-9.1-16.5-10-.9-.2-1.9-.3-3-.3-11.7,0-26,11.9-26.9,22.4,0,.5.1,1,.3,1.6v.3c.2.6.4,1.3.3,2v.2ZM197.1,197.5c1,0,1.9.1,2.8.2,4.1.8,9.4,4.1,15.9,9.7,9.5,8.3,22.6,22.9,28.2,36.7.8,1.9,1.5,3.8,1.7,5.4,1.1,6.9-1.6,12.7-7.9,17.5-3.8,2.8-8.6,4.3-14.4,4.3-10.6,0-23.1-5-30.2-12.2-2.9-2.9-5.2-6.5-7.5-10.2-5-8.2-9.6-17.2-13.7-26.7,0-.9-.1-1.7-.3-2.4-.1-.4-.2-.9-.3-1.3.9-9.8,14.6-21,25.7-21Z"/>
        <path d="M200.8,254.8c4.5,3.7,11.5,6.2,17.7,6.2s12.9-3.5,14.4-9.6c.5-1.9.4-4.5.1-6.2-.9-5.9-5-12.7-11.4-18.5h0c-5.9-5.3-12.8-9.2-18.2-10-1-.2-2-.3-3-.3-3.4,0-6.2,1.1-8.3,3.2-2.4,2.5-3.6,6.3-3.4,11,2.5,10.1,4.9,18.3,12.1,24.2ZM193.2,220.5c1.8-1.9,4.3-2.8,7.4-2.8s1.8.1,2.8.2c10.9,1.7,26.7,15.4,28.6,27.5.2,1.6.3,4-.1,5.7h0c-1.4,5.5-6.2,8.6-13.2,8.6s-12.6-2.3-16.9-5.9c-6.8-5.6-9.2-13.6-11.5-23.4-.4-4.2.7-7.7,2.9-9.9Z"/>
        <path d="M244.9,334.2c-6,4.2-12.1,8.5-13.7,15.8-.9,5.1.4,10,3.9,14.1,4.8,5.7,13.6,9.4,22.4,9.4s10.8-1.5,14.6-4.4c3-2.3,5.1-5.4,7.2-8.6l.4-.6c2.1-4.2,2.8-9.3,3.6-14.6h0c.7-4.7,1.3-9.5,3-14.2.9-2.7,2-5.1,3-7.4,3.1-7,5.7-13.1,4.5-28.1-.7-8.6-2.3-19.1-7.7-23.4h-.3c-2.2-.4-4.4-.3-7,.5-8.6,2.5-17.2,9.9-20.1,17.3-2,5.2-1.2,10.9-.4,16.3h.3c0,.1-.3.2-.3.2.7,4.9,1.4,9.6.1,13.7-2.2,6.2-7.9,10.1-13.5,14ZM259.5,306.2c-.8-5.3-1.6-10.9.3-15.8,2.7-7,11-14.1,19.2-16.5,1.6-.5,3-.7,4.4-.7s1.2,0,1.8.1c5,4.1,6.5,14.1,7.2,22.4,1.2,14.7-1.4,20.6-4.4,27.5v.3c-1.1,2.2-2.1,4.5-3,7.2-1.6,4.7-2.3,9.5-3,14.1v.3c-.8,5.3-1.5,10.2-3.5,14.3l-.3.5c-2.2,3.3-4.1,6.2-7,8.3-3.6,2.7-8.4,4.1-13.9,4.1-8.4,0-16.8-3.5-21.4-9-3.2-3.8-4.4-8.3-3.6-13.1,1.4-6.7,7.1-10.7,13.1-14.9h.1c5.7-4.1,11.6-8.2,13.8-14.9,1.7-4.3.9-9.1.2-14.2Z"/>
        <path d="M35.8,323.3c-2.8,0-5.9,1.7-8.5,4.8-3.2,3.7-4.9,8.5-4.4,12,1.3,6,6.7,9.1,11.4,9.1s6.2-1.4,8.1-4c3.8-5.2,2.7-16.1-1.9-20.1-1.4-1.2-3-1.8-4.7-1.8ZM34.3,347.9c-4.2,0-9-2.8-10.2-8.1-.5-3.1,1.2-7.6,4.1-11,2.3-2.7,5.1-4.3,7.5-4.3s2.7.5,3.8,1.5c4.3,3.7,5.2,13.6,1.7,18.3-1.5,2.4-4,3.6-6.9,3.6Z"/>
        <path d="M137.6,360.2c-.2-.3-.3-.6-.4-1v-.3c-.1,0-.2-.1-.2-.1-1.1-.8-2.5-1.2-3.8-1.2-2.1,0-4.2,1-5.7,2.6-1.4,1.5-2.1,3.4-1.9,5.4v.2c1.1,2.1,2.9,3.2,5.1,3.2,3.4,0,7.4-2.9,7.8-6.9h0c-.1-.7-.4-1.2-.7-1.7h-.2c0,.1.2,0,.2,0l-.2-.2ZM130.6,367.7c-1.7,0-3-.8-3.8-2.4,0-1.5.5-3,1.6-4.3,2-2.2,5.2-2.9,7.6-1.3.1.4.3.8.5,1.1l.2.4c.2.3.3.6.4.9-.3,3.2-3.7,5.6-6.5,5.6Z"/>
        <path d="M497.4,5.4c3.6,1.7,7.6,2.6,11.5,2.6s6.3-.6,9.2-1.8c3.2-1.3,6-3.4,8.1-6l.7-.8h-1.6l-.2.2c-2,2.4-4.5,4.2-7.4,5.4-6.1,2.5-13.5,2.2-19.7-.8-2-1-3.9-2.5-5.7-4.6h-.3c0,0-1.7,0-1.7,0l.7.8c2,2.3,4.1,4,6.4,5.1Z"/>
        <path d="M260.5,10.7l.5.3c2.6,1.7,5.2,3.4,7.7,5.3h0c2.3,1.6,4.5,3.4,6.7,5l.5.4c5.4,4.2,10.9,8.5,16.8,10.5,6.6,3.3,13,4.9,18.9,4.9s9.8-1.2,14.3-3.4C337.1,28,346,15.5,349.5,0v-.6c.1,0-1.2,0-1.2,0V-.2c-3.6,15.1-12.2,27.3-23,32.8-9.6,4.8-20.4,4.3-32.2-1.5-5.7-1.9-11-6-16.5-10.4l-.5-.4c-2.2-1.7-4.4-3.4-6.7-5.1-2.8-2-5.8-4-8.3-5.6l-.3-.2c-4.9-3.3-9.6-6.4-13.8-9.8h0c0,0-2,0-2,0l1.1.9c4.3,3.6,9.2,6.8,14.4,10.3Z"/>
        <path d="M571.4,77.2v.2c-1.4,7.1-2.8,13.9-4.8,18.7-7.6,18.3-29.8,26.8-42.5,30.2-4.4,1.2-8.3,1.8-12.1,1.8-14.4,0-22.3-9.3-30.6-19.2-1.7-2-3.5-4-5.3-6.2v-.2c-5.4-6.1-10.8-12.4-14.9-18.1-4.1-5.8-7.6-12.2-11-18.4v-.2c-3-5.3-6.2-11.3-9.9-16.7-.3-.5-.7-1-.9-1.3-5.3-6.9-13.3-10.3-21.1-13.7-1.6-.7-3.2-1.4-4.7-2.1-4-1.8-8.4-2.7-12.7-3.6-1-.2-2-.4-3.1-.6-1.1-.3-2.3-.6-3.5-.9h-.5c-2.5-.8-5-1.6-7.6-1.6s-1.3,0-2,.1h-.1c-2.7.5-5.9,1-9,1-5.9,0-9.6-1.9-11.2-5.9-1.8-4.2-1.2-11.4-.6-17.8v-.8c.2-.7.2-1.4.3-2v-.5h-1.3V0c-.1.9-.1,1.8-.2,2.8-.5,6.2-1.2,13.9.7,18.4h0c1.9,4.5,5.9,6.7,12.4,6.7s6.5-.5,9.1-1h.2c.5-.1,1.1-.1,1.8-.1,2.5,0,5.1.8,7.4,1.4,1.2.4,2.6.8,3.9,1,.6.1,1.2.3,1.8.4.4.1.8.2,1.3.3,4.2.8,8.5,1.7,12.4,3.5,1.5.7,3.1,1.4,4.7,2.1,7.6,3.3,15.5,6.7,20.6,13.3.2.3.4.5.6.8l.3.4c3.5,5.2,6.6,10.8,9.7,16.6,3.2,5.9,6.8,12.6,11.2,18.7,4.1,5.8,9.6,12.1,14.9,18.2h.1c1.9,2.3,3.6,4.3,5.3,6.3,8.5,10.1,16.6,19.6,31.6,19.6s7.8-.6,12.4-1.8c12.8-3.4,35.5-12.1,43.3-30.9,2-4.9,3.4-11.8,4.8-19.1h0c1.1-5.6,2.2-11.2,3.7-15.9v-4.2l-1,3c-1.7,5.1-2.9,11.3-3.9,16.8Z"/>
        <path d="M473.2,8.3h0c0,.1.1.2.1.2,8,10.8,22.2,17.3,38,17.3s7.7-.4,11.3-1.2c15.1-3.3,18.9-14.3,20.7-24.5v-.6c0,0-1.2,0-1.2,0V-.1c-.8,4.1-1.7,7.3-2.9,10.1-3.1,7.3-8.5,11.5-16.9,13.4-3.5.8-7.3,1.2-11.1,1.2-15.3,0-29.2-6.3-37-16.8-.9-2.4-1.7-5.4-2.3-7.9v-.4c0,0-1.2,0-1.2,0V.1c.9,3.4,1.7,6.1,2.5,8.2Z"/>
        <path d="M397.9,14.3h0c7.2,1,14.1,3.2,20.2,5.1,3.7,1.2,8.4,2.6,13,3.7,2.7.6,5.5,1.2,8.2,1.6,2.6.4,4.9.6,6.8.6,4.1,0,6.5-.9,7.3-2.7,2.1-4.4,3.5-13.7,3.6-22.7v-.5h-1.3V-.1c-.1,8.6-1.5,17.9-3.5,22.1-.6,1.3-2.7,1.9-6.2,1.9s-4.1-.2-6.6-.6c-2.6-.4-5.4-.9-8.1-1.6-4.4-1.1-8.7-2.4-12.9-3.7h-.2c-6.5-2.1-13.2-4.2-20.3-5.2-6.8-1-12.2-5.7-15.4-13.2v-.3h-1.5L381.3,0c3.5,8.2,9.3,13.2,16.6,14.3Z"/>
        <path d="M566.4,40.4c-3,3.8-3.3,11.2-3.4,17.2v1.5c0,.9,0,1.7,0,2.4-.7,14.7-2.3,30.1-12.9,41.5-10.3,8.8-22.4,13.8-33.1,13.8s-17-3.5-23.2-10.5c-4.1-4.6-7.6-9.4-11.7-15.1-2.2-3.1-4.6-6.4-7.1-9.6-12.3-15.8-17.9-28.7-19.1-44.3-.4-3.7.6-8.1,4.5-9.3,7.8.5,16.5,3.2,24.1,5.6h.2c9.1,2.9,18.4,5.9,27.3,5.9s3.1,0,4.8-.3c.8,0,1.6-.2,2.5-.3,8.7-1.1,20.7-2.6,27.6-8,6.8-5.2,7.2-13.9,7.5-23.9v-1.4c.2-1.6.2-3.3.3-4.9,0-.2,0-.3,0-.5V-.5c0,0-1.2,0-1.2,0V.6c-.2,2.1-.2,4.2-.3,6.2v.2c-.4,9.7-.7,18.1-7,23-6.7,5.2-18.5,6.7-27.1,7.7h-.3c-.7,0-1.5.2-2.2.3-1.5.2-3,.3-4.6.3-8.7,0-18-2.9-26.9-5.7l-.7-.2c-8-2.5-16.3-5.1-24.1-5.5h-.3c-4.7,1.5-5.9,6.5-5.4,10.7,1.3,15.9,6.9,29,19.4,45,2.5,3.2,4.9,6.5,7.1,9.6l.7,1c3.6,5,7.1,9.7,11.1,14.2,6.4,7.2,14.6,10.9,24.1,10.9s23.4-5.1,34-14.1c10.9-11.8,12.5-27.4,13.3-42.4,0-.8,0-1.7,0-2.6v-1.2c.2-5.8.4-13.1,3.2-16.6,2.2-2.8,4.9-5.2,8.6-7.8h.2v-1.6l-.8.6c-2.8,1.4-6.2,4-9.2,7.8Z"/>
        <path d="M569.6,132h0c-4.5,2.2-8.7,4.1-12,6.7h0c-1.8,1.5-4.8,3.9-4.5,7.3v.3c0,0,.3.2.3.2.6.5,1.1,1,1.5,1.4v.3h.4c3.5.7,6.9,1,10.4,1s7-.4,10.5-1.1h.4v-1.4h-.6c-6.6,1.5-13.6,1.5-20.2.2-.4-.4-.8-.9-1.3-1.3,0-2.5,2.2-4.4,4-5.8h0c3.3-2.7,7.7-4.7,11.9-6.6,2.1-1,4-1.9,5.8-2.8h.3v-1.5l-.7.4c-2,.8-4,1.7-6.1,2.7Z"/>
        <path d="M575.8,8.4c-2.7,0-5.4-2.9-5.6-6.3,0-.7,0-1.4,0-2.1v-.5h-1.3V0c0,.9,0,1.6,0,2.3.3,4,3.5,7.4,6.9,7.4h.5v-1.3h-.5Z"/>
        <path d="M532.1,51.2c-1.8,0-3.6.2-5.6.6-4.1.8-8.4,2.1-13.1,3.4h-.4c-5.1,1.6-10.3,3.1-15.3,4s-7.2,3.3-6.7,7v.2c1.6,3.4,2.9,7.2,4.2,11.3v.2c2.9,9,6,18.4,13.5,23.4,3.6,2.3,7.9,3.5,12.5,3.5,7.5,0,15.2-3.1,20.5-8.4,4.4-4.3,7.7-11.4,8.6-18.9,1.1-7.9-.5-15.4-4.4-20.6-2.2-3.6-7.6-5.7-13.8-5.7ZM541.2,95.3c-5.2,5-12.5,8-19.6,8s-8.5-1.2-11.8-3.3c-7.1-4.6-10.1-13.7-13-22.5v-.3c-1.4-4.1-2.7-7.9-4.3-11.4-.4-3,1.3-4.7,5.6-5.5,5.1-.9,10.4-2.4,15.8-4,5-1.5,9.1-2.7,12.9-3.4,1.8-.4,3.6-.5,5.3-.5,5.8,0,10.8,2,13.2,5.2,8.1,10.8,4.4,29.5-4.1,37.7h0Z"/>
        <path d="M357.1,256.5c8.4-4.3,10.6-11.9,13.1-20,.3-.8.5-1.7.8-2.5,3.4-11.2,8.4-22.5,21.3-29.6h.1c0-.1.1-.2.1-.2.1-.1.1-.2.2-.2,1.7-.9,3.4-1.8,5.1-2.7l7-3.7c3.4-1.8,6.9-3.6,10.3-5.4,1-.5,2.1-1.1,3.1-1.6s2.1-1.1,3.1-1.6c2.9-1.6,6.3-3.4,9.6-5,2.1-1,4-2.4,5.8-3.8l1.9-1.4c1.7-1.2,3.7-2.6,6-3.5,4.1-1.6,8.7-1.8,13.1-2h.3c3.5-.1,7.9-.3,12-1.5,3.6-1,6.4-2,8.6-5.3,7-10.2,3.5-17.8-2.2-27.4-6-10-13.2-17.8-21.5-23.1-1.4-.9-3-1.7-4.7-2.5s-3.5-1.6-5-2.7c-1.9-1.3-3.8-2.8-5.4-4l-.9-.7c-1.1-.9-2.2-1.7-3.4-2.6-6.1-4.4-13.3-9.2-21.4-12-2.2-.8-4.9-1.1-8.2-1.1s-4.6.2-6.6.6c-2.6.5-4.7,1.7-6.8,2.8-1.1.6-2,1.1-2.8,1.5-1,.4-1.9.8-2.9,1.1h-.3c-1.5.6-2.9,1.1-4.2,1.9-3.2,1.8-6.2,3.7-9.5,5.9-2.8,1.8-5.9,3.9-9.1,5.7-14.7,8.3-27.3,13-39.7,14.7-8.4,1.2-16.7,1-24.6-.4-3.6-.7-7.2-1.7-10.5-2.6h-.1c-6.1-1.7-12.3-3.4-18.5-3.4s-6.6.5-9.5,1.6c-6,2.2-11.2,6.7-16.8,11.5l-.3.2c-2.7,2.3-5.6,4.7-8.6,7-.7.5-1.6,1.1-2.6,1.8l-.6.4c-2.2,1.6-4.7,3.3-6.9,5.2-4.7,4-5.9,7.7-4.4,12.7,1.2,3.9,3.2,7.8,5.7,12.4,1.3,2.6,2.7,5.2,3.9,7.8.9,2,1.9,4.2,2.8,6.3l.4.9c6.2,14.1,12.6,28.6,21.9,40.3,3.4,4.2,7.4,8.3,11.4,12.3l.8.8c4,3.9,7.7,7.6,10.7,11.4,1.5,1.8,2.7,3.7,3.9,5.6,2.6,4,5.1,7.9,9.3,10.5h.1c0,.1,1.3,0,1.3,0,15.5-.9,28.9-1.7,43.2-4.3,9.9-2.1,17.1-4.1,21.1-6.1ZM291.5,265.5c-3.9-2.5-6.2-6.2-8.7-10-1.3-2-2.5-3.9-4-5.8-3-3.7-6.5-7.3-10.9-11.6l-.7-.8c-3.9-3.9-8-8-11.3-12.2-9.3-11.7-15.7-26.2-21.9-40.2l-.4-1c-.9-2-1.8-4-2.6-5.9-1.2-2.6-2.6-5.2-4-7.9l-.3-.5c-2.1-4.1-4.2-8-5.3-11.7-1.4-4.5-.3-7.7,4-11.3h0c2.3-1.9,4.9-3.8,7.1-5.3l.4-.3c1.2-.8,2-1.4,2.6-1.9,3.1-2.3,5.9-4.7,8.7-7.1l.3-.2c5.5-4.7,10.6-9.1,16.4-11.2,2.9-1,5.9-1.5,9.1-1.5,6.1,0,12.3,1.8,18.3,3.5,3.5,1,7,2,10.6,2.6,8.2,1.5,17,1.6,25,.4,12.5-1.8,25.2-6.5,40.1-14.9,2.7-1.5,5.4-3.3,8-5l1.2-.8c2.8-1.9,6.1-4,9.4-5.9,1.3-.7,2.8-1.2,4-1.7h.1c1.1-.4,2.2-.7,3.2-1.3.8-.4,1.6-.8,2.3-1.2l.8-.5c2-1.1,3.9-2.1,6.2-2.6,2-.4,4.2-.6,6.4-.6s5,0,7.8,1.1c8,2.8,15.1,7.6,21,11.9,1.5,1.1,3,2.2,4.3,3.3l.9.7c1.5,1.1,3,2.3,4.5,3.4,1.7,1.2,3.7,2.1,5.2,2.8h.2c1.5.8,3,1.5,4.4,2.4,8.2,5.3,15.3,12.9,21.1,22.7,5.5,9.2,8.8,16.5,2.3,26.1-2,2.9-4.3,3.8-7.9,4.8-3.6,1.1-7.4,1.3-11.1,1.4h-.6c-4.4.2-9.3.4-13.8,2.1-2.4.9-4.5,2.4-6.2,3.6-.4.3-.7.5-1.1.8l-.6.4c-1.9,1.4-3.8,2.8-5.8,3.8-3.2,1.6-6.4,3.2-9.4,4.9l-1.5.8c-1.6.9-3.3,1.8-4.9,2.6-5.1,2.6-9.9,5.2-14.4,7.5-2.7,1.5-5.4,2.9-8.2,4.3h-.2c-.1.2-.2.3-.3.4-13.2,7.3-18.2,18.9-21.8,30.3-.3.8-.5,1.7-.8,2.5-2.3,7.8-4.6,15.2-12.5,19.2-4,2-11,4-21.1,5.8-14.3,2.6-27.6,3.4-43.1,4.3l-.5.5Z"/>
        <path d="M364.6,217c7.5-17.9,20.5-41.1,40.3-49.8,3.5-1.5,7-1.9,10.6-2.2,1.5-.1,2.9-.3,4.4-.5,5.7-.8,12-2,19.3-3.6,1-.2,2.1-.4,3.1-.7,5.5-1.2,12.8-4.7,15.2-10.5,1.8-4.3,1.5-8.2-.7-11.7-6.6-10-29.2-13.4-38.5-13.4h-.2c-4.2,0-8.7.5-12.3.8h-.8c-2,.3-4.1.5-6.2.7-4,.3-7.2,1.4-11.1,3.9-4,2.5-8.2,3.6-13.3,3.6s-7.6-.6-11.7-1.2h-.3c-1.2-.2-2.4-.4-3.6-.6h-.3c-5.4-.8-11.3-1.2-18.5-1.2s-9.1.1-13.2.3h-1.3c-3.9.1-7.8.2-11.8.2-7.9,0-14.2-.5-20.1-1.5-1.6-.3-3.3-.7-5.2-1.1h-.4c-4.2-1.1-9-2.3-13.9-2.3s-5.1.3-7.4,1c-11.3,3.4-20.7,17.2-22.5,28-.6,4-.6,8.1.3,13,1.3,7.3,3,13.7,4.8,20.4l.5,2c5.5,20.3,13.5,32.3,29.8,44.2l.6.5c8.7,6.4,16.2,11.9,24.6,14.5,4.2,1.4,9.4,2.1,15,2.1s14.8-1.3,20-3.4c14.1-5.7,19-17.7,24.8-31.5ZM274.3,127.6c4.8,0,9.7,1.2,13.7,2.1,1.7.4,3.7.9,5.6,1.2,5.8,1,12.3,1.5,20.3,1.5s8.9-.1,13.1-.3c4.1-.1,8.7-.3,13.2-.3,7,0,12.8.4,18.3,1.2.9.1,1.8.3,2.6.4l1.3.2c4.2.7,8.2,1.3,12.1,1.3s9.8-1.2,14-3.8c3.7-2.4,6.8-3.4,10.6-3.7,2.1-.2,4.5-.4,6.9-.6,4.4-.5,8.3-.8,12.2-.8h.2c9.1,0,31.1,3.3,37.5,12.8,2,3.1,2.3,6.6.6,10.5-2.2,5.3-9.1,8.6-14.3,9.7l-.8.2c-.8.2-1.6.3-2.3.5-7.4,1.6-13.7,2.7-19.3,3.5-1.5.2-3.1.3-4.4.5h-.2c-3.7.4-7.2.7-10.9,2.3-20.2,8.8-33.4,32.3-41,50.5-5.6,13.6-10.5,25.3-23.8,30.8-5,2.1-12.4,3.3-19.6,3.3s-10.4-.7-14.6-2c-8.2-2.6-15.6-8-24.2-14.3l-.6-.4c-16-11.8-24-23.5-29.3-43.5l-.5-2c-1.7-6.3-3.5-12.9-4.8-20.3-.8-4.7-.9-8.7-.3-12.6h0c1.7-10.4,10.7-23.7,21.6-26.9,2.3-.7,4.7-1,7.1-1Z"/>
        <path d="M570.1,176.7c-7.2,0-13.6,2.2-19,6.6l-.2.2c-.6,1.1-1.2,2.1-1.7,2.9-1.8,2.9-3,4.9-3.6,10-.4,4-.3,8.1,0,12v.2c.2,4.5.4,9.2-.4,13.9-2.7,16.6-15.9,33.6-30.7,39.7-1.4.6-3.3,1.3-4.7,1.6-1.2.2-2.1.3-3,.3-8.4,0-10.3-8.4-12.2-16.6l-.3-1.2c-.4-1.4-.7-2.9-1.1-4.3-2-6.9-4.8-11.5-8.9-15-4.1-3.4-9.6-5.6-17.9-7.1-3.4-.6-6.5-.9-9.4-.9-5.7,0-11.2,1.1-18.3,3.6-.3.1-.6.2-.9.3-3.8,1.3-7.4,2.5-9.9,6.4-4.6,7.2-8.3,18.7-6.5,26.9,1.8,8.3,7.9,9.9,13.9,11.5,1.2.3,2.3.7,3.5,1,1.9.6,3.3,1.2,4.5,1.9,9.3,5.2,19.4,9.9,32,14.7,10.5,4.1,15.6,13,20.6,21.8h.1c4.9,8.6,10,17.5,20.1,21.7,1.6.7,3.4,1,5.3,1s4.8-.5,7.5-1.4c7.3-2.5,13.8-10.3,18.6-16.8h0c7.5-10.1,16.7-22.5,27.7-30.5l1.1-.7v-1.6l-.8.6c-.3.2-.7.5-1,.7-11.1,8.1-20.4,20.6-28,30.7h0c-4.7,6.4-11,14-18,16.4-4.7,1.6-8.7,1.7-11.9.4-9.8-4.1-14.8-12.8-19.6-21.2-5.1-8.9-10.3-18-21.3-22.3-12.5-4.8-22.6-9.5-31.8-14.7-1.4-.8-2.9-1.4-4.8-2-1-.3-2-.6-2.9-.9l-.6-.2c-5.8-1.6-11.4-3.1-13-10.6-1.7-7.9,1.9-19,6.4-26,2.2-3.5,5.6-4.6,9.2-5.8.3-.1.6-.2.9-.3,6.9-2.5,12.2-3.5,17.9-3.5s5.9.3,9.1.9c15.5,2.9,22,8.2,25.8,21.2.5,1.8,1,3.8,1.4,5.5,2,8.6,4.1,17.5,13.5,17.5s2.2-.1,3.2-.3c1.6-.3,3.8-1.2,4.9-1.6,7.5-3.1,14.7-8.9,20.5-16.5,5.7-7.4,9.6-16,10.9-24.2.8-4.8.6-9.6.4-14.3-.2-3.9-.3-7.9,0-11.8.5-4.8,1.6-6.6,3.5-9.5l.4-.7c.4-.6.8-1.4,1.3-2.2,5.2-4.2,11.3-6.3,18.1-6.3s3.7.2,5.6.5h.6c0,.1,0-1.2,0-1.2h-.4c-2-.3-3.9-.4-5.7-.4Z"/>
        <path d="M572.8,193.7c-5.5,0-10.4,3.8-12.4,9.6h0c-1.4,4.1-1.7,8.2-2,13.1v.4c0,1.5-.2,3.2-.4,4.9-.7,7.5-2.2,15.5-3.4,21.9v.4c-1.4,7-2.6,13.7-2.9,19v.3c0,0,.3.2.3.2.9.7,1.9,1.3,3.1,1.3s.5,0,.7-.1h0c2.7-1.6,5.5-3,8.3-4.4,3.7-1.8,7.9-3.8,11.7-6.4h.2v-1.6l-.8.5c-3.6,2.5-7.7,4.5-11.6,6.4l-.4.2c-2.7,1.3-5.4,2.7-8,4.2h-.3c-.8,0-1.5-.4-2.1-.8.3-5.2,1.5-11.8,2.8-18.8,1.4-7.2,2.8-14.7,3.4-22.1.2-2,.3-3.8.4-5.3.3-4.7.5-8.8,1.9-12.8,1.8-5.3,6.2-8.7,11.2-8.7s1.8.1,2.8.4l.6.2v-1.3h-.4c-.7-.6-1.8-.7-2.8-.7Z"/>
        <path d="M457.7,238.9c-5.3,0-10.6,2.6-10.7,8.5h0c1.6,5.7,9.3,12.5,16.1,12.5s3.3-.4,4.6-1.3c2-1.3,3.2-3.2,3.6-5.5.5-2.9-.4-6.5-2.3-9.1-2.1-3.1-6.5-5.1-11.3-5.1ZM463.2,258.7c-6.2,0-13.3-6.2-14.9-11.4.1-4.9,4.8-7.2,9.4-7.2s8.4,1.8,10.5,4.6c1.7,2.3,2.5,5.5,2,8.1h0c-.4,2-1.4,3.6-3.1,4.7-1.1.9-2.4,1.2-3.9,1.2Z"/>
        <path d="M545.8,272.2h-.2c-.5-.3-1.1-.4-1.7-.4-2.4,0-4.9,1.4-7.3,2.8l-.3.2c-.8.4-1.6.9-2.3,1.3-.5.2-.9.5-1.4.7h0c-7.8,3.8-18.5,9.1-17.8,21.8h0c1.1,4.1,4.5,8.2,9.5,8.2s.9,0,1.4-.1h0c8.8-3.6,14-13.8,17.6-22.2l.3-.6c1.6-3.8,3.5-8.1,2.4-11.3l-.2-.4ZM543.8,273.1c.4,0,.7,0,1,.1.7,2.7-1,6.6-2.5,10.1l-.3.7c-3.5,8.2-8.6,18-16.8,21.5-.5.1-.8.1-1.1.1-4.3,0-7.2-3.5-8.2-7-.7-11.7,9.6-16.8,17.1-20.5l.6-.3c.3-.2.7-.3,1-.5.7-.3,1.3-.7,2-1.1l.7-.4c2-1.3,4.4-2.7,6.5-2.7Z"/>
        <path d="M451.1,366.7c-2.7-2.4-5.3-3.7-7.9-3.7-6.1,0-10.2,6.9-11.1,13.7-.6,5-.5,10.5.4,15s2.8,6.9,6.6,8.2c.8.3,1.9.6,3.1.8,2,.4,3.7.6,5.3.6,4.4,0,7.6-1.5,9.6-4.6,2.2-3.4,1.9-11.2,1.3-15.3-.9-5.8-3.5-11.2-7.3-14.7h0ZM447.5,400c-1.6,0-3.2-.2-5-.6-1.1-.2-2.1-.5-2.9-.8-3.4-1.2-4.9-3.1-5.7-7.2-.9-4.3-1-9.6-.4-14.6.8-6.3,4.4-12.6,9.8-12.6s4.7,1.1,7,3.3c3.6,3.4,6.1,8.5,6.9,14,.5,3.6.9,11.4-1.1,14.4h0c-1.8,2.8-4.7,4.1-8.6,4.1Z"/>
        <path d="M14.1,458.6h.9c4.3-.7,8.8-1.3,13.2-2.1,2.3-.4,4.2-.9,6.1-1.3l1.1-.3c2.4-.6,4.7-1.2,7.7-1.6,2.8-.4,5.7-.6,8.6-.8h.2c6.6-.4,13.4-.9,19.3-4,7.5-4,8.3-13.9,5.8-22-4.2-13.5-9.7-22.9-16.8-28.6-2.7-2.2-5.2-4.7-7.7-7.2h0c-5-5.1-10.2-10.2-17-13-5.2-2.1-11.4-3.7-16.8-5.1-3.4-.9-7-1.8-10.4-2.9-1.7-.5-3.6-1.2-5.1-1.8-1-.4-2-.7-3-1.1l-.7-.2v1.3l1.6.6c.6.2,1.1.4,1.7.6l.8.3c1.5.6,3,1.1,4.3,1.5,3.5,1.1,7.1,2,10.4,2.9h.2c5.6,1.5,11.4,3,16.5,5,6.5,2.7,11.6,7.7,16.5,12.6h0c2.2,2.3,5,5.1,7.9,7.4,6.8,5.6,12.2,14.7,16.3,28,2.4,7.6,1.7,16.9-5.2,20.5-5.6,3-12.3,3.4-18.8,3.9-3.4.2-6.2.4-8.9.8-3.1.5-5.6,1.1-8.2,1.7-2,.5-4.2,1-6.7,1.5-4.7.8-9.6,1.5-14.1,2.1h-.3c-4.9.7-9.4,1.3-13.8,2.1h-.4v1.4H0c4.5-.9,9.1-1.6,14.2-2.2Z"/>
        <path d="M12.7,443.2c2.7-.9,5.7-1.7,9.6-2.8h.3c6-1.8,12.2-3.5,18.1-6.1,6-2.6,12-5.6,14.8-11.8,3.5-8.1,0-16.8-9.2-23.2-1.4-1-2.7-1.9-3.9-2.8l-.6-.4c-6.1-4.5-11.9-8.7-20.3-10.3-5.1-.9-12.9-1.6-21.5-1.8h-.5v1.3H0c8.4.2,16.2.8,21.3,1.8,8.1,1.6,13.7,5.7,19.7,10.1l.6.4c1.3.9,2.6,1.9,3.9,2.8,8.7,6.1,12,14.2,8.7,21.7-2.5,5.8-8.4,8.7-14.1,11.2-5.9,2.6-12.1,4.3-18.1,6h-.2c-2.7.7-6.2,1.7-9.6,2.8-4,1.3-8.1,2.1-12.4,2.9h-.4v1.4H0c4.2-1.1,8.5-1.9,12.6-3.2Z"/>
        <path d="M19.7,472.1h.5c6.6.3,12.6.4,18.7-.2,5.5-.6,10.5-1.6,16-2.9.6-.1,1.2-.3,1.8-.4.7-.1,1.3-.3,2-.4.9-.2,1.8-.4,2.8-.6h.2c9.6-2.1,19.5-4.3,27.6-9.8,9.7-6.6,10.9-20.3,6.5-29.8-4-8.6-10.6-15.3-17-21.9-5.3-5.3-10.7-10.8-14.6-17.5-1.7-2.3-3.1-4.5-4.5-6.7l-.2-.3c-4.7-7.3-8.4-13-18.3-15.3-18.5-4.3-34.5-8.1-37.5-26.4-1-6.5.4-11.6,1.8-16.6,1.1-4,2.2-7.8,1.9-12.1v-.2c-.1,0-.2-.1-.2-.1-.5-.4-.9-.9-1.4-1.4-.6-.6-1.3-1.3-2-1.9l-.2-.2h-.2c-1.2.1-2.3.2-3.4.5h-.4v1.4H.2c1-.3,2-.5,3.1-.5.6.5,1.2,1.1,1.7,1.6l.3.3c.3.3.6.6.9.9.2,4.1-.9,7.8-1.9,11.5-1.4,5.1-2.9,10.3-1.8,17,3.1,19.2,19.5,23,38.5,27.4,9.4,2.2,13,7.8,17.5,14.8,1.3,2,2.8,4.4,4.7,6.9,3.9,6.6,9.3,12.1,14.6,17.5l.3.4c6.3,6.4,12.7,13,16.6,21.3,4.1,9,3,22-6.1,28.2-8.1,5.5-18.4,7.6-27.4,9.5-.4.1-.7.2-1.1.2-.6.1-1.1.2-1.7.4-1.3.3-2.5.6-3.8.9h-.5c-4.9,1.2-9.9,2.3-15.4,2.9-6,.6-12.2.4-18.2.2h-.6c-7-.2-13.6-.5-20,.5h-.4v1.4H.1c6.2-.9,12.7-.7,19.6-.5Z"/>
        <path d="M206.1,411.5l.4.2c.8.4,1.5.7,2.1,1.2,3.1,2.3,5.7,5.3,7.4,7.5,4.3,5.6,6.8,10.9,8.4,17.9,2.4,10.1,8.7,14.1,18.8,17.6,5.8,2,12.1,3,18.3,3s6.2-.3,9.2-.8c10.9-2,17.9-8.6,19.2-18.2.3-2,.7-4.2,1-6,1.5-8.1,3-16.4-1.7-24-4.4-7-13.1-7.2-21.3-7h-1.4c-1.3,0-2.7.1-3.9.1-2.4,0-4.3-.1-6.1-.4-5.9-.9-12-2.5-16.9-3.7h-.6c-8.9-2.3-17.3-4.3-25.7-4.3s-3.4.1-5.4.3c-2.4.3-4.5,2.2-5.7,5.4-1,2.6-1.6,6.5.4,8.9,1,1,2.3,1.7,3.5,2.3ZM213.4,395.9c8.5,0,17,2.1,26,4.3,5.5,1.4,11.2,2.8,17,3.7,1.6.3,3.5.4,6.3.4h4c1.3,0,2.7-.1,4.1-.1,7,0,13.9.8,17.5,6.5,4.5,7.1,3,15.2,1.6,23.1v.5c-.4,1.8-.8,3.7-1,5.5-1.2,9-7.9,15.3-18.2,17.2-2.7.5-5.8.8-9,.8-6.1,0-12.3-1-17.9-2.9-9.7-3.4-15.7-7.2-17.9-16.7-1.7-7.2-4.3-12.7-8.6-18.3-1.7-2.2-4.4-5.4-7.6-7.8-.6-.4-1.3-.8-2-1.1l-.5-.3c-1.2-.6-2.5-1.2-3.2-2.1-1.3-1.5-1.4-4.7-.2-7.7,1-2.6,2.8-4.3,4.7-4.6,1.5-.3,3.2-.4,4.9-.4Z"/>
        <path d="M255.9,447.7c3.2,0,6.6-.6,8.2-1.1.6-.2,1-.4,1.4-.6,2.8-1.3,4.4-3.5,4.4-6.3s-.9-4.4-2.5-6c-2.2-2.3-5.3-3.1-8.2-2.2-2.9.9-9.4,4.5-11.4,8.7-.7,1.5-.8,2.9-.3,4.2,1.1,2.7,5.2,3.3,8.4,3.3ZM255.9,446.4c-4,0-6.6-.9-7.2-2.4s-.3-2.1.2-3.2h0c1.8-3.7,7.9-7.2,10.7-8,.7-.2,1.4-.3,2-.3,1.9,0,3.6.8,4.9,2.1,1.4,1.4,2.2,3.3,2.1,5.1-.1,2.2-1.4,4.1-3.7,5.1-.4.2-.8.4-1.3.5-1.4.6-4.7,1.1-7.7,1.1Z"/>
        <path d="M339,546.2v-2.1c-.5-4.3-2.2-9.6-4.1-15.1v-.3c-2-5.7-4-11.6-4.9-17.3-.4-2.2-.6-4.7-.8-7v-.4c-.8-8.2-1.6-16.7-7.5-20.6-2.6-1.8-6.5-2.6-12.1-2.6s-6,.2-9,.4h-.6c-.6,0-1.3.1-1.9.1s-1.3.1-1.9.1c-11.3.7-34.8,3.6-43.1,9.9-11.3,8.6-12.7,23.2-12.5,36.5,1.3,16.2,11.7,25.2,25.2,35.3h.1c0,0,2.1,0,2.1,0l-1.2-.9c-13.4-10-23.7-18.9-25-34.6-.2-12.9,1.1-27.1,12-35.4,8-6.1,31.2-9,42.3-9.6.8,0,1.5-.1,2.3-.2.5,0,1-.1,1.5-.1,3-.2,6.4-.5,9.6-.5,5.3,0,9,.8,11.4,2.4,5.3,3.5,6.1,11.7,6.9,19.6h0c.2,2.4.5,5.1.9,7.6.9,5.8,2.9,11.7,4.8,17.5h0c1.9,5.6,3.6,10.9,4.1,15.1.1.6.1,1.3,0,2v2c.5,4.1,0,9.1-1.5,14.3l-.2.6h1.3v-.4c1.6-5.5,2.1-10.6,1.6-14.7.1-.4.1-1,.2-1.7Z"/>
        <path d="M38.6,538.7c.2-5.6.3-11-.6-15.3-2.4-10.8-15.9-18.5-27.8-22.1-3.5-1.1-6.8-1.4-10.3-1.2h-.5v1.3H0c3.3-.3,6.4.1,9.8,1.1,11.5,3.5,24.6,10.9,26.9,21.1,1,4.2.8,9.5.6,15h0c0,3.9-.3,7.7,0,11.5.2,4.3,0,8.5-.4,12.6v.6c0,0,1.2,0,1.2,0v-.4c.5-4.2.6-8.5.4-12.7-.2-3.8,0-7.7,0-11.3l.2-.2Z"/>
        <path d="M325.1,545.6c-.5-2.6-1.4-5.7-2.4-9v-.5c-1.5-4.6-3-9.8-3.8-15.1-.2-1.3-.4-2.6-.5-3.8v-.7c-1.4-9.5-2.4-17-8.9-22-4.4-3.4-12.5-5.4-21.7-5.4s-21.6,2.8-27.9,7.6c-10.3,7.8-10.8,21.6-9.3,31.8,2.3,10.8,10,16.4,19.7,23.4h.1c4.2,3.1,9.1,6.6,14,11h.1c.1.2.2.3.3.3h.1c0,0,2.1,0,2.1,0l-1.2-.9c-.1,0-.2-.2-.3-.3-.1,0-.2-.2-.3-.2-4.7-4.3-9.5-7.7-13.7-10.8l-.3-.2c-9.6-6.9-17.2-12.3-19.3-22.7-1.4-9.8-1.1-23,8.8-30.5,6-4.6,16.2-7.3,27.1-7.3s16.7,1.9,20.9,5.2c6,4.7,7,11.9,8.3,21v.2c.1.7.2,1.3.3,2,.1.8.2,1.7.4,2.5.9,5.7,2.6,11.5,3.9,15.8,1,3.3,1.9,6.4,2.4,8.9,1,5.3.6,11.3-1,16.7l-.2.6h1.3v-.4c1.6-5.7,2-11.8,1-17.3h0Z"/>
        <path d="M138.5,549.7l-.6-1.6c-2.9-6.9-5.2-12.7-6.8-18.5-1.1-3.9-1.9-11.3-1.3-16.2.1-.9.4-2,.7-3.3,1-4.1,2.5-9.6-3-13.6h-.3c-10-1.3-15.9,6.8-21.2,13.9-1.3,1.8-2.6,3.5-3.9,5.1-4.6,4.8-10.9,8.3-17.6,12h-.2c-10.6,6-21.5,12.1-26.7,24-1.4,3.2-2.6,6.9-4,11l-.2.7h1.3v-.3c1.4-4,2.6-7.6,4-10.8,5-11.5,15.7-17.5,26.1-23.2h.2c6.8-3.9,13.2-7.4,18-12.5,1.2-1.4,2.4-2.9,3.6-4.6l.5-.6c5-6.8,10.7-14.4,19.8-13.4,4.6,3.4,3.5,7.8,2.4,12.1-.3,1.3-.6,2.4-.8,3.5-.6,5.3.2,12.8,1.4,16.7,1.6,5.6,3.9,11.3,6.3,17.2l.6,1.4c1.9,4.5,3.8,9.3,5.5,14.2v.3h1.4l-.2-.7c-1.5-4.3-3.3-8.6-5-12.8Z"/>
        <path d="M283.4,497.1c-6.1,0-12.1,1.8-16.1,4.8-5.2,3.9-8.3,8.6-7.7,20.1,3.5,14.4,19.1,22.2,32.1,22.2s3.3,0,4.9-.4h.3c1.8-1.5,3.4-3.3,5.1-5.6v-.2c4.8-14.6,4.6-26.7-.6-33.3-3.7-4.8-10.2-7.6-18-7.6ZM283.4,498.4c7.3,0,13.5,2.6,17,7,4.9,6.2,5,17.9.5,32.1-1.6,2.1-3.1,3.7-4.7,5.1-1.6.2-3.1.3-4.6.3-12.4,0-27.5-7.4-30.8-21.1-.5-10.8,2.4-15.2,7.2-18.9,3.8-2.8,9.6-4.5,15.4-4.5Z"/>
        <path d="M226.9,562.1v-.2c-5-7.1-6.8-16-8.6-24.6v-.2c-2-9.7-4.1-19.7-10.5-27.7-3.3-4.2-7.5-5.9-12.8-5.1-10.6,1.6-23.1,11.1-29.9,16.3-7.6,7.9-10.5,17.5-8.8,29.3.6,4.2,1.8,8.7,3,13v.4h1.4l-.2-.6c-1.2-4.5-2.4-8.8-3-12.9-1.6-11.4,1.1-20.6,8.3-28.2h.1c6.6-5.1,18.9-14.4,29.1-15.9,4.8-.7,8.6.8,11.6,4.6,6.2,7.8,8.3,17.7,10.3,27.3,1.8,8.7,3.6,17.8,8.6,25,.1,0,.2.3.3.4h.1c0,0,1.6,0,1.6,0l-.7-.8c.2,0,0-.1,0-.2Z"/>
        <path d="M278.4,520.1h.2c0,0,.1,0,.1,0,.5.2,1.1.3,1.7.3,1.9,0,3.7-1.1,4.7-2.9v-.3c.1-.4.1-.8.1-1.1v-.5h-.1c-1.1-1.9-2.9-3-4.7-3s-1.2,0-1.8.4h-.1c-1.1.9-1.9,2.3-2,3.5-.1,1,.2,1.9.9,2.6.2.2.6.5,1,.9ZM279.2,519.1c-.3-.3-.6-.7-.9-.9-.4-.5-.6-1-.5-1.6.1-.9.7-1.9,1.4-2.5,1.7-.6,3.6,0,4.8,1.9v1c-1.1,1.9-3,2.7-4.8,2.1Z"/>
        <path d="M13.6,527.5c-3.4-4.2-6.7-5.9-13.5-7.2H-.5c0,0,0,1.2,0,1.2H0c6.6,1.3,9.5,2.9,12.8,6.8,5.7,7.1,9.3,20.3,10.1,29.6.2,1.7.2,3.3.2,4.8v.5h1.3v-.5c0-1.7-.1-3.3-.2-4.9-.9-9.5-4.5-23-10.5-30.3Z"/>
        <path d="M204.4,556.7l-.3-1.1c-3.6-11.6-7.7-24.8-19.1-24.8h-1.2c-3.8.3-7.1,2.1-9.7,5.1-3.6,4.3-5.2,10.7-4.5,18.2.3,2.9.7,5.8,1.4,8.6v.4h1.4v-.6c-.8-3.1-1.2-5.8-1.4-8.5-.6-7.2.8-13.3,4.2-17.3,2.3-2.7,5.4-4.3,8.8-4.6h1.1c10.5,0,14.4,12.7,17.9,23.9h0c.7,2.5,1.4,4.8,2.2,6.9v.3h1.5l-.2-.7c-.8-1.8-1.4-3.7-2.1-5.8Z"/>
        <path d="M133.3,559.9c-5.8-10.5-13.7-17.2-21.9-18.3-1.8-.3-3.7-.4-5.6-.4-7.4,0-14.7,2-21.1,5.8-6.2,3.8-11.2,9.1-14.6,15.4l-.4.7h1.4v-.3c6.8-12.6,20.1-20.5,34.6-20.5s3.4,0,5.4.4c7.7,1.1,15.4,7.5,20.9,17.7.5.9.9,1.6,1.2,2.4v.3h1.5l-.3-.7c0-.7-.6-1.6-1.1-2.5Z"/>
        <path d="M.4,553h-.9v1.3H.4c2.4,0,3.7,1.9,4.4,3.5.6,1.5.9,3.2.9,5v.5h1.3v-.5c0-1.9-.4-3.9-1-5.4-1.3-2.9-3.2-4.4-5.6-4.4Z"/>
        <path d="M105.6,557.4c-5.4,0-10.9,1.7-15.3,4.9l-1.3.9h2.3c4.2-3,9.3-4.6,14.3-4.6s9.6,1.5,13.4,4.4h0c0,0,2,0,2,0l-1.1-.9c-3.9-3.1-8.9-4.8-14.4-4.8Z"/>
        <path d="M485.3,551c-2.1-4.6-4.5-9-7-13.7l-.6-1.1c-3.1-5.7-6.3-11.5-8.8-17.5-1.5-3.5-2.8-7.3-4.1-11-5.9-17-12.6-36.3-33.6-36.3h-.8c-7.6.2-14.7,2.8-19.3,5-1.1.5-2.3,1-3.4,1.6-3.3,1.5-7,3.2-10.3,5-9.2,5.1-19.8,7.6-30,10h-.4c-.7.3-1.7.5-2.8.7-7.1,1.5-15.9,3.4-18.7,11.7-2.1,6.3-.2,14.3,1.7,22.1.7,2.8,1.3,5.4,1.7,7.9,1.5,8.7,1.6,16.9.3,24.2-.2,1.1-.4,2-.6,2.9v.6c-.1,0,1.2,0,1.2,0v-.4c.3-1,.5-1.9.7-2.9,1.3-7.6,1.2-15.9-.3-24.7-.5-2.7-1.2-5.5-1.8-8-1.8-7.2-3.8-15.4-1.7-21.5,2.6-7.7,11-9.4,17.8-10.9h.4c.8-.3,1.6-.5,2.3-.6h.2c10.4-2.4,21.2-5,30.7-10.2,3.2-1.8,6.9-3.5,10.2-5,.9-.4,1.8-.8,2.6-1.2l.8-.4c4.5-2.1,11.4-4.7,18.8-4.9h.8c20,0,26.6,18.8,32.4,35.5,1.5,4.3,2.7,7.8,4.1,11.1,2.7,6.3,6.1,12.6,9.1,18.1l.2.4c2.6,4.8,5.1,9.3,7.2,14,2.2,4.8,4.5,8.6,7,11.5l.2.2h1.7l-.7-.8c-2.7-2.7-5-6.4-7.2-11.4Z"/>
        <path d="M574.9,484.1c-.3,0-.5.1-.8.1-2.1.4-4.5,1.1-5.9,1.6-17.1,6.5-28.6,18.7-33.1,35.3-1.2,4.4-2,10-2.9,15.4v.8c-1.2,7-2.2,14.3-4,19.3-.8,2.1-1.8,4-3.2,5.6l-.7.8h1.6l.2-.2c1.4-1.8,2.5-3.7,3.3-5.8,1.8-5.1,2.9-12.3,3.9-19.3v-.6c.9-5.6,1.8-11.3,3-15.7,4.4-16.2,15.6-28.1,32.3-34.5,1.4-.5,3.8-1.2,5.7-1.6h.5c.3-.2.6-.2,1-.3h.4v-1.4h-.6c-.2.4-.4.5-.7.5Z"/>
        <path d="M551.8,364.1h0c-5.6,1.3-11,4-15.8,6.5h-.2c-5,2.6-10.1,5.2-15.4,6.3-13.6,2.9-18.6-9.1-23.1-19.7l-.7-1.7c-.4-.9-.8-1.8-1.2-2.7-2.6-5.8-5.6-11-8.8-15.4-6.6-9.2-14.1-16.6-22.5-21.8-7.8-4.9-14.3-7.6-20.6-8.4-10.2-1.4-17.3,1.8-25.7,5.4l-.4.2c-1.6.7-3.3,1.5-5.1,2.2-5.5,2.2-11.7,4.7-16,10.3-3.1,4-5.4,8.6-7.9,13.9l-.5,1.1c-4.3,8.8-7.4,17.5-10.7,26.7-.7,2.1-1.5,4.2-2.2,6.3v.2c-2,5.6-4.1,11.4-6.5,16.9-1.8,4.1-4.6,7.7-7.2,11.3v.2c-1.5,1.9-3.2,4-4.6,6.2-3.5,5.4-9.3,10.2-14.3,14.5l-.7.6c-1.7,1.4-3.3,2.8-4.8,4.2-1.1,1-2.2,1.9-3.4,3-5.6,4.8-12,10.3-13.6,17.4-.2.7-.3,1.4-.5,2.1v.6c-1.9,7.6-3.4,14.2-10.9,18.9-7.2,4.5-16,6-23.8,7.3-2.9.5-5.9.9-8.8,1.3l-2.3.3c-7.3.9-13.2,1.8-18.8,3.2-13.3,3.5-21.4,12.8-24.1,27.4-2.6,14.2.1,31.6,3,38.7,2.4,5.7,6.3,10.8,12.5,16h.1c0,0,2,0,2,0l-1.1-.9c-6.1-5.1-10-10-12.4-15.7-2.9-6.9-5.5-24-2.9-37.9,2.6-14.2,10.4-23,23.2-26.4,5.6-1.5,11.9-2.3,18.5-3.2h.2c3.4-.4,7.3-.9,11.1-1.6h.1c7.8-1.3,16.7-2.8,24.1-7.4,8-5,9.5-11.7,11.3-19.5h0c.2-1,.4-1.9.6-2.8,1.6-6.6,7.7-11.9,13.1-16.5l.9-.8c1-.8,1.9-1.6,2.7-2.4,1.7-1.5,3.5-3.1,5.5-4.8l.2-.2c5.3-4.5,10.8-9.2,14.3-14.6,1.3-2,2.8-3.9,4.2-5.8l.3-.4c2.7-3.6,5.5-7.3,7.4-11.5,2.5-5.5,4.5-11.3,6.4-17l.8-2.2c.5-1.4,1-2.9,1.5-4.4,3.3-9.1,6.4-17.8,10.6-26.5l.5-1.1c2.3-4.7,4.6-9.6,7.8-13.7,4.1-5.2,10.1-7.7,15.5-9.8,1.3-.6,2.6-1.1,3.9-1.7l1.6-.7c8.1-3.6,15.1-6.6,25-5.3,6.1.8,12.5,3.5,20,8.2,8.2,5.2,15.7,12.5,22.1,21.5,3.2,4.4,6.1,9.6,8.7,15.2.6,1.3,1.2,2.7,1.8,4.1l.3.6c2.2,5.1,4.7,11,8.3,15,4.3,4.8,9.6,6.5,16.1,5.1,5.4-1.2,10.6-3.8,15.7-6.4l.4-.2c4.9-2.5,10-5,15.2-6.2,8.6-1.9,16.4.2,23.5,2.7l.7.2v-1.3h-.3c-7.1-3.2-15-5.3-23.9-3.3Z"/>
        <path d="M558.4,449.4c-8.5,3.5-14.8,9.6-20.8,15.5h-.2c-6.3,6.2-12.2,11.9-19.9,14.2-10.6,3.1-18.8-4.8-26.6-12.5l-1.5-1.4c-4.1-4-9.2-7.1-13.7-9.8h-.1c-3.3-2.1-6.7-4.2-9.8-6.6-2.4-1.9-5-3.7-7.3-5.2l-1.7-1.2c-1.1-.8-2.1-1.5-3.2-2.3-2.6-1.9-4.4-4.9-6.2-7.9l-.3-.4c-.9-1.5-1.8-3-2.9-4.3-3.1-4-7.5-7-11.7-10-7.6-5.2-14.8-10.2-15.3-20.4-.3-6.1,1.1-13.8,3.8-20.9,2.6-6.8,7.5-14.2,13.4-20.2,4-4,8-5.9,11.9-5.6,7.1.6,13.2,8.2,17.7,14.7,2.7,3.9,3.8,7.8,4.8,11.5.6,2.2,1.3,4.6,2.4,7.3.9,2.2,1.9,4.3,3,6.4l.5,1.1c2.1,4.1,3.9,7.8,5,11.7,2,6.9,2.4,16.8-.7,22.5-3.2,5.8-1.7,15.6,1.6,20.7,3,4.7,10.4,7.6,16.4,10,1,.4,2,.8,2.9,1.2l.8.3c.2.1.5.2.7.3.3.1.6.3.9.4l.5.2c1.7.8,3.2,1.4,5,1.8,9.5,1.9,16-2.6,19.9-13.7,4.1-11.7,1.3-22.3-8-29.9-2.8-2.3-6-4-9-5.7-1.4-.7-2.8-1.6-4.2-2.4l-.4-.2c-.2-.1-.5-.3-.7-.4-3.9-2.3-8.9-5.3-11.5-8.6-4.1-5.1-7.4-10.7-9.9-16.5-1.3-3-2.3-6.1-3.3-9.3-.8-2.3-1.6-4.7-2.5-7.2-1.6-4.4-4.3-9.1-7.6-13.7-4.4-5.9-12.2-13.9-20-16.8-12.4-4.6-29.1,7.5-37.3,16.8-4.5,5.1-7.5,11.6-9.8,17.3-.3.7-.5,1.3-.8,2-.3.9-.7,1.7-1,2.6-3.3,8.3-6.4,16.2-11.7,23.5-1.7,2.3-3.1,4.8-4.4,7.2l-.6,1c-.8,1.5-1.7,3-2.6,4.4-2.8,4.3-7,6.9-11.2,9.1-1.5.8-3,1.5-4.5,2.2l-1.4.7c-5.4,2.5-11.5,5.4-16.4,10-3.2,3-4.4,6.2-3.7,9.5,1.1,5.4,7,9.4,12.2,11.3,10.7,4,22.8,2.5,33.5,1.2h1.4c.4-.1.8-.2,1.2-.2s.9-.1,1.3-.1c4.8-.5,9.3-.9,13.8-3.6.7-.4,1.4-.8,2.1-1.2h.2c6.7-3.9,12.4-7.2,20.1-8.9,4.8-1.1,11.8-1,16.2,1.7,2.1,1.3,3,3.3,3.9,5.4.6,1.4,1.3,2.8,2.2,4.1,3.7,4.8,8.7,8.7,13.5,12.3h.2c4.7,3.7,9.6,7.4,13.3,12.1,2.1,2.6,3.9,5.9,5.6,9.1l.3.5c1.6,3,3.6,6.8,5.9,9.6,3.3,4.1,7.6,6.3,12.3,6.3s3.4-.3,5.2-.8c5.7-1.8,12-6.6,18.2-11.3l1-.8c.6-.5,1.2-.9,1.7-1.3,3.2-2.4,6.3-4.9,9.3-7.4,8.2-6.7,15.9-13,24.6-16.5,3.1-1.3,6.9-2.3,11.6-3.2h.4v-1.4h-.6c-5,1.1-8.8,2.1-11.9,3.4-8.8,3.5-16.5,9.8-24.7,16.5l-.3.2c-3.2,2.6-6.1,5-9.2,7.3-.9.7-1.8,1.4-2.7,2.1h-.2c-6,4.7-12.1,9.4-17.6,11.1-6.2,1.9-11.9.1-16.1-5-2.1-2.7-4-6.1-5.7-9.4-1.7-3.2-3.7-6.9-6-9.8-3.9-4.9-9-8.8-13.5-12.2-4.8-3.7-9.8-7.5-13.4-12.2-.8-1.1-1.4-2.4-2-3.6v-.3c-1.1-2.3-2.1-4.4-4.5-5.9-4.6-2.9-12.1-3-17.1-1.9-8,1.8-14.1,5.3-20.6,9-.7.4-1.4.8-2.1,1.2-4.3,2.4-8.7,2.9-13.4,3.4-.8.1-1.7.2-2.5.3l-1.5.2c-10.6,1.2-22.5,2.6-32.8-1.2-6.1-2.3-10.6-6.3-11.4-10.4-.6-2.9.6-5.7,3.4-8.3,4.7-4.4,10.4-7.1,16-9.8,2.4-1.1,4.3-2,6-2.9,4.3-2.2,8.7-4.9,11.7-9.6,1-1.6,2-3.3,3.1-5.4,1.3-2.4,2.7-4.9,4.4-7.2,5.3-7.3,8.5-15.2,11.8-23.6v-.2c.7-1.5,1.3-3,1.9-4.6,2.4-5.9,5.3-12,9.6-16.9,7.9-9,24.1-20.9,35.9-16.5,7.6,2.8,15.2,10.6,19.4,16.4,2.3,3.1,5.4,7.9,7.5,13.4.9,2.4,1.7,4.7,2.5,7.1,1.1,3.4,2.1,6.4,3.4,9.4,2.5,5.9,5.9,11.5,10.1,16.8,2.8,3.5,7.8,6.5,11.8,8.9h.1c.4.3.7.5,1.1.7.9.6,1.9,1.1,2.9,1.6.5.2.9.5,1.3.8,3,1.6,6.1,3.3,8.8,5.6,8.8,7.3,11.5,17.4,7.6,28.5-3.7,10.5-9.7,14.7-18.4,12.9-1.7-.4-3.2-1-5.2-1.9-.5-.2-1-.5-1.6-.7s-1.2-.5-1.9-.8c-.6-.2-1.2-.5-1.8-.7h-.1c-5.8-2.4-12.9-5.2-15.7-9.5-3.1-4.8-4.5-14-1.6-19.4,3.2-6,2.8-16.4.8-23.5-1.2-4-3-7.8-4.8-11.5l-.2-.5c-1.2-2.3-2.4-4.8-3.5-7.3-1-2.4-1.7-4.8-2.4-7.1-1.1-3.8-2.2-7.8-5-11.9-4.7-6.8-11.1-14.6-18.7-15.3-4.3-.4-8.7,1.6-12.9,6-6.1,6.2-11.1,13.7-13.7,20.6-2.8,7.3-4.2,15.2-3.9,21.5.5,10.8,8.3,16.1,15.8,21.3,4.2,2.9,8.5,5.8,11.5,9.7,1.1,1.4,2,3,3.1,4.6h.1c1.8,3.1,3.7,6.2,6.5,8.2,1.6,1.1,3.2,2.3,4.9,3.5l.5.4c2.2,1.6,4.5,3.2,6.7,4.9,3.1,2.4,6.4,4.5,10.1,6.7,4.6,2.8,9.4,5.8,13.4,9.6.5.5,1,.9,1.5,1.5,8.1,7.9,16.5,16.1,27.8,12.7,8-2.3,14.1-8.2,20.5-14.4,6-5.8,12.2-11.9,20.6-15.4,5.3-2.2,11-3.5,16.9-4.7h.4v-1.4h-.6c-6,1.4-12,2.7-17.6,5Z"/>
        <path d="M547.6,385.4c-4.3.9-8.7,3-13.3,5.3l-.4.2c-7.7,3.8-15.6,7.7-22.7,5.4-13.1-4.1-18.1-18.1-22.6-30.4l-.5-1.4c-.8-2.1-1.5-4-2.2-5.9-2.1-5.2-4.7-10-7.7-14.2-4.8-6.7-10.6-10.8-16.8-15.1-.5-.3-1-.7-1.5-1-.4-.3-.9-.6-1.3-.9-5.5-3.9-12.2-7.8-20-6.6-2.5.4-5.1,1.7-7.4,2.9-1.4.7-2.9,1.5-4.3,2-.6.2-1.2.4-1.8.7l-1.3.5c-8.2,2.9-16.7,6-22.6,12.8-1.7,1.9-3.1,4.3-4.4,6.7h-.1c-.8,1.6-1.5,2.6-2.1,3.6-2.9,4.3-5.4,9.2-7.5,14.6-2.3,5.8-3.6,12.1-4.8,17.6v.2c-1.3,6.3-2.7,12.7-5.2,18.6-2.6,6-9.4,10.3-15.4,14.1h-.2c-1.6,1.1-3.1,2.1-4.4,3-4,2.8-7.5,6.1-11.3,9.8l-.4.4c-2.2,2.1-4.4,4.3-6.7,6.2-5.9,5-8.5,13.5-6.9,22.2,2.8,15.2,8.8,17.7,21.6,19.9,9.6,1.6,20.8,1.2,34.2-1.1,7.7-1.4,15-6.3,22.1-11.1h.1c2.6-1.9,5-3.5,7.3-4.9,9.7-5.9,21.2-4.6,30.8,3.3h.2c1.2,1.1,2.4,2.1,3.7,3,7.3,5.9,14.3,11.4,18,20.2,1.6,3.8,2.7,7.9,3.7,11.8v.2c1.1,3.9,2.2,8,3.8,11.9,2.4,5.9,7.2,12.3,12.4,16.9,3.7,3.3,9,6.8,14.7,6.8s2.5-.2,3.8-.5c6.5-1.9,10.3-9.2,14.4-16.9,2.2-4.3,5-9.6,8.5-13.9,4.4-5.4,10.4-10.2,14.6-13.4l.6-.5c8.7-6.8,17-13.2,27.9-15.3.6-.1,1.3-.3,2.1-.4h.4v-1.4h-.6c-.7.2-1.5.3-2.2.5-11.2,2.2-19.6,8.8-28.5,15.7l-.5.3c-6.4,5-11.3,9.5-14.7,13.6s-5.9,8.9-8.4,13.6l-.3.6c-3.9,7.5-7.5,14.5-13.6,16.3-6.5,1.9-13-2.2-17.3-6-5-4.4-9.8-10.9-12-16.5-1.6-3.8-2.6-7.8-3.7-11.7v-.4c-1.1-3.9-2.2-8-3.8-11.8-3.8-9.1-11.2-15-18.4-20.8l-.8-.7c-1-.8-1.9-1.5-2.9-2.3-10-8.3-22.1-9.5-32.3-3.4-2.4,1.5-4.9,3.1-7.4,4.8-7,4.7-14.2,9.7-21.8,11-13.2,2.3-24.3,2.7-33.8,1.1-12.2-2-17.8-4.4-20.5-18.9-1.5-8.2.9-16.3,6.5-21,2.5-2.1,4.8-4.4,7.2-6.7l.2-.2c3.4-3.3,6.9-6.7,10.9-9.6,1-.7,2.2-1.4,3.4-2.2l1.2-.8c6.2-3.9,13.2-8.3,15.9-14.7,2.5-6,3.9-12.5,5.3-18.7l.2-.8c1.2-5.6,2.5-11.5,4.6-16.8,2-5.2,4.5-10,7.3-14.4.6-1,1.2-2,1.9-3.1l.3-.5c1.3-2.3,2.7-4.7,4.3-6.5,5.7-6.4,14-9.5,22.1-12.4,1.1-.4,2.1-.8,3.2-1.2,1.3-.5,2.7-1.2,4-1.9l.4-.2c2.2-1.1,4.7-2.4,7.1-2.8,7.3-1,13.8,2.7,19.1,6.4,1,.7,1.9,1.3,2.8,1.9h.2c6,4.3,11.7,8.3,16.3,14.7,2.9,4.1,5.5,8.8,7.6,14,.7,1.8,1.4,3.8,2.2,5.8l.5,1.5c4.6,12.6,9.7,26.9,23.4,31.2,7.7,2.4,15.9-1.6,23.8-5.5,4.4-2.2,9-4.4,13.3-5.3,5.7-1.2,16.5-1.8,27.9-1.5h.5v-1.3h-.5c-12.2-.2-23.1.4-28.7,1.7Z"/>
        <path d="M541.9,172c-7.4,5.1-11.8,12.4-13.2,21.6-.5,3.7,0,7.7.3,11.2.4,3.6.9,7.8.2,11.6-.7,4.2-2.9,8-5.8,9.7-1.9,1.1-4,1.3-6.3.5-7.9-9.2-14.4-15.2-24.1-19.2-2.8-1.1-5.6-2.1-9.1-3.2-1.7-.5-3.4-1.1-5.1-1.6-10.5-3.5-21.5-7-39.3-5.6-8.6.7-15.1,2.3-20.8,8.1-3.6,3.6-6.3,7.9-9.2,12.7l-.5.8c-1.8,2.9-3.6,5.8-5.7,8.4-1.1,1.4-2.5,2.8-3.8,4.2l-.4.4c-1.9,2-3.9,4.1-5.3,6.4-3.2,5.1-3.4,13.5-2.2,19.2,1.6,7.4,6.3,13.7,11,19.5.9,1.1,1.7,2.3,2.6,3.5l.8,1.2c3.1,4.5,6.4,9.2,11,11.6,5.1,2.7,10.9,2.7,16.4,2.3,1.8-.1,3.5-.6,5.2-1l.7-.2c2.7-.7,5.4-1.5,8-1,9.7,1.7,20.6,8.5,27.6,14.2,3.8,3.1,7.3,6.6,10.2,10.4,2.3,2.9,4.4,5.8,7,9.2,3.9,5.2,8.3,11.1,13.2,16.9,3.6,4.2,8,8.2,14.3,8.2s3.7-.3,5.8-1c5.3-1.8,9.8-5,14-8.1,6.3-4.6,11.8-11,17.2-17.2,4.7-5.4,9.5-10.9,14.1-14.2,1.1-.8,2.5-1.6,5-2.2h.4v-1.4h-.6c-2.6.7-4.2,1.6-5.5,2.5-4.7,3.4-9.4,8.7-14.4,14.5-5.3,6.1-10.9,12.4-17,16.9-4.1,3-8.5,6.1-13.7,7.9-8.8,3-14.4-1.7-18.7-6.8-4.9-5.8-9.3-11.6-13.1-16.8-2.6-3.5-4.7-6.3-7.1-9.2-3.1-3.9-6.6-7.5-10.4-10.6-7.1-5.8-18.3-12.7-28.1-14.4-3-.5-6,.3-8.6,1h-.4c-1.7.5-3.5,1-5.2,1.1-5.4.4-11,.4-15.7-2.1-4.3-2.3-7.5-6.8-10.6-11.2-1-1.5-2.2-3.2-3.5-4.7-4.6-5.7-9.2-11.8-10.7-19-1.1-5.4-1-13.5,2-18.3,1.4-2.3,3.5-4.5,5.5-6.5s2.7-2.9,3.9-4.4c2.4-3.1,4.6-6.6,6.3-9.3h.1c2.6-4.4,5.4-8.8,9-12.4,5.4-5.5,11.7-7,20-7.7,17.7-1.4,28.4,2.1,38.8,5.5,1.7.5,3.4,1.1,5.1,1.6,3.6,1.1,6.4,2.1,9,3.2,9.6,3.9,15.9,9.9,23.7,19h.2c2.7,1.1,5.2.9,7.6-.4,3.2-1.9,5.7-6,6.4-10.6.6-3.9.2-7.9-.2-11.9h-.3c0-.1.3-.2.3-.2-.4-3.7-.8-7.5-.3-10.9,1.3-8.8,5.5-15.8,12.6-20.7,8.1-5.6,19.5-8.3,33.1-7.8h.5v-1.2h-.5c-13.7-.5-25.4,2.3-33.7,8Z"/>
        <path d="M562.1,118.7c-7.7,5.1-17.4,10.4-26,14.3-4.2,1.9-10.3,4.5-14.8,5.8-8.5,2.4-15.1,2.7-21.5.8-9-2.6-16-10.9-23.4-19.8l-.3-.4c-3.8-4.5-7.8-9.2-12.1-13.1-3.6-3.3-6.7-6.1-10.4-9.2-2.5-2.7-4.6-5.9-6.7-8.9l-.4-.5c-2.5-3.6-5.3-7.7-8.7-11.1-1.5-1.5-3-3.2-4.3-4.8-3-3.4-6-6.9-10-9.4-5.6-3.5-11.8-4.5-17.7-5.4h-.3c-3.6-.7-7.3-1.3-10.8-2.4-9.8-3.2-17.5,5.8-23.1,12.4-4.3,5-8.1,10.7-11.9,16.1l-.2.3c-8,11.8-16.3,24-29.5,30.6-14.5,7.7-27.5,3.8-40.1,0-4-1.2-7.8-2.3-11.6-3.1-17.6-3.5-26.6,2.5-35.4,8.3-5,3.3-9.7,6.5-16,7.9-2.4.5-4.6.6-7.2.3-6.7-.9-12.8-5.2-18.8-9.3-4.8-3.3-9.7-6.7-15.1-8.7-5.3-2-14.4-4.2-27.9-3.5-12.3.7-26.3,1.5-29.4-13.3-2.6-12.1,6.1-21.3,14.4-30.3,6.1-6.5,12.3-13.2,14.5-21,1.3-4.5.9-11,.3-15.7-.9-7.6-3.2-15.5-5.4-23.1-.2-.9-.5-1.7-.7-2.6v-.4h-1.4l1.1,3.9c2.2,7.8,4.3,15.1,5.2,22.3h0c.5,3.7,1,10.6-.2,15.2-2.2,7.4-8.3,14-14.3,20.3h-.1c-8.6,9.2-17.5,18.7-14.7,31.5,1.5,6.9,5.3,11.3,11.5,13.2,5.3,1.7,11.8,1.5,19.2,1.1,13.3-.7,22.2,1.5,27.4,3.4,5.3,2,10.1,5.4,14.9,8.7,6.4,4.4,12.4,8.5,19.3,9.5,2.8.4,5.1.3,7.7-.3,6.5-1.4,11.3-4.6,16.4-8.1,8.5-5.7,17.3-11.5,34.4-8.1,3.6.7,7.1,1.7,10.9,2.9l.6.2c12.8,3.8,26.1,7.7,41-.2,13.5-6.8,21.9-19.1,30-31h.1c3.7-5.6,7.6-11.3,11.9-16.3,5.4-6.3,12.8-14.9,21.7-11.9,3.8,1.2,7.6,1.8,11.4,2.4,5.8.9,11.8,1.9,17.2,5.2,3.8,2.4,6.9,5.9,9.8,9.2,1.3,1.5,2.8,3.2,4.3,4.8,3.2,3.2,5.9,7.1,8.4,10.8v.2c2.3,3.2,4.6,6.6,7.3,9.6l.9.8c3.2,2.8,6.1,5.4,9.5,8.4,4.4,4,8.3,8.7,12.2,13.3v.2c7.6,9,14.8,17.4,24.1,20.2,2.9.9,5.9,1.3,9,1.3s8.3-.7,13.1-2.1c5.3-1.5,12.2-4.6,15-5.9,8.6-3.9,18.4-9.3,26.1-14.4,6-4,10.7-9.6,13.5-16.4v-3.5l-1,2.4c-2.4,6.6-7,12.3-12.9,16.3Z"/>
        <path d="M572.9,500.5c-14.4,2.5-23.9,13.8-27.4,32.6-1,5.2-1.4,10.6-1.9,15.8v.8c-.5,4.6-.9,8.9-1.6,12.9v.6c0,0,1.2,0,1.2,0v-.4c.8-4.2,1.2-8.5,1.6-13.4v-1c.5-5,1-10.1,1.9-15.1,3.4-18.3,12.5-29.2,26.4-31.6.8-.1,1.6-.2,2.6-.3h.5v-1.2h-.5c-1,0-1.9.1-2.8.3Z"/>
        <path d="M470.9,557.6c-.7-3.4-1.5-6.8-2.4-9.9-1.6-5.6-4.2-11.5-6.5-16.7l-.4-.9c-1.5-3.5-2.8-7.1-4.2-11.5-2.8-8.4-5.7-17.1-11.4-23.4-5.2-5.6-13.5-8.8-23-8.8s-10.4,1-14.7,3c-5.1,2.3-9.2,5-12.7,8.3-2.7,2.6-6.6,4-10.4,5.3h-.3c-2.6,1-5.4,2-7.9,3.4-7.4,4.2-12,10.1-13.4,17-1.3,6.4-1.1,14.6-1,22.5v1.5c.1,4.3.1,8.7-.1,12.8,0,.8-.1,1.7-.2,2.5v.5c-.1,0,1.2,0,1.2,0v-.6c.1-.8.1-1.6.1-2.4.2-4.6.1-9.6.1-14.4-.1-7.4-.3-15.9,1-22.2,1.3-6.6,5.7-12.1,12.8-16.1,2.4-1.3,5.2-2.3,7.7-3.2h.1c4-1.4,8.1-2.9,11.1-5.7,3.3-3.2,7.3-5.9,12.3-8.1,4.2-1.9,9.1-2.9,14.2-2.9,9.1,0,17.2,3.1,22.1,8.4,5.6,6.2,8.4,14.7,11.2,23l.4,1c1.3,3.7,2.4,7.2,3.9,10.6l.5,1.1c2.4,5.4,4.8,11,6.4,16.3.9,3,1.6,6.4,2.3,9.7l.2,1.1c.3,1.4.6,2.7.9,4v.4h1.4v-.6c-.5-1.6-.9-3.3-1.3-5Z"/>
        <path d="M453.2,539c-.7-1.8-1.9-3.4-2.9-4.7-.7-1-1.6-2.1-2.2-3.3-1-1.8-1.7-3.8-2.5-5.8-2.4-6-4.8-12.2-11.6-14-1.6-.4-3.6-.6-6.4-.6s-5.6.2-8.3.4c-1,.1-2,.1-2.9.2-8.6.5-17.8,3.8-24.6,8.8-8.3,6-10.6,16.1-11.7,23.2-1.3,7.9-.9,14.1,1,19.1.1.2.2.5.3.8v.3h1.5l-.3-.7c-.1-.2-.1-.3-.2-.5-.1,0-.1-.3-.2-.4-2.4-6.1-1.6-13.4-.9-18.4,1-6.9,3.3-16.6,11.2-22.4,6.6-4.8,15.5-8,23.9-8.5.8,0,1.6,0,2.5-.2h.4c2.3-.2,5.4-.5,8.3-.5s4.5.2,6,.6c6.1,1.6,8.4,7.5,10.7,13.3.8,2.1,1.6,4.1,2.6,5.9.7,1.2,1.5,2.3,2.2,3.4l.2.2c1,1.4,2,2.8,2.7,4.4,1.7,4.3,2.5,9.3,3.1,13.4.4,2.9.6,6.2.6,9.9v.5h1.3v-.5c0-3.6-.2-7.1-.6-10.1-.7-4.3-1.4-9.4-3.2-13.8Z"/>
        <path d="M575.5,520.3h0c-13,1.2-20.2,15-22.1,42.4v.5h1.3v-.5c1.8-26.5,8.6-40,20.8-41.2h.8v-1.1h-.3c-.2-.1-.3-.1-.5-.1Z"/>
        <path d="M572.1,554.3l-.2.2c-1.4,2.3-2.8,5-3.1,8.2v.5h1.3v-.5c.3-2.9,1.6-5.5,2.8-7.5,1-.6,2-.9,2.9-1h.5v-1.2h-.5c-1.2,0-2.4.5-3.7,1.3Z"/>
        <path d="M147.6,547.3c-1.4-6.5-1.3-15.4.2-20.4,2-6.6,5.5-10.7,11.1-16.8.6-.7,1.3-1.4,2.1-2.2l.7-.8c4-4.1,8.5-8.8,9.6-13.8,2.1-10-4-15.8-10.3-20.1-3.1-2.2-6.7-3.9-9.8-5.4-4.2-2.1-8.6-4.2-12.2-7.3-3.8-3.3-7.1-8-9.8-14-1.1-2.5-1.7-5.2-2.2-7.8v-.5c-.6-2.6-1.2-5.6-2.3-8.3-5.4-12.1-12.4-25.7-23.9-35.2-4.9-4.1-11.1-10.5-12.7-18.1-1.1-5,.4-9.3,1.6-12.9l.2-.6c2.7-8,10.7-27,27.4-31.8,2.8-.8,6.3-1.4,9.9-2.1h.7c5.5-1,10.3-1.9,13.9-3.2,5.9-2.2,10.1-5.2,14.5-8.6l.6-.5c4.1-3.2,9.3-7.1,16-6.6,5.9.5,12.6,3.6,18.3,8.4,5.8,4.9,9.7,10.8,10.7,16.3.6,3.4.9,6.2,1.2,9.2v1.2c.3,2,.5,4,.9,6.1,2.2,12.7,8.3,22.9,18.1,30.1,8,5.9,18.6,10,31.5,12.2,16.9,2.9,31.2-2.6,36.5-5.1,8.6-4,17.7-13.6,25.5-22.2,7.9-8.7,12-13.8,12.9-27.5.3-4.3,0-8.5-.4-12.6v-.2c0-.6-.1-1.2-.1-1.8-.1-1-.2-2-.2-3-.1-1.3-.2-2.6-.3-3.7-.4-3.8-.8-8.2,0-12.7,1.5-8.8,6.6-12.6,15.5-11.8,11.9,1.1,22.2,9,26.4,20,3.3,8.7.7,17.9-1.5,25.3l-.4,1.4c-3.5,12.4-8.4,22-14.7,29.5-3.7,4.3-7.7,8.2-11.5,12.1l-4.4,4.4c-2,2-4.3,3.9-6.5,5.7-2.9,2.4-5.7,4.8-8,7.5-3.4,3.8-5.9,8-8.1,12.1-6.7,12.3-11.4,23.2-14.3,33.2-2.6,8.8-9.7,15.8-19,18.8-12.2,3.8-29.6,3.3-51.8-1.3-10.7-2.3-17.1-8.4-18.9-18.3-2.2-11.7-10-17.4-18.3-23.6-1.9-1.4-4.2-3.1-6.4-4.9-8.4-6.9-4.3-13.1.4-20.5,2.1-3.2,4.2-6.5,5.1-10,1.5-5.4-.4-11-2.2-16.4h0c-.9-2.9-1.8-5.5-2.2-8.1-2.1-12.6-4.3-22.5-10.8-26.6-3.5-2.2-8-2.5-13.7-.9-.9.2-2,.5-3,.8-2.2.6-4.6,1.4-6.6,1.8-3.4.8-7,1.2-10.9,1.7h-.5c-3.9.6-8,1.1-12.5,2.1-7.2,1.5-13.4,4.9-18.2,9.9-4.6,4.9-7.6,11.1-8.6,18-.4,3-.5,5.5.3,8.3,2.4,8,9.5,13.6,15.9,18.6,1.6,1.2,2.9,2.2,4.1,3.3l.2.2c6,5,13.5,11.1,13.2,19.5-.3,8.9.8,15.4,3.8,21.7,4.7,9.9,11.3,15.9,22.8,20.7.4.2.8.3,1.2.5s.9.4,1.4.5c3.9,1.6,7.9,3.2,11.6,5.3,3,1.7,5,3.8,7.1,6.1,1.1,1.2,2.4,2.6,3.9,3.8,1.6,1.4,3.2,3.3,4.9,5.5,4.4,5.4,9.3,11.5,17.2,10.1,3.9-.8,7.7-3.4,11.7-6.2h.1c3.5-2.5,7.1-5,11.1-6.6,6.8-2.7,16.4-3.3,26.6-4h.2c6.3-.4,12.7-.9,18.7-1.8,13.6-2.2,22.9-7,28.2-14.7,1.6-2.2,2.6-4.6,3.6-7.3.7-1.9,1.5-3.8,2.5-5.6.7-1.2,1.8-2.2,2.9-3.2h.2c.6-.6,1.3-1.3,1.9-2,1.1-1.2,2.2-2.5,3.1-3.7l.2-.3c1-1.3,2.1-2.6,3.3-3.8,1.7-1.8,3.6-3.6,5.5-5.2l.9-.8c1.9-1.7,3.9-3.5,5.7-5.4,1.5-1.6,2.7-3.3,3.9-5l.2-.2c1.3-1.8,2.6-3.7,4.3-5.4,2.9-2.9,6.2-6.3,8.9-10.2,2.1-3.1,3.1-6,4.2-9.2l.2-.5c.3-1.1.7-2.1,1-3.1.8-2.3,2.2-4.4,3.6-6.6v-.2c1-1.3,1.8-2.6,2.6-4,2.7-5,5.1-10,7-14.9.3-.8.6-1.6.9-2.4.2-.6.4-1.2.6-1.8s.2-.6.3-.9c.1-.3.2-.6.3-.8,1-2.8,2.1-5.6,2.9-7.8l.2-.6c2.7-7.2,5.6-14.7,7-21.5,1-4.5,1.8-9.3.8-14.1-3.5-16.2-19.3-33.2-33.8-36.3-6.7-1.4-15.1-1.3-23.7.3-14.5,2.7-19.8,9.7-19.1,24.9.1,2.7.4,5.5.6,8.1l.2,2.3c.7,7.3,1.3,14.2.5,20.9-.4,3.8-1.7,7.2-2.6,9.4-2.1,5-7,13.8-12.7,22.8-5.8,9-13.5,15.6-21.3,18.1-14.7,4.7-34.5,0-46-10.8-5.7-5.4-11.8-14.6-8.4-27.8.2-.8.6-1.6.9-2.4.5-1,.9-2.1,1.2-3.4,1.8-3.1,4-5.8,6.2-8.5,5-6.2,9.7-12.1,7.9-20.5-.3-1.5-1-3.1-1.7-4.8v-.2c-1.5-3.4-2.9-6.9-1.4-8.9,3.1-3.9,7.5-8,11.7-12,7.7-7.4,15.7-15,18-22.2,2.4-7.4-2.4-14.6-4.4-17.6-1.8-2.7-3.7-5.4-5.8-8.2l-1.8-2.5c-1.9-2.6-3.9-5.3-5.7-7.9-1.4-2-2.7-3.9-4-5.7l-2.2-3.2c-3.1-4.5-6.1-8.8-9.2-13.4-1-1.4-1.9-3-2.9-4.5-.4-.7-.9-1.4-1.3-2.1-2.3-3.6-4.6-7.3-7-10.5-5.3-7.1-11.3-10-17.9-8.7-6.4,1.3-13.1,6-19.4,10.8-.8.6-1.6,1.2-2.4,1.8h-.2c-11.1,8.5-23.8,17.9-27.1,28.6-2.9,9.3,2.4,13.6,8.1,18.1.6.5,1.2.9,1.8,1.5,3.6,3,6.4,6.1,8.7,8.7,3.1,3.6,5.9,8.1,8.4,12.1l.4.6c1.7,2.8,3.4,5.4,5,7.5,6.1,8,13.9,11.5,21.4,14.9h.3c7.3,3.3,14.8,6.7,20.5,14.1v.9c0,.7,0,1.3-.1,1.9-6.7,7.2-15.1,9-25.6,5.5-3.1-1.1-6.2-2.7-9.9-4.7-7.7-4.2-15.7-8.5-25.1-5.7-6.7,2-11.3,6.7-15.7,11.2-4.3,4.4-8.8,8.9-15.2,11.2-3.7,1.3-7.6,1.7-13.1,2.1-14.1,1.1-20.9,2.7-26.7,10.1-7.5,9.6-16.9,26.6-19.8,33.7-1.1,2.8-1.8,5-2.2,6.5-2.5,12.4,5.1,22.1,12,29.2,1.6,1.6,3.3,3.1,5.2,4.7l.2.2c1.5,1.3,3,2.6,4.4,4,3.1,3.1,5.5,6.8,7.7,10.1l.8,1.2c.9,1.4,1.9,2.8,2.9,4.1,9.3,12.3,12,23.1,9.1,34.9-2.2,8.4-7.1,19.1-18.3,22-4.1,1-8.3,1.6-13.5,2.1h-1c-4.2.6-8.4,1.1-12.6,2.1-4,.9-7.8,2.1-11.3,3.2l-.7.2c-4.8,1.5-9.3,2.9-14,3.5-8.4,1.1-15.9-.6-23.1-2.2h-.4c-6.3-1.6-12.8-3.1-19.1-2.3h-.4v1.4H-.3c6-.9,12.1.5,18.7,2,7.5,1.7,15.2,3.5,24,2.4,4.9-.6,9.6-2.1,14.6-3.6h.3c3.5-1.2,7.3-2.4,11.3-3.3,4.5-1,9.1-1.6,13.5-2.1h.2c4.8-.6,9.3-1.1,13.5-2.2,9.4-2.4,16-10.3,19.2-22.9,3.1-12.2.2-23.3-9.3-36-1.1-1.4-2.1-3-3.1-4.5l-.7-1c-2.3-3.5-4.8-7.1-7.8-10-1.4-1.5-3-2.8-4.7-4.2h-.2c-1.7-1.5-3.4-3-5-4.6-6.7-6.8-14-16.2-11.6-28.1.3-1.5,1-3.5,2.1-6.3,2.8-7,12.1-23.8,19.6-33.3,5.5-7,12.2-8.6,25.8-9.7,5.6-.4,9.5-.8,13.5-2.2,6.6-2.3,11.1-6.9,15.5-11.3h.1c4.5-4.7,8.8-9.1,15.2-11,8.9-2.7,16.6,1.5,24.1,5.6l.5.3c3.3,1.8,6.4,3.4,9.5,4.5,11.1,3.7,19.9,1.7,27-6v-.2c.1,0,.1-.1.1-.1.2-.9.2-1.8.2-2.6v-1.1h-.1c-5.9-7.9-13.7-11.3-21.2-14.7-7.5-3.3-15.2-6.8-21.2-14.6-1.7-2.2-3.4-5-5.3-8-2.4-3.7-5.3-8.4-8.5-12.2-2.3-2.7-5.1-5.8-8.8-8.9-.3-.3-.6-.5-1-.8-.3-.2-.5-.4-.8-.7-5.5-4.4-10.3-8.3-7.7-16.7,3.2-10.2,15.7-19.6,26.6-27.8l.2-.2c.8-.6,1.6-1.2,2.4-1.8,5.9-4.4,12.7-9.3,18.9-10.5,6.1-1.2,11.7,1.5,16.7,8.2,2.1,2.8,4.2,6.1,6.2,9.3l1.1,1.8c1.2,2,2.5,4,3.8,5.9,3,4.5,6,8.8,9.1,13.2l1.5,2.2c.8,1.2,1.7,2.4,2.6,3.7.7,1.1,1.5,2.2,2.3,3.2,1.7,2.4,3.6,5.1,6.1,8.5l.2.2c2.6,3.5,5,6.8,7.1,10,1.9,2.9,6.5,9.8,4.3,16.5-2.2,6.8-9.9,14.2-17.4,21.4l-.5.5c-4.4,4.2-8.5,8.1-11.6,11.9-2.1,2.6-.4,6.6,1.1,10.2v.2c.8,1.6,1.4,3.2,1.7,4.5,1.7,7.9-2.8,13.5-7.7,19.5v.2c-2.3,2.7-4.5,5.5-6.3,8.7h0c-.2,1.2-.6,2.1-1.2,3.3l-.2.6c-.3.7-.6,1.3-.7,2-2.8,10.8.4,21.1,8.8,29.1,11.7,11.1,32.1,15.9,47.3,11.1,8-2.6,16-9.3,21.9-18.6,6-9.4,10.8-18,12.8-23,1.5-3.5,2.3-6.7,2.7-9.7.8-6.7.2-13.6-.5-20.9v-.2c-.3-3.5-.6-6.9-.8-10.3-.4-7.4.8-12.6,3.5-16.3,2.8-3.7,7.4-6,14.5-7.3,8.4-1.6,16.7-1.7,23.2-.3,14,3,29.4,19.5,32.8,35.4,1,4.5.2,9.2-.8,13.6-1.5,6.8-4.3,14.3-7,21.5l-.9,2.4c-.7,1.9-1.5,3.9-2.2,5.8-.1.3-.2.6-.3.9-.1.3-.2.6-.3.9-.5,1.4-1,2.8-1.5,4.1-1.9,4.9-4.2,9.9-6.9,14.8-.6,1.1-1.3,2.2-2,3.3l-.5.8c-1.4,2.2-2.9,4.4-3.7,6.8-.2.7-.5,1.3-.7,2l-.4,1.1c-1,3.2-2,6.2-4.1,9.3-2.6,3.7-5.7,7-8.8,10-1.8,1.8-3.2,3.7-4.5,5.5v.2c-1.2,1.5-2.4,3.3-3.9,4.9-1.8,1.9-3.8,3.8-5.8,5.5h-.1c-2,2-4.2,3.9-6.1,6-1.2,1.4-2.4,2.8-3.5,4.1-1,1.3-2,2.5-3.1,3.7-.6.7-1.3,1.3-1.8,1.8-1.1,1-2.4,2.1-3.2,3.7-1.1,1.8-1.9,3.8-2.7,5.7-.9,2.3-2,4.9-3.5,7.1-5.1,7.4-14.1,12-27.4,14.1-6,.9-12.7,1.4-18.6,1.8h-.3c-10.3.7-20,1.3-27,4.1-4.3,1.7-8.1,4.3-11.4,6.7-3.9,2.8-7.7,5.4-11.4,6.1-7.1,1.4-11.8-4.4-16-9.6l-.3-.4c-1.6-2-3.1-3.9-4.8-5.3-1.5-1.3-2.8-2.6-3.8-3.8h-.1c-2.2-2.4-4.2-4.5-7.3-6.2-3.9-2.2-8.1-3.9-11.8-5.4-.4-.2-.9-.3-1.3-.5-.4-.2-.8-.3-1.2-.5-11.2-4.7-17.6-10.5-22.1-20.1-2.9-6.1-4-12.4-3.7-21.2.3-8.9-7.5-15.3-13.7-20.5h-.2c-1.4-1.3-2.9-2.4-4.2-3.4-6.5-5.1-13.2-10.3-15.5-17.9-.8-2.8-.6-5.3-.2-7.7,1.9-13.7,11.8-24,25.8-26.9,4.2-.9,8-1.4,11.8-1.8h1.1c4-.6,7.6-1.1,11.1-1.8,2.1-.5,4.7-1.2,6.7-1.8s2-.6,2.9-.9c5.3-1.5,9.5-1.2,12.7.8,6,3.8,8.1,13.5,10.2,25.7.4,2.6,1.3,5.3,2.3,8.1v.2c1.8,5.2,3.6,10.7,2.3,15.7-.9,3.2-2.9,6.4-4.9,9.5l-.2.2c-4.6,7.1-9.3,14.5,0,22,2.2,1.8,4.5,3.5,6.4,4.9,8.1,6,15.7,11.6,17.8,22.8,2,10.4,8.7,16.9,19.9,19.2,22.4,4.7,40,5.2,52.4,1.3,9.8-3.1,17.2-10.4,19.8-19.6,2.9-9.9,7.5-20.7,14.2-33,1.9-3.5,4.5-7.9,7.9-11.8,2.4-2.7,5.2-5,7.9-7.3l.5-.4c2-1.7,4.1-3.5,6-5.4,1.4-1.5,2.9-3,4.4-4.4,3.5-3.5,7.9-7.8,11.6-12.2,6.5-7.6,11.4-17.4,15-30l.4-1.2c2.2-7.6,5-17,1.5-26.3-4.3-11.5-15.1-19.7-27.4-20.8-9.7-.9-15.2,3.3-16.8,12.8-.8,4.5-.4,9,0,13v.8c.2,1,.3,1.9.3,2.9.1,1.7.2,3.3.4,4.9h0c.3,4.1.7,8.3.4,12.5-.9,13.3-5,18.3-12.6,26.8-7.8,8.6-16.8,18-25.1,21.9-5.3,2.5-19.3,7.9-35.8,5-28.3-4.9-44.7-18.8-48.6-41.3-.4-2.4-.6-4.6-.9-7.2v-.7c-.4-2.6-.7-5.3-1.3-8.6-1-5.7-5.1-11.9-11.1-17.1-6-5-12.9-8.2-19-8.7-7.2-.6-12.5,3.6-16.8,6.9l-.6.5c-4.4,3.4-8.5,6.3-14.2,8.4-3.5,1.3-8.4,2.2-13.1,3h-.6c-4.3.8-7.8,1.5-10.7,2.3-17.3,4.9-25.6,24.5-28.3,32.6l-.2.6c-1.2,3.4-2.8,8.1-1.7,13.5,1.7,8,8.1,14.6,13.2,18.8,11.4,9.4,18.3,22.8,23.5,34.7,1.1,2.5,1.7,5.3,2.2,8v.4c.6,2.7,1.2,5.5,2.4,8.2,2.8,6.2,6.2,11,10.1,14.5,3.6,3.2,8,5.3,12.2,7.3l.6.3c3.1,1.5,6.4,3.1,9.2,5.1,5.9,4.1,11.7,9.5,9.8,18.8-1,4.7-5.5,9.4-9.2,13.2-1,1.1-2,2.1-2.9,3-5.6,6.1-9.1,10.3-11.3,17.3-1.6,5.2-1.7,14.4-.3,21.1,1.2,5.6,2.7,10.9,4,15.3v.4h1.4l-.2-.6c-1.3-5.1-2.8-10.3-4-15.9Z"/>
      </g>
    </g>
  </g>
</svg>